<svg width="32" height="32" viewBox="0 0 32 32" fill="none" xmlns="http://www.w3.org/2000/svg">
<path d="M12.2554 16.5216H13.9914V23.7419C13.9914 23.8845 14.1058 24 14.2469 24H17.1903C17.3314 24 17.4457 23.8845 17.4457 23.7419V16.5556H19.4414C19.5712 16.5556 19.6803 16.4572 19.6952 16.327L19.9983 13.6689C20.0066 13.5957 19.9837 13.5225 19.9352 13.4676C19.8867 13.4127 19.8174 13.3813 19.7446 13.3813H17.4458V11.715C17.4458 11.2127 17.7135 10.958 18.2416 10.958C18.3168 10.958 19.7446 10.958 19.7446 10.958C19.8857 10.958 20 10.8424 20 10.6999V8.25997C20 8.11742 19.8857 8.00191 19.7446 8.00191H17.6732C17.6586 8.00119 17.6262 8 17.5784 8C17.219 8 15.9697 8.07128 14.9829 8.98844C13.8896 10.0048 14.0415 11.2217 14.0779 11.4327V13.3812H12.2554C12.1143 13.3812 12 13.4967 12 13.6393V16.2635C12 16.406 12.1143 16.5216 12.2554 16.5216Z" fill="white"/>
<rect x="0.5" y="0.5" width="31" height="31" rx="5.5" stroke="white" stroke-opacity="0.16"/>
</svg>
