<svg width="24" height="24" viewBox="0 0 24 24" fill="none" xmlns="http://www.w3.org/2000/svg">
<path d="M19.2736 11.7091C19.7991 10.873 20.1097 9.9056 20.1097 8.85457C20.1097 5.88063 17.709 3.47998 14.7351 3.47998C11.7611 3.47998 9.36047 5.88063 9.36047 8.85457C9.36047 11.8285 11.7611 14.2292 14.7231 14.2292C15.7742 14.2292 16.7535 13.9186 17.5776 13.3931L21.304 17.1195L23 15.4235L19.2736 11.7091ZM14.7351 11.8405C13.0869 11.8405 11.7492 10.5028 11.7492 8.85457C11.7492 7.20636 13.0869 5.86869 14.7351 5.86869C16.3833 5.86869 17.721 7.20636 17.721 8.85457C17.721 10.5028 16.3833 11.8405 14.7351 11.8405Z" fill="black" fill-opacity="0.42"/>
<rect x="1" y="3.47998" width="7.16612" height="2.38871" fill="black" fill-opacity="0.42"/>
<rect x="1" y="10.646" width="7.16612" height="2.38871" fill="black" fill-opacity="0.42"/>
<rect x="1" y="17.8123" width="17.9153" height="2.38871" fill="black" fill-opacity="0.42"/>
</svg>
