<svg width="24" height="24" viewBox="0 0 24 24" fill="none" xmlns="http://www.w3.org/2000/svg">
<path fill-rule="evenodd" clip-rule="evenodd" d="M12 2C8.1305 2 5 5.18134 5 9.11367C5 10.4607 5.43682 11.8994 6.0335 13.2529C6.63532 14.618 7.43001 15.9634 8.21216 17.1415C8.99598 18.3221 9.77808 19.3509 10.3636 20.084C10.8883 20.7411 11.4443 21.3691 12 22C12.5557 21.3691 13.1117 20.7411 13.6364 20.084C14.2219 19.3509 15.004 18.3221 15.7878 17.1415C16.57 15.9634 17.3647 14.618 17.9665 13.2529C18.5632 11.8994 19 10.4607 19 9.11367C19 5.18134 15.8695 2 12 2ZM8.9375 9.11367C8.9375 7.39547 10.3093 6.00144 12 6.00144C13.6907 6.00144 15.0625 7.39547 15.0625 9.11367C15.0625 10.8319 13.6907 12.2259 12 12.2259C10.3093 12.2259 8.9375 10.8319 8.9375 9.11367Z" fill="#C79B8B"/>
</svg>
