<svg width="16" height="16" viewBox="0 0 16 16" fill="none" xmlns="http://www.w3.org/2000/svg">
<path d="M1 15L1.98878 11.4049C1.37863 10.3526 1.05803 9.15967 1.05861 7.93642C1.06037 4.11208 4.18731 1 8.0293 1C9.89374 1.00058 11.6439 1.72333 12.9603 3.03467C14.2761 4.346 15.0006 6.089 15 7.94283C14.9982 11.7677 11.8713 14.8798 8.0293 14.8798C6.86293 14.8792 5.71356 14.5882 4.69547 14.0352L1 15ZM4.86662 12.7793C5.84895 13.3597 6.78674 13.7073 8.02696 13.7079C11.2201 13.7079 13.8213 11.1214 13.8231 7.94167C13.8242 4.7555 11.2354 2.1725 8.03165 2.17133C4.83614 2.17133 2.23671 4.75783 2.23554 7.937C2.23495 9.23492 2.6171 10.2067 3.2589 11.2235L2.67336 13.3515L4.86662 12.7793ZM11.5407 9.59192C11.4974 9.51958 11.3813 9.47642 11.2066 9.3895C11.0326 9.30258 10.1763 8.88317 10.0162 8.82542C9.85682 8.76767 9.74077 8.7385 9.62413 8.91233C9.50808 9.08558 9.17399 9.47642 9.07259 9.59192C8.9712 9.70742 8.86921 9.722 8.69513 9.63508C8.52106 9.54817 7.95956 9.36558 7.29431 8.77467C6.77677 8.315 6.42686 7.74742 6.32546 7.57358C6.22406 7.40033 6.31491 7.30642 6.40166 7.22008C6.4802 7.1425 6.57573 7.01767 6.66307 6.91617C6.75157 6.81583 6.78029 6.7435 6.8389 6.62742C6.89693 6.51192 6.86821 6.41042 6.82425 6.3235C6.78029 6.23717 6.43214 5.38375 6.28736 5.03667C6.14552 4.69892 6.00193 4.74442 5.89525 4.73917L5.56116 4.73333C5.44511 4.73333 5.25638 4.7765 5.09696 4.95033C4.93754 5.12417 4.4874 5.543 4.4874 6.39642C4.4874 7.24983 5.11161 8.07408 5.19836 8.18958C5.28569 8.30508 6.42627 10.0562 8.17349 10.807C8.58905 10.9855 8.91376 11.0922 9.16637 11.1722C9.58369 11.304 9.96349 11.2853 10.2636 11.241C10.5983 11.1914 11.294 10.8216 11.4393 10.4167C11.5847 10.0113 11.5847 9.66425 11.5407 9.59192Z" fill="white"/>
</svg>
