<svg width="32" height="32" viewBox="0 0 32 32" fill="none" xmlns="http://www.w3.org/2000/svg">
<path d="M25 16C25 17.8084 25 19.028 24.9579 19.7009C24.8738 21.3411 24.4112 22.6028 23.486 23.486C22.5607 24.3692 21.3411 24.8738 19.7009 24.9579C19.028 25 17.7664 25 16 25C14.1916 25 12.972 25 12.2991 24.9579C10.6589 24.8738 9.3972 24.4112 8.51402 23.486C7.63084 22.6028 7.12617 21.3411 7.04206 19.7009C7 19.028 7 17.7664 7 16C7 14.2336 7 12.972 7.04206 12.2991C7.12617 10.6589 7.58878 9.3972 8.51402 8.51402C9.3972 7.63084 10.6589 7.12617 12.2991 7.04206C12.972 7 14.2336 7 16 7C17.8084 7 19.028 7 19.7009 7.04206C21.3411 7.12617 22.6028 7.58878 23.486 8.51402C24.3692 9.43925 24.8738 10.6589 24.9579 12.2991C24.9579 12.972 25 14.1916 25 16ZM16.8832 8.59813C16.3364 8.59813 16.0421 8.59813 16 8.59813C15.9579 8.59813 15.6636 8.59813 15.1168 8.59813C14.5701 8.59813 14.1495 8.59813 13.8972 8.59813C13.6028 8.59813 13.2243 8.59813 12.7617 8.64019C12.2991 8.64019 11.8785 8.68224 11.5421 8.76636C11.2056 8.80841 10.9112 8.89252 10.7009 8.97664C10.3224 9.14486 9.98598 9.35514 9.64953 9.64953C9.35514 9.94393 9.14486 10.2804 8.97664 10.7009C8.89252 10.9112 8.80841 11.2056 8.76636 11.5421C8.7243 11.8785 8.68224 12.257 8.64019 12.7617C8.64019 13.2243 8.59813 13.6028 8.59813 13.8972C8.59813 14.1916 8.59813 14.6122 8.59813 15.1168C8.59813 15.6636 8.59813 15.9579 8.59813 16C8.59813 16.0421 8.59813 16.3364 8.59813 16.8832C8.59813 17.4299 8.59813 17.8505 8.59813 18.1028C8.59813 18.3972 8.59813 18.7757 8.64019 19.2383C8.64019 19.7009 8.68224 20.1215 8.76636 20.4579C8.85047 20.7944 8.89252 21.0888 8.97664 21.2991C9.14486 21.6776 9.35514 22.014 9.64953 22.3505C9.94393 22.6449 10.2804 22.8551 10.7009 23.0234C10.9112 23.1075 11.2056 23.1916 11.5421 23.2336C11.8785 23.2757 12.257 23.3178 12.7617 23.3598C13.2664 23.4019 13.6028 23.4019 13.8972 23.4019C14.1916 23.4019 14.6121 23.4019 15.1168 23.4019C15.6636 23.4019 15.9579 23.4019 16 23.4019C16.0421 23.4019 16.3364 23.4019 16.8832 23.4019C17.4299 23.4019 17.8505 23.4019 18.1028 23.4019C18.3972 23.4019 18.7757 23.4019 19.2383 23.3598C19.7009 23.3598 20.1215 23.3178 20.4579 23.2336C20.7944 23.1916 21.0888 23.1075 21.2991 23.0234C21.6776 22.8551 22.014 22.6449 22.3505 22.3505C22.6449 22.0561 22.8551 21.7196 23.0234 21.2991C23.1075 21.0888 23.1916 20.7944 23.2336 20.4579C23.2757 20.1215 23.3178 19.743 23.3598 19.2383C23.3598 18.7757 23.4019 18.3972 23.4019 18.1028C23.4019 17.8084 23.4019 17.3879 23.4019 16.8832C23.4019 16.3364 23.4019 16.0421 23.4019 16C23.4019 15.9579 23.4019 15.6636 23.4019 15.1168C23.4019 14.5701 23.4019 14.1495 23.4019 13.8972C23.4019 13.6028 23.4019 13.2243 23.3598 12.7617C23.3598 12.2991 23.3178 11.8785 23.2336 11.5421C23.1916 11.2056 23.1075 10.9112 23.0234 10.7009C22.8551 10.3224 22.6449 9.98598 22.3505 9.64953C22.0561 9.35514 21.7196 9.14486 21.2991 8.97664C21.0888 8.89252 20.7944 8.80841 20.4579 8.76636C20.1215 8.7243 19.743 8.68224 19.2383 8.64019C18.7757 8.64019 18.3972 8.59813 18.1028 8.59813C17.8505 8.59813 17.4299 8.59813 16.8832 8.59813ZM19.2383 12.7196C20.1215 13.6028 20.5841 14.6963 20.5841 16C20.5841 17.3037 20.1215 18.3551 19.2383 19.2804C18.3551 20.1636 17.2617 20.6262 15.9579 20.6262C14.6542 20.6262 13.6028 20.1636 12.6776 19.2804C11.7944 18.3972 11.3318 17.3037 11.3318 16C11.3318 14.6963 11.7944 13.6449 12.6776 12.7196C13.5607 11.8364 14.6542 11.3738 15.9579 11.3738C17.2617 11.3738 18.3551 11.7944 19.2383 12.7196ZM18.1028 18.1028C18.6916 17.514 18.986 16.7991 18.986 16C18.986 15.2009 18.6916 14.4439 18.1028 13.8551C17.514 13.2664 16.7991 12.972 15.9579 12.972C15.1168 12.972 14.4019 13.2664 13.8131 13.8551C13.2243 14.4439 12.9299 15.1589 12.9299 16C12.9299 16.8411 13.2243 17.5561 13.8131 18.1028C14.4019 18.6916 15.1168 18.986 15.9579 18.986C16.7991 18.986 17.514 18.6916 18.1028 18.1028ZM21.5514 10.4065C21.7617 10.6168 21.8879 10.8692 21.8879 11.1636C21.8879 11.4579 21.7617 11.7103 21.5514 11.9206C21.3411 12.1308 21.0888 12.257 20.7944 12.257C20.5 12.257 20.2477 12.1308 20.0374 11.9206C19.8271 11.7103 19.7009 11.4579 19.7009 11.1636C19.7009 10.8692 19.8271 10.6168 20.0374 10.4065C20.2477 10.1963 20.5 10.0701 20.7944 10.0701C21.0888 10.0701 21.3411 10.1963 21.5514 10.4065Z" fill="white"/>
<rect x="0.5" y="0.5" width="31" height="31" rx="5.5" stroke="white" stroke-opacity="0.16"/>
</svg>
