<svg width="32" height="32" viewBox="0 0 32 32" fill="none" xmlns="http://www.w3.org/2000/svg">
<path fill-rule="evenodd" clip-rule="evenodd" d="M25 10.6584C24.3736 10.9387 23.7015 11.1289 22.9964 11.2138C23.7167 10.7767 24.2696 10.0825 24.5283 9.25712C23.8536 9.66336 23.108 9.95647 22.3142 10.1159C21.6776 9.42938 20.7722 9 19.7679 9C17.8429 9 16.2806 10.5838 16.2806 12.5354C16.2806 12.813 16.3111 13.083 16.3719 13.3401C13.4731 13.1936 10.9039 11.7846 9.1844 9.64536C8.88513 10.1673 8.71267 10.7741 8.71267 11.422C8.71267 12.6485 9.32896 13.7309 10.2648 14.3635C9.69417 14.3455 9.1565 14.186 8.68477 13.9212C8.68477 13.9366 8.68477 13.9495 8.68477 13.9649C8.68477 15.6773 9.88692 17.1069 11.4822 17.4309C11.1905 17.5106 10.8811 17.5543 10.5641 17.5543C10.3384 17.5543 10.1202 17.5311 9.90721 17.49C10.351 18.8938 11.6394 19.9172 13.1637 19.9455C11.9691 20.8942 10.4677 21.4599 8.83187 21.4599C8.55035 21.4599 8.27391 21.4419 8 21.411C9.542 22.4138 11.3757 23 13.3463 23C19.7603 23 23.2678 17.6134 23.2678 12.9416C23.2678 12.7873 23.2653 12.6356 23.2576 12.4839C23.9399 11.9851 24.5308 11.3629 24.9975 10.6533L25 10.6584Z" fill="white"/>
<rect x="0.5" y="0.5" width="31" height="31" rx="5.5" stroke="white" stroke-opacity="0.16"/>
</svg>
