<svg width="32" height="32" viewBox="0 0 32 32" fill="none" xmlns="http://www.w3.org/2000/svg">
<path d="M25.8939 20.4342C25.8697 20.3839 25.8471 20.3422 25.8262 20.3087C25.4792 19.7063 24.8161 18.9668 23.8372 18.0901L23.8166 18.07L23.8062 18.0602L23.7957 18.0501H23.7852C23.341 17.6419 23.0597 17.3674 22.9419 17.2268C22.7263 16.9591 22.678 16.6882 22.7959 16.4136C22.8791 16.2062 23.1917 15.7681 23.733 15.0988C24.0178 14.744 24.2433 14.4598 24.4098 14.2456C25.6109 12.7063 26.1316 11.7227 25.9719 11.2943L25.9098 11.1942C25.8681 11.134 25.7606 11.0788 25.5872 11.0286C25.4134 10.9784 25.1914 10.9701 24.9206 11.0035L21.9216 11.0235C21.8731 11.0069 21.8037 11.0085 21.7133 11.0286C21.623 11.0487 21.5779 11.0588 21.5779 11.0588L21.5257 11.0839L21.4843 11.1141C21.4495 11.1341 21.4114 11.1692 21.3697 11.2194C21.3282 11.2694 21.2935 11.3282 21.2658 11.3951C20.9393 12.2048 20.5681 12.9577 20.1515 13.6536C19.8946 14.0686 19.6587 14.4282 19.4432 14.7328C19.2281 15.0372 19.0476 15.2615 18.9019 15.4052C18.756 15.5491 18.6244 15.6644 18.5061 15.7515C18.388 15.8386 18.2979 15.8754 18.2355 15.862C18.173 15.8485 18.1141 15.8351 18.0583 15.8218C17.9612 15.7615 17.883 15.6796 17.8241 15.5758C17.765 15.4721 17.7252 15.3416 17.7043 15.1843C17.6836 15.0269 17.6714 14.8916 17.6679 14.7778C17.6646 14.6641 17.6661 14.5033 17.6732 14.2959C17.6804 14.0883 17.6836 13.9479 17.6836 13.8743C17.6836 13.6199 17.6888 13.3439 17.6991 13.0461C17.7096 12.7483 17.7181 12.5124 17.7252 12.3385C17.7323 12.1645 17.7356 11.9804 17.7356 11.7864C17.7356 11.5923 17.7233 11.4401 17.6991 11.3296C17.6752 11.2193 17.6384 11.1122 17.59 11.0084C17.5413 10.9046 17.4701 10.8244 17.3766 10.7674C17.2829 10.7106 17.1664 10.6654 17.0277 10.6319C16.6598 10.5516 16.1912 10.5082 15.6218 10.5014C14.3307 10.4881 13.501 10.5684 13.1331 10.7424C12.9873 10.816 12.8554 10.9164 12.7374 11.0435C12.6125 11.1908 12.595 11.2711 12.6853 11.2844C13.1018 11.3445 13.3968 11.4884 13.5703 11.7159L13.6329 11.8365C13.6815 11.9235 13.7301 12.0775 13.7787 12.2983C13.8273 12.5191 13.8586 12.7633 13.8724 13.0309C13.907 13.5195 13.907 13.9377 13.8724 14.2857C13.8376 14.6338 13.8048 14.9047 13.7735 15.0988C13.7422 15.2929 13.6953 15.4502 13.6329 15.5706C13.5703 15.691 13.5287 15.7646 13.5079 15.7914C13.487 15.8181 13.4697 15.8349 13.4559 15.8415C13.3656 15.8749 13.2718 15.8919 13.1747 15.8919C13.0774 15.8919 12.9595 15.845 12.8206 15.7512C12.6819 15.6575 12.5378 15.5287 12.3885 15.3647C12.2393 15.2007 12.0709 14.9715 11.8834 14.6771C11.696 14.3827 11.5016 14.0347 11.3003 13.6332L11.1338 13.342C11.0296 13.1547 10.8874 12.8819 10.7069 12.524C10.5263 12.1659 10.3666 11.8195 10.2278 11.4849C10.1724 11.3443 10.089 11.2373 9.97798 11.1637L9.92586 11.1335C9.89121 11.1068 9.83559 11.0784 9.75929 11.0482C9.68288 11.018 9.60315 10.9963 9.51977 10.983L6.66657 11.003C6.37501 11.003 6.17718 11.0666 6.07302 11.1938L6.03133 11.254C6.0105 11.2875 6 11.341 6 11.4147C6 11.4883 6.02083 11.5786 6.06251 11.6856C6.47903 12.6293 6.93198 13.5394 7.42137 14.416C7.91075 15.2927 8.33602 15.9989 8.69692 16.5339C9.05789 17.0694 9.42582 17.5747 9.80072 18.0497C10.1756 18.5249 10.4238 18.8294 10.5452 18.9632C10.6668 19.0972 10.7622 19.1974 10.8317 19.2643L11.092 19.5052C11.2586 19.6658 11.5033 19.8582 11.8261 20.0824C12.149 20.3067 12.5065 20.5274 12.8987 20.7451C13.291 20.9624 13.7474 21.1398 14.2681 21.2769C14.7887 21.4142 15.2955 21.4693 15.7884 21.4427H16.9859C17.2288 21.4225 17.4128 21.3489 17.5379 21.2218L17.5793 21.1715C17.6072 21.1316 17.6333 21.0695 17.6573 20.986C17.6817 20.9024 17.6938 20.8102 17.6938 20.71C17.6867 20.4223 17.7094 20.163 17.7613 19.9321C17.8132 19.7014 17.8724 19.5273 17.9386 19.4102C18.0047 19.2931 18.0793 19.1943 18.1624 19.1142C18.2456 19.0339 18.3049 18.9853 18.3397 18.9686C18.3743 18.9517 18.4019 18.9403 18.4227 18.9334C18.5893 18.8799 18.7854 18.9318 19.0112 19.0892C19.2369 19.2464 19.4485 19.4406 19.6465 19.6714C19.8444 19.9024 20.0821 20.1615 20.3597 20.4493C20.6375 20.7371 20.8804 20.951 21.0886 21.0918L21.2968 21.2122C21.4358 21.2926 21.6163 21.3662 21.8385 21.4331C22.0603 21.5 22.2546 21.5167 22.4215 21.4833L25.0872 21.4432C25.3508 21.4432 25.556 21.4011 25.7015 21.3176C25.8473 21.234 25.9339 21.1418 25.9619 21.0416C25.9897 20.9412 25.9912 20.8274 25.9672 20.7001C25.9425 20.5732 25.9181 20.4844 25.8939 20.4342Z" fill="white"/>
<rect x="0.5" y="0.5" width="31" height="31" rx="5.5" stroke="white" stroke-opacity="0.16"/>
</svg>
