<svg width="32" height="32" viewBox="0 0 32 32" fill="none" xmlns="http://www.w3.org/2000/svg">
<path fill-rule="evenodd" clip-rule="evenodd" d="M23.8253 9.42824C24.682 9.65882 25.3574 10.3341 25.5881 11.1906C26.0164 12.7553 25.9999 16.0165 25.9999 16.0165C25.9999 16.0165 25.9999 19.2612 25.5881 20.8259C25.3574 21.6824 24.682 22.3576 23.8253 22.5882C22.2602 23 16 23 16 23C16 23 9.75616 23 8.17462 22.5718C7.31795 22.3412 6.6425 21.6659 6.41186 20.8094C6 19.2612 6 16 6 16C6 16 6 12.7553 6.41186 11.1906C6.6425 10.3341 7.33443 9.64235 8.17462 9.41176C9.73969 9 16 9 16 9C16 9 22.2602 9 23.8253 9.42824ZM14.0066 13.0023L19.2125 16L14.0066 18.9976V13.0023Z" fill="white"/>
<rect x="0.5" y="0.5" width="31" height="31" rx="5.5" stroke="white" stroke-opacity="0.16"/>
</svg>
