<svg width="92" height="36" viewBox="0 0 92 36" fill="none" xmlns="http://www.w3.org/2000/svg">
<path d="M92 36L79.0932 22.9992L68.0866 33.9651L57.0725 22.9915L46.058 33.9651L35.0438 22.9915L24.0295 33.9651L13.0153 22.9915L0 35.9585V18.1893H4.00199V26.3452L13.0153 17.3649L24.0295 28.3386L35.0438 17.3649L46.058 28.3386L57.0725 17.3649L68.0866 28.3386L79.1088 17.3571L87.998 26.3115V18.1893H92V36Z" fill="#888888"/>
<path d="M10.1705 0.797161C11.0331 1.29156 11.7175 1.99403 12.2239 2.90396C12.7298 3.8143 12.9832 4.87109 12.9832 6.07494C12.9832 7.279 12.7298 8.336 12.2239 9.24613C11.7175 10.1565 11.0331 10.8585 10.1705 11.3529C9.30752 11.8473 8.34869 12.0946 7.29361 12.0946C5.93874 12.0946 4.8622 11.6861 4.06379 10.8692V16.0718H0V0.24874H3.87129V1.40987C4.62699 0.506724 5.76769 0.0552521 7.29361 0.0552521C8.34869 0.0552521 9.30752 0.302555 10.1705 0.797161ZM8.19195 8.10656C8.64806 7.61216 8.87633 6.93496 8.87633 6.07494C8.87633 5.21513 8.64806 4.53793 8.19195 4.04332C7.73542 3.54892 7.15097 3.30162 6.43797 3.30162C5.72478 3.30162 5.14033 3.54892 4.68421 4.04332C4.22768 4.53793 3.99962 5.21513 3.99962 6.07494C3.99962 6.93496 4.22768 7.61216 4.68421 8.10656C5.14033 8.60117 5.72478 8.84827 6.43797 8.84827C7.15097 8.84827 7.73542 8.60117 8.19195 8.10656Z" fill="white"/>
<path d="M24.41 1.37762C25.4224 2.259 25.9288 3.61013 25.9288 5.42998V11.9011H22.1427V10.3962C21.5578 11.5285 20.4173 12.0946 18.7206 12.0946C17.8222 12.0946 17.0449 11.9367 16.3891 11.6216C15.7331 11.3065 15.2373 10.8799 14.9026 10.3426C14.5673 9.80502 14.3999 9.19231 14.3999 8.50443C14.3999 7.4008 14.8203 6.54469 15.6618 5.93527C16.5031 5.32625 17.8008 5.02165 19.5547 5.02165H21.8648C21.7932 3.78903 20.9734 3.17262 19.4049 3.17262C18.8489 3.17262 18.2853 3.26238 17.7151 3.44149C17.1448 3.62081 16.6599 3.86811 16.2608 4.1832L14.8918 1.40987C15.5335 0.979762 16.3143 0.646602 17.2339 0.40998C18.1537 0.173563 19.0768 0.0552521 20.0039 0.0552521C21.9289 0.0552521 23.3974 0.496043 24.41 1.37762ZM21.0948 9.17075C21.4509 8.94172 21.7076 8.60487 21.8648 8.16038V7.15001H20.1108C18.927 7.15001 18.3356 7.54438 18.3356 8.3323C18.3356 8.69072 18.4708 8.97726 18.7418 9.19231C19.0126 9.40737 19.3835 9.51479 19.8541 9.51479C20.3247 9.51479 20.7382 9.40018 21.0948 9.17075Z" fill="white"/>
<path d="M38.6207 0.797161C39.4833 1.29156 40.1677 1.99403 40.6741 2.90396C41.18 3.8143 41.4334 4.87109 41.4334 6.07494C41.4334 7.279 41.18 8.336 40.6741 9.24613C40.1677 10.1565 39.4833 10.8585 38.6207 11.3529C37.7577 11.8473 36.7989 12.0946 35.7438 12.0946C34.3889 12.0946 33.3124 11.6861 32.514 10.8692V16.0718H28.4502V0.24874H32.3215V1.40987C33.0772 0.506724 34.2179 0.0552521 35.7438 0.0552521C36.7989 0.0552521 37.7577 0.302555 38.6207 0.797161ZM36.6421 8.10656C37.0983 7.61216 37.3265 6.93496 37.3265 6.07494C37.3265 5.21513 37.0983 4.53792 36.6421 4.04332C36.1856 3.54892 35.6012 3.30162 34.8882 3.30162C34.175 3.30162 33.5905 3.54892 33.1344 4.04332C32.6779 4.53792 32.4498 5.21513 32.4498 6.07494C32.4498 6.93496 32.6779 7.61216 33.1344 8.10656C33.5905 8.60117 34.175 8.84827 34.8882 8.84827C35.6012 8.84827 36.1856 8.60117 36.6421 8.10656Z" fill="white"/>
<path d="M55.6195 7.10688H47.1922C47.3634 7.70891 47.6949 8.17106 48.1868 8.49354C48.6789 8.81602 49.2952 8.97726 50.0366 8.97726C50.5932 8.97726 51.0739 8.8988 51.481 8.74084C51.8872 8.5833 52.2967 8.32532 52.7104 7.96689L54.8495 10.2027C53.7231 11.464 52.076 12.0946 49.9083 12.0946C48.5538 12.0946 47.3634 11.8366 46.3368 11.3207C45.3101 10.8047 44.5149 10.0883 43.9517 9.17075C43.3883 8.25384 43.1069 7.21451 43.1069 6.05358C43.1069 4.90703 43.3814 3.87879 43.9305 2.96846C44.4792 2.05853 45.2386 1.34538 46.2084 0.829409C47.1779 0.313236 48.2685 0.0552521 49.4807 0.0552521C50.6358 0.0552521 51.6837 0.295571 52.6245 0.775594C53.5662 1.25582 54.3109 1.9509 54.8602 2.86103C55.4086 3.77137 55.6833 4.84952 55.6833 6.09651C55.6833 6.12547 55.662 6.46192 55.6195 7.10688ZM47.9301 3.4951C47.5093 3.85353 47.242 4.34095 47.128 4.95715H51.8766C51.7622 4.34095 51.4949 3.85353 51.0739 3.4951C50.6537 3.13709 50.1298 2.95777 49.502 2.95777C48.8746 2.95777 48.3507 3.13709 47.9301 3.4951Z" fill="white"/>
<path d="M62.8886 0.397862C63.5515 0.132689 64.3109 0 65.1667 0V3.67647C64.7956 3.63334 64.4891 3.61198 64.2471 3.61198C63.3774 3.61198 62.6965 3.84839 62.2044 4.32143C61.7123 4.79427 61.4663 5.5183 61.4663 6.49273V11.8459H57.4021V0.193488H61.2742V1.59104C61.687 1.0609 62.2257 0.66324 62.8886 0.397862Z" fill="white"/>
</svg>
