<svg width="200" height="101" viewBox="0 0 200 101" fill="none" xmlns="http://www.w3.org/2000/svg">
<g clip-path="url(#clip0)">
<path fill-rule="evenodd" clip-rule="evenodd" d="M55.4083 28.5604C53.7056 29.4835 52.4062 30.838 50.9096 30.0994C50.3361 29.8164 48.4449 28.3343 47.8766 27.4245C50.8495 26.6834 53.3611 25.6465 55.4313 28.0369L51.5654 28.7844C53.7816 29.3241 53.758 28.4354 55.4083 28.5604Z" fill="#7A5145"/>
<path fill-rule="evenodd" clip-rule="evenodd" d="M56.1706 26.5964L54.5633 25.6592C53.5758 24.8192 53.0262 22.4507 55.1726 20.9165C56.9151 23.2741 58.4088 23.9933 56.1706 26.5964Z" fill="#7A5145"/>
<path fill-rule="evenodd" clip-rule="evenodd" d="M53.0752 25.2109C50.5807 26.2008 50.2751 25.0487 50.0959 22.9624C52.5643 21.7913 53.4584 22.5395 53.0752 25.2109Z" fill="#7A5145"/>
<path fill-rule="evenodd" clip-rule="evenodd" d="M92.7832 45.9604C91.3567 46.3924 89.6172 46.7101 88.0726 46.7088C85.7867 46.7067 83.7191 45.6174 83.1246 43.5789C82.7076 42.149 83.2594 40.8734 84.4675 40.2818C85.2757 41.5828 86.685 40.0854 85.4128 39.4048C84.8562 39.1069 83.1185 39.4453 82.5047 41.6579C81.9474 43.6669 83.4345 45.9569 85.2249 46.8367C84.1531 47.2552 82.0896 47.384 80.9798 46.6424C79.5461 45.6846 78.9234 43.3923 80.5646 43.5175C80.6554 44.4019 81.7135 44.1032 81.5306 43.4635C81.1961 42.6782 80.6618 42.5799 80.1811 42.6602C79.2513 42.8158 78.4389 44.0827 79.0839 45.4486C79.4786 46.4844 79.9763 46.9882 80.7704 47.4778C81.1326 47.7013 81.3945 47.7993 81.7267 47.8899C81.7899 47.9071 81.8529 47.9234 81.916 47.9395C80.0546 47.6974 78.2693 47.1761 75.9573 46.0028C73.3315 44.3484 73.184 42.184 73.6599 40.1828C74.0921 38.3656 75.4832 37.3224 77.1646 37.434C77.238 39.3555 79.6998 38.6073 78.7369 37.0708C78.3157 36.3985 75.889 35.3953 74.1756 37.7043C70.6688 42.4299 73.3833 46.7615 78.8286 48.4057C72.8361 47.7794 67.0168 45.2794 62.5243 41.2507C62.6985 41.1871 62.9063 41.1667 63.0016 41.1659L63.0113 41.1656C63.1062 41.1597 63.9389 41.0936 63.9575 40.5861C63.9699 40.2447 63.705 40.0145 63.2117 39.7092C63.1707 39.6838 63.1343 39.6615 63.1015 39.6415C62.881 39.5069 62.863 39.4958 62.7601 39.3404C62.6918 39.2373 62.7031 38.854 62.7563 38.5581C62.7794 38.4632 62.9087 37.8594 62.5443 37.6315C62.1391 37.3781 61.6912 37.7285 61.4867 37.9796C61.4037 38.0671 61.1551 38.2868 60.9356 38.3205C60.7301 38.3521 60.428 38.1462 60.3387 38.0718L60.3171 38.0563C60.2506 38.0159 59.7768 37.7399 59.3993 37.8344C56.037 33.201 55.4922 27.8159 62.1808 24.6325C67.1646 22.2606 73.3742 25.78 71.5874 31.7849C70.3528 35.9342 64.4082 35.0933 63.9363 30.8119C65.2705 30.7257 64.9003 29.3953 63.8284 29.5371C61.5458 30.3464 64.543 35.2849 67.845 35.262C77.1824 35.1971 73.1861 18.9906 62.1117 23.17C54.8736 25.9015 54.2673 32.4889 59.0358 38.99C59.1525 39.1491 59.2729 39.3058 59.3948 39.4615C59.4168 39.537 59.4341 39.6259 59.4346 39.7206C59.4231 39.7954 59.2212 39.9979 59.0875 40.132C58.743 40.4775 58.3524 40.8693 58.5693 41.2418C58.7703 41.5871 59.1734 41.565 59.5633 41.5437C59.8041 41.5305 60.0531 41.5169 60.2525 41.5859C60.444 41.6522 60.551 41.8925 60.6643 42.1471C60.8147 42.4851 60.9852 42.8681 61.4159 42.9168C61.433 42.9188 61.4497 42.9197 61.4661 42.9197C61.762 42.9197 61.9201 42.6076 62.0306 42.2564C67.5994 47.2003 75.9769 49.7632 83.8713 49.1048C84.3349 49.1042 85.4109 48.9685 85.4728 48.9253C88.0566 48.5615 90.5632 47.8395 92.8731 46.7287C92.863 46.5598 92.8171 46.2921 92.7832 45.9604ZM61.4554 42.567C61.2391 42.5425 61.1331 42.3377 60.9843 42.0033C60.8519 41.706 60.7019 41.369 60.3668 41.2531C60.2029 41.1963 60.0265 41.181 59.8537 41.181C59.7481 41.181 59.6438 41.1868 59.5445 41.1922C59.1839 41.212 58.9587 41.2132 58.8719 41.064C58.7916 40.9261 59.1319 40.5847 59.3352 40.3808C59.587 40.1283 59.7857 39.9289 59.7849 39.7223C59.7833 39.3509 59.6046 39.0585 59.5999 39.051C59.4293 38.7551 59.2991 38.3491 59.3848 38.2397C59.5178 38.0703 59.9344 38.2384 60.126 38.3512C60.2097 38.4191 60.6121 38.7257 60.9887 38.6682C61.3696 38.6098 61.7091 38.256 61.7465 38.2159L61.7546 38.2064C61.7582 38.2021 62.1139 37.7768 62.3594 37.93C62.4726 38.0007 62.4597 38.2991 62.4155 38.4782L62.4131 38.4893C62.39 38.6151 62.2844 39.2567 62.4687 39.535C62.6148 39.7557 62.6855 39.7988 62.9199 39.942C62.9521 39.9616 62.988 39.9835 63.0283 40.0085C63.5192 40.3123 63.6124 40.4455 63.6078 40.5729C63.6033 40.6975 63.2488 40.7968 62.9943 40.8139C62.8848 40.8153 62.1393 40.8419 61.9385 41.3141C61.8861 41.4372 61.843 41.6062 61.7974 41.7853C61.7365 42.024 61.5917 42.5845 61.4554 42.567Z" fill="#7A5145"/>
<path fill-rule="evenodd" clip-rule="evenodd" d="M52.8859 45.1228C52.8341 42.5563 51.9071 41.1092 50.3715 40.3875C48.8614 42.4998 49.9796 46.4259 52.8859 45.1228Z" fill="#7A5145"/>
<path fill-rule="evenodd" clip-rule="evenodd" d="M53.7084 45.2625C56.5176 45.8297 56.1246 44.7962 56.2511 42.4988C54.8259 42.5462 53.1028 42.9742 53.7084 45.2625Z" fill="#7A5145"/>
<path fill-rule="evenodd" clip-rule="evenodd" d="M16.0778 59.3512C14.2086 58.8493 12.3383 58.9393 11.7537 57.3705C11.5297 56.7694 11.1657 54.3874 11.3735 53.3338C14.0426 54.8436 16.5779 55.8202 16.452 58.9863L13.1288 56.8657C14.3727 58.7857 14.9624 58.1228 16.0778 59.3512Z" fill="#7A5145"/>
<path fill-rule="evenodd" clip-rule="evenodd" d="M10.9413 50.29L11.8883 48.6836C12.7331 47.699 15.0955 47.1678 16.6035 49.3377C14.2414 51.0674 13.5124 52.5616 10.9413 50.29Z" fill="#7A5145"/>
<path fill-rule="evenodd" clip-rule="evenodd" d="M77.2431 51.5942C78.2116 52.0712 79.2442 52.2246 79.3955 53.1459C79.4534 53.4989 79.3969 54.8411 79.1702 55.3948C77.8724 54.2799 76.5906 53.4712 76.9992 51.7533L78.5892 53.2731C78.1149 52.0882 77.7213 52.3869 77.2431 51.5942Z" fill="#7A5145"/>
<path fill-rule="evenodd" clip-rule="evenodd" d="M78.4319 55.55L77.5837 56.1476C76.9295 56.4528 75.6081 56.1777 75.338 54.7276C76.9332 54.3938 77.645 53.803 78.4319 55.55Z" fill="#7A5145"/>
<path d="M94.6258 48.8957C94.4983 48.7841 94.3797 48.7195 94.2034 48.7206C92.9178 50.7314 91.3621 52.5046 89.3154 53.9633C87.4659 55.2814 85.4688 56.1569 83.3778 56.669C83.5145 56.4805 83.6069 56.2482 83.4781 56.0357C83.3011 55.7439 82.9536 55.6984 82.3746 55.7173C82.3262 55.7188 82.2835 55.7204 82.2451 55.7219C81.9874 55.7318 81.9664 55.7325 81.7954 55.6599C81.6819 55.6117 81.4809 55.2857 81.363 55.0094C81.3301 54.9175 81.1048 54.3402 80.6774 54.3539C80.2004 54.367 80.0191 54.9071 79.9863 55.2299C79.9647 55.3493 79.8772 55.6713 79.7137 55.8199C79.5594 55.9601 79.1945 55.9558 79.0792 55.943L79.0659 55.9416L79.0527 55.9421C78.9527 55.9462 78.0749 55.9983 78.0265 56.5827C78.0052 56.8394 78.2259 57.0724 78.4477 57.2394C71.8409 57.2379 64.7525 54.4805 58.6121 51.0225C58.8752 50.7533 59.4302 50.6427 59.661 50.6217L59.6706 50.6206C59.8058 50.601 60.99 50.4089 60.9588 49.716C60.9372 49.2379 60.54 48.9496 59.7656 48.5543C59.7002 48.5209 59.6421 48.4916 59.59 48.4655C59.2361 48.2875 59.1907 48.2646 59.0022 48.025C58.8431 47.8228 58.8427 47.1483 58.88 46.7666C58.9005 46.6383 59.021 45.7514 58.4912 45.4778C57.7687 45.1047 57.1088 46.0174 57.0428 46.1123C57.0032 46.161 56.6062 46.6372 56.1937 46.7357C55.8498 46.8182 55.3454 46.5342 55.1804 46.418L55.1576 46.4044C55.1061 46.3785 53.8902 45.7809 53.4344 46.4724C53.1393 46.92 53.5782 47.721 53.7832 48.0485C52.1176 46.9335 50.5746 45.8063 49.1939 44.7236C45.1544 41.5558 42.2469 38.6687 38.7073 34.9994C37.8485 34.1092 36.9424 33.2758 35.9965 32.5052C36.1561 32.4189 36.2837 32.2892 36.2909 32.0941C36.3035 31.7527 36.0385 31.5225 35.5452 31.2171C35.5041 31.1917 35.4676 31.1695 35.4348 31.1494C35.2144 31.0148 35.1963 31.0037 35.0935 30.8484C35.0253 30.7453 35.0365 30.3619 35.0899 30.0661C35.1128 29.9712 35.2422 29.3674 34.8777 29.1394C34.4727 28.8863 34.025 29.2363 33.8204 29.4874C33.7368 29.575 33.487 29.795 33.2691 29.8284C33.063 29.8598 32.7615 29.6541 32.6721 29.5796L32.6505 29.5641C32.5675 29.5137 31.8496 29.096 31.477 29.4905C27.5306 27.393 23.1473 26.363 18.6517 26.8318C18.2854 26.8051 15.1632 26.5289 14.1366 25.7103C13.2128 24.9736 12.5772 24.0116 12.4779 23.1995C12.303 21.7706 13.0149 20.5961 14.2929 20.2002C14.4738 20.6191 14.7727 20.8499 15.1165 20.8337C15.4174 20.8197 15.6892 20.6119 15.7775 20.3282C15.8737 20.0189 15.7356 19.6931 15.3985 19.4346C15.1867 19.2722 14.7234 19.1702 14.1657 19.3087C13.6725 19.431 12.7515 19.8389 12.1251 21.1949C11.249 23.0918 12.3481 25.5788 13.9337 26.745C12.8519 26.952 10.8248 26.7601 9.85927 25.8572C9.04254 25.0936 8.60924 23.7396 8.9676 23.0711C9.13671 22.7556 9.46126 22.6435 9.90738 22.7467C9.89329 23.104 10.0629 23.2579 10.1667 23.3183C10.3312 23.4139 10.5515 23.4058 10.7149 23.2979C10.8705 23.1951 10.9467 23.0233 10.9231 22.8232C10.7526 22.1284 10.3523 21.7906 9.69911 21.7906C9.6977 21.7906 9.69629 21.7906 9.69488 21.7906C9.23334 21.7918 8.76511 22.0502 8.44239 22.482C8.05001 23.007 7.93873 23.7054 8.13672 24.3959C8.37055 25.5378 8.8073 26.1009 9.4826 26.6876C9.8111 26.9733 10.0553 27.1117 10.3662 27.254C10.4199 27.2786 10.4889 27.3053 10.5499 27.3288L10.616 27.3545L11.7414 27.7007C12.3569 27.8191 13.5427 28.0211 13.4983 28.0375C10.2052 29.2495 7.23216 31.4005 5.26436 34.0633C5.16899 33.7473 4.99087 33.4474 4.65702 33.4168C4.18252 33.3728 3.84431 33.7293 3.3491 34.4464C3.30726 34.507 3.2705 34.5609 3.23753 34.6092C3.01398 34.9371 2.98525 34.9792 2.72338 35.1342C2.50229 35.2652 1.83713 35.1737 1.46575 35.0847C1.342 35.0467 0.483784 34.8061 0.141977 35.2962C-0.324283 35.9648 0.486108 36.7456 0.570697 36.8241C0.613238 36.8702 1.02886 37.3301 1.06992 37.7541C1.10415 38.108 0.755792 38.571 0.618802 38.7194L0.60225 38.7402C0.569851 38.7879 -0.184898 39.9168 0.434974 40.4647C0.917645 40.8912 2.04914 40.3302 2.18098 40.2626C2.18429 40.2607 2.48215 40.1005 2.86009 40.0852C2.64816 42.4984 3.2936 45.0408 5.1025 47.5231C5.68899 48.328 8.5236 51.0889 8.90231 51.3632C9.77003 52.3232 10.1671 53.5951 9.98457 54.5742C9.79694 55.5803 9.06135 56.153 7.91169 56.1891C7.89753 55.8687 7.74969 55.6414 7.50325 55.5635C7.25026 55.4835 6.95388 55.5811 6.7983 55.7953C6.63447 56.0209 6.6625 56.3237 6.87514 56.6261C7.12658 56.9836 7.59995 57.1846 8.16968 57.1846C8.25124 57.1846 8.33477 57.1805 8.41992 57.1721C9.18573 57.0969 10.2476 56.6317 10.72 55.5689C11.022 54.8895 11.148 53.7903 10.2624 52.2368C13.3635 53.9858 16.9476 54.3967 20.4856 52.6974C34.1828 46.1186 21.8695 32.7995 18.2219 36.5799C17.2968 37.8911 19.1607 39.5124 20.4198 37.427C29.4448 41.54 24.783 51.6751 16.7963 52.3813C12.4674 52.7641 8.47113 50.2741 6.04862 46.8378C4.69949 44.9241 4.10434 43.0016 4.08906 41.1591C4.35423 41.4152 4.63012 41.6118 4.90522 41.6118C4.99397 41.6118 5.08278 41.5913 5.17096 41.5458C5.66138 41.2925 5.66131 40.7023 5.66124 40.1314C5.66117 39.7527 5.66117 39.3612 5.78915 39.0449C5.92057 38.72 6.31224 38.5691 6.72695 38.4094C7.22899 38.216 7.79808 37.9968 7.89894 37.3936C7.99796 36.8016 7.16947 36.5393 6.43846 36.3079C6.18737 36.2283 5.95008 36.1533 5.79809 36.0779C5.73231 36.0453 5.67695 35.995 5.62927 35.934C7.54657 32.8125 11.0273 30.3418 14.7719 29.1931C20.7631 27.3552 26.5683 28.5351 31.5814 31.4761C31.5271 31.5336 31.4696 31.5913 31.421 31.6401C31.0764 31.9857 30.6859 32.3774 30.9027 32.7499C31.1038 33.0951 31.5068 33.0729 31.8967 33.0517C32.1375 33.0386 32.3865 33.0249 32.586 33.0939C32.7775 33.1602 32.8845 33.4006 32.9978 33.6552C33.1483 33.9931 33.3187 34.3761 33.7494 34.4249C33.7666 34.4268 33.7833 34.4278 33.7996 34.4278C34.1914 34.4278 34.3417 33.8814 34.4596 33.4206C35.7088 34.3796 36.8938 35.4452 38.0012 36.5964C41.0671 39.7832 44.698 43.0818 48.6861 46.1121C46.2421 45.0541 42.9913 43.9574 39.5983 43.6711L38.1189 43.6955C38.0182 43.704 37.8859 43.712 37.7872 43.7255C37.3597 43.7844 37.0182 43.864 36.5321 44.0834C35.4661 44.5638 34.7665 45.1098 34.1099 46.334C33.089 47.9282 33.8963 49.635 35.0275 49.9787C35.6124 50.1563 36.2925 50.1205 36.8342 49.198C37.164 48.4321 35.8962 47.8896 35.6417 48.9746C33.5808 48.865 34.7223 46.1152 36.6584 45.156C38.1572 44.4131 40.7026 44.907 41.9683 45.6006C39.601 46.4051 37.3851 49.0124 37.7563 51.6006C38.1653 54.4512 40.2718 55.1528 41.0116 54.8725C42.7026 54.2317 41.1899 52.1419 39.9766 53.6291C38.5691 52.6981 38.0872 51.0227 38.8348 49.312C39.6581 47.428 41.6546 45.8308 44.4301 46.085C47.163 46.3681 53.2224 49.414 53.201 49.3149C53.3672 49.4244 53.5343 49.5327 53.7014 49.6409C53.6864 49.6587 53.6717 49.6762 53.6572 49.6933C53.1978 50.2367 52.677 50.8527 53.0124 51.3335C53.3289 51.7872 53.911 51.7067 54.4739 51.6291C54.8472 51.5775 55.2333 51.5243 55.5628 51.6087C55.901 51.6953 56.103 52.0646 56.317 52.4556C56.576 52.929 56.8695 53.4655 57.4781 53.4839C57.4843 53.4841 57.4903 53.4842 57.4965 53.4842C57.9554 53.4841 58.1421 52.9552 58.263 52.3631C64.2026 55.6015 70.507 57.8301 76.6723 58.1189C72.6831 59.2419 74.3549 63.4772 76.0911 63.3432C77.3309 63.2476 76.6623 61.6089 75.7625 62.3266C74.0219 60.1086 76.585 58.1516 79.1478 58.4465C79.0565 58.9014 78.9822 59.3894 79.3432 59.5679C79.4292 59.6105 79.5132 59.6287 79.5956 59.6287C79.8557 59.6287 80.1001 59.4466 80.3381 59.269C80.5317 59.1246 80.7319 58.9753 80.9362 58.9224C81.1321 58.8719 81.3535 59.0128 81.5878 59.1624C81.8988 59.361 82.2515 59.586 82.6372 59.3881C83.0329 59.1853 82.829 58.5936 82.6651 58.1181C82.6094 57.9567 82.5569 57.8041 82.5378 57.6989C82.5367 57.6931 82.537 57.6872 82.5365 57.6813C87.725 56.5894 91.9214 53.5991 94.6258 48.8957ZM6.33323 36.6433C6.83851 36.8033 7.60221 37.045 7.55361 37.3352C7.48585 37.7401 7.07608 37.898 6.60158 38.0808C6.13539 38.2604 5.65342 38.446 5.46474 38.9123C5.31091 39.2924 5.31098 39.7381 5.31105 40.1313C5.31112 40.7202 5.29091 41.0881 5.0108 41.2328C4.73203 41.377 4.27176 40.8609 3.90213 40.4461C3.55434 40.0559 3.27965 39.7477 3.00462 39.7338C2.97553 39.7323 2.94679 39.7316 2.91834 39.7316C2.42095 39.7316 2.03012 39.9442 2.01737 39.9513C1.58788 40.1709 0.884753 40.3937 0.666132 40.2004C0.304252 39.8805 0.823407 39.0442 0.885528 38.9474C0.968356 38.8549 1.47145 38.2683 1.41828 37.7198C1.36341 37.1532 0.842353 36.6004 0.820167 36.5771L0.811222 36.5683C0.80432 36.5621 0.124651 35.9338 0.428635 35.498C0.600137 35.2521 1.1786 35.3639 1.36749 35.4223L1.37848 35.4253C1.49054 35.4525 2.48532 35.6831 2.90101 35.4371C3.22993 35.2424 3.29275 35.1503 3.52624 34.8078C3.55885 34.76 3.59526 34.7067 3.6366 34.6467C4.16639 33.8796 4.39227 33.746 4.6249 33.7669C4.91832 33.7939 5.01975 34.485 5.02348 34.82C5.01932 34.9211 4.9877 36.0686 5.64307 36.3932C5.81936 36.4806 6.06897 36.5596 6.33323 36.6433ZM34.1305 33.2935C34.0696 33.5322 33.9255 34.0938 33.7886 34.0751C33.5724 34.0507 33.4664 33.8459 33.3176 33.5115C33.1852 33.2141 33.0352 32.8772 32.7001 32.7612C32.5361 32.7044 32.3598 32.6892 32.1871 32.6892C32.0814 32.6892 31.9771 32.6949 31.8778 32.7003C31.5173 32.7201 31.292 32.7213 31.2052 32.5722C31.1249 32.4343 31.4652 32.0929 31.6685 31.8889C31.9203 31.6365 32.119 31.437 32.1182 31.2305C32.1167 30.859 31.938 30.5667 31.9332 30.5592C31.7627 30.2632 31.6324 29.8572 31.7181 29.7478C31.851 29.5784 32.2677 29.7463 32.4593 29.8592C32.543 29.9272 32.9458 30.2337 33.322 30.1763C33.7029 30.1179 34.0424 29.7641 34.0799 29.724L34.0882 29.7143C34.0918 29.71 34.4493 29.2859 34.6928 29.4382C34.8059 29.5089 34.7931 29.8073 34.7489 29.9863L34.7465 29.9974C34.7234 30.1232 34.6178 30.7648 34.8021 31.0432C34.948 31.2638 35.0188 31.3069 35.253 31.4501C35.2853 31.4698 35.3212 31.4917 35.3617 31.5167C35.8525 31.8206 35.9458 31.9538 35.9412 32.0812C35.9366 32.2058 35.5821 32.3052 35.3276 32.3223C35.2181 32.3236 34.4726 32.3502 34.2719 32.8224C34.2193 32.9455 34.1761 33.1145 34.1305 33.2935ZM57.4886 53.1321C57.0801 53.1198 56.8687 52.7334 56.624 52.286C56.3834 51.8465 56.1348 51.3919 55.6493 51.2676C55.4934 51.2277 55.3309 51.2129 55.1673 51.2129C54.9154 51.2129 54.6613 51.248 54.4263 51.2805C53.8456 51.3607 53.4799 51.3906 53.2993 51.1315C53.1191 50.8733 53.5656 50.3453 53.9243 49.9211C54.2618 49.5218 54.5284 49.2065 54.5047 48.9309C54.4583 48.392 54.165 47.9903 54.1557 47.9778C53.9394 47.6658 53.5498 46.9348 53.7264 46.667C53.9925 46.2633 54.888 46.6662 54.9918 46.7149C55.0943 46.7847 55.7409 47.2057 56.2747 47.0781C56.826 46.9465 57.3003 46.3526 57.3202 46.3274L57.3276 46.3173C57.3329 46.3096 57.86 45.5475 58.3312 45.7909C58.597 45.9282 58.5655 46.5191 58.5336 46.7151L58.5321 46.7265C58.5205 46.8417 58.4283 47.8632 58.7275 48.2435C58.9643 48.5445 59.0636 48.5944 59.4332 48.7803C59.4848 48.8063 59.5423 48.8352 59.607 48.8682C60.4356 49.2913 60.5984 49.4983 60.609 49.7322C60.6223 50.0278 59.9547 50.2228 59.6248 50.2721C59.5246 50.2817 58.3887 50.4062 58.1576 51.1028C58.0955 51.29 58.0515 51.5492 58.005 51.8236C57.9159 52.3481 57.7823 53.1433 57.4886 53.1321ZM82.478 59.0747C82.284 59.1739 82.0833 59.0619 81.7756 58.8654C81.5019 58.6907 81.192 58.4927 80.8487 58.5816C80.5782 58.6517 80.3397 58.8295 80.1294 58.9864C79.8394 59.2027 79.6523 59.3288 79.4979 59.2522C79.3552 59.1816 79.4517 58.7083 79.5094 58.4254C79.5808 58.0755 79.6372 57.7989 79.5231 57.6271C79.3179 57.3181 79.0084 57.1732 79.0003 57.1695C78.6955 57.0172 78.364 56.7507 78.3755 56.6119C78.3932 56.397 78.8331 56.3063 79.0549 56.2942C79.1621 56.3046 79.6665 56.3373 79.9486 56.0807C80.2344 55.821 80.3233 55.3378 80.3325 55.2835L80.3342 55.2708C80.3348 55.2652 80.4004 54.7134 80.687 54.7055C80.688 54.7055 80.6889 54.7055 80.6898 54.7055C80.8223 54.7055 80.9736 54.9591 81.0346 55.1316L81.0387 55.1422C81.0886 55.2599 81.3526 55.8537 81.6592 55.9839C81.9019 56.0869 81.9845 56.0838 82.2584 56.0735C82.2962 56.072 82.3383 56.0703 82.3859 56.0689C82.9622 56.0505 83.1131 56.1098 83.1791 56.2187C83.2437 56.3252 83.0025 56.6044 82.7996 56.7598C82.709 56.8215 82.1017 57.2567 82.1934 57.7619C82.2173 57.8935 82.2741 58.0585 82.3342 58.2331C82.4144 58.4659 82.6022 59.011 82.478 59.0747Z" fill="#7A5145"/>
<path fill-rule="evenodd" clip-rule="evenodd" d="M144.59 28.5604C146.292 29.4835 147.592 30.838 149.089 30.0994C149.662 29.8164 151.553 28.3343 152.122 27.4245C149.149 26.6834 146.637 25.6465 144.567 28.0369L148.433 28.7844C146.217 29.3241 146.24 28.4354 144.59 28.5604Z" fill="#7A5145"/>
<path fill-rule="evenodd" clip-rule="evenodd" d="M143.828 26.5964L145.435 25.6592C146.422 24.8192 146.972 22.4507 144.826 20.9165C143.083 23.2741 141.589 23.9933 143.828 26.5964Z" fill="#7A5145"/>
<path fill-rule="evenodd" clip-rule="evenodd" d="M146.923 25.2109C149.417 26.2008 149.723 25.0487 149.902 22.9624C147.434 21.7913 146.54 22.5395 146.923 25.2109Z" fill="#7A5145"/>
<path fill-rule="evenodd" clip-rule="evenodd" d="M108.21 47.2163C110.212 48.0542 112.341 48.6177 114.525 48.9252C114.587 48.9684 115.663 49.104 116.127 49.1046C124.021 49.763 132.399 47.2001 137.967 42.2562C138.078 42.6074 138.236 42.9195 138.532 42.9196C138.548 42.9196 138.565 42.9187 138.582 42.9167C139.013 42.8679 139.183 42.4849 139.334 42.147C139.447 41.8924 139.554 41.652 139.745 41.5857C139.945 41.5166 140.194 41.5304 140.435 41.5435C140.825 41.5648 141.228 41.587 141.429 41.2417C141.646 40.8691 141.255 40.4775 140.91 40.1318C140.777 39.9977 140.575 39.7952 140.563 39.7205C140.564 39.6257 140.581 39.5368 140.603 39.4613C140.725 39.3057 140.845 39.149 140.962 38.9899C145.731 32.4888 145.124 25.9013 137.886 23.1698C126.812 18.9904 122.816 35.1969 132.153 35.2618C135.455 35.2848 138.452 30.3462 136.169 29.5369C135.098 29.3951 134.727 30.7256 136.062 30.8117C135.59 35.0932 129.645 35.934 128.41 31.7847C126.624 25.7798 132.833 22.2603 137.817 24.6323C144.506 27.8156 143.961 33.2008 140.599 37.8342C140.221 37.7397 139.747 38.0157 139.681 38.0561L139.659 38.0716C139.57 38.146 139.268 38.352 139.062 38.3203C138.843 38.2867 138.594 38.0669 138.511 37.9794C138.307 37.7283 137.859 37.3779 137.454 37.6313C137.089 37.8593 137.219 38.463 137.242 38.558C137.295 38.8538 137.306 39.2371 137.238 39.3402C137.135 39.4957 137.117 39.5067 136.896 39.6414C136.864 39.6614 136.827 39.6837 136.786 39.709C136.293 40.0143 136.028 40.2445 136.04 40.5859C136.059 41.0935 136.892 41.1596 136.987 41.1654L136.996 41.1657C137.092 41.1666 137.299 41.1869 137.474 41.2506C132.981 45.2792 127.162 47.7793 121.169 48.4056C126.615 46.7613 129.329 42.4297 125.822 37.7041C124.109 35.3952 121.682 36.3984 121.261 37.0706C120.298 38.6071 122.76 39.3553 122.833 37.4339C124.515 37.3223 125.906 38.3654 126.338 40.1827C126.814 42.1838 126.666 44.3483 124.041 46.0027C121.729 47.1761 119.943 47.6973 118.082 47.9393C118.145 47.9232 118.208 47.9069 118.271 47.8897C118.603 47.7992 118.865 47.7012 119.227 47.4776C120.022 46.9881 120.519 46.4842 120.914 45.4485C121.559 44.0826 120.747 42.8156 119.817 42.66C119.336 42.5797 118.802 42.678 118.467 43.4634C118.284 44.1031 119.342 44.4018 119.433 43.5174C121.074 43.3921 120.452 45.6844 119.018 46.6423C117.908 47.3839 115.845 47.255 114.773 46.8366C116.563 45.9568 118.05 43.6667 117.493 41.6577C116.879 39.4451 115.142 39.1068 114.585 39.4046C113.313 40.0853 114.722 41.5827 115.53 40.2816C116.738 40.8732 117.29 42.1489 116.873 43.5788C116.279 45.6172 114.211 46.7066 111.925 46.7086C110.747 46.7097 109.456 46.5252 108.277 46.2459C108.297 46.4122 108.324 46.9568 108.21 47.2163ZM138.201 41.7854C138.155 41.6064 138.112 41.4374 138.06 41.3143C137.859 40.8421 137.114 40.8155 137.004 40.8141C136.75 40.797 136.395 40.6977 136.39 40.5731C136.386 40.4457 136.479 40.3124 136.97 40.0087C137.01 39.9837 137.046 39.9618 137.078 39.9422C137.313 39.799 137.384 39.7558 137.53 39.5352C137.714 39.2568 137.608 38.6153 137.585 38.4895L137.583 38.4784C137.539 38.2993 137.526 38.0009 137.639 37.9302C137.884 37.777 138.24 38.2023 138.244 38.2066L138.252 38.216C138.289 38.2562 138.629 38.61 139.01 38.6683C139.386 38.7259 139.789 38.4193 139.872 38.3513C140.064 38.2385 140.481 38.0705 140.614 38.2399C140.699 38.3493 140.569 38.7553 140.398 39.0512C140.394 39.0587 140.215 39.3512 140.213 39.7225C140.213 39.9291 140.411 40.1285 140.663 40.381C140.866 40.5849 141.207 40.9264 141.126 41.0642C141.04 41.2134 140.814 41.2122 140.454 41.1924C140.355 41.187 140.25 41.1812 140.145 41.1812C139.972 41.1812 139.795 41.1965 139.632 41.2533C139.296 41.3692 139.146 41.7062 139.014 42.0035C138.865 42.3379 138.759 42.5428 138.543 42.5672C138.407 42.5845 138.262 42.024 138.201 41.7854Z" fill="#7A5145"/>
<path fill-rule="evenodd" clip-rule="evenodd" d="M147.112 45.1227C147.164 42.5562 148.091 41.1091 149.627 40.3874C151.137 42.4997 150.019 46.4258 147.112 45.1227Z" fill="#7A5145"/>
<path fill-rule="evenodd" clip-rule="evenodd" d="M146.29 45.2625C143.48 45.8297 143.873 44.7962 143.747 42.4988C145.172 42.5462 146.895 42.9742 146.29 45.2625Z" fill="#7A5145"/>
<path fill-rule="evenodd" clip-rule="evenodd" d="M183.92 59.3512C185.79 58.8493 187.66 58.9393 188.245 57.3705C188.469 56.7694 188.833 54.3874 188.625 53.3338C185.956 54.8436 183.42 55.8202 183.546 58.9863L186.87 56.8657C185.626 58.7857 185.036 58.1228 183.92 59.3512Z" fill="#7A5145"/>
<path fill-rule="evenodd" clip-rule="evenodd" d="M189.057 50.29L188.11 48.6836C187.265 47.699 184.903 47.1678 183.395 49.3377C185.757 51.0674 186.486 52.5616 189.057 50.29Z" fill="#7A5145"/>
<path fill-rule="evenodd" clip-rule="evenodd" d="M122.755 51.5942C121.787 52.0712 120.754 52.2246 120.603 53.1459C120.545 53.4989 120.601 54.8411 120.828 55.3948C122.126 54.2799 123.407 53.4712 122.999 51.7533L121.409 53.2731C121.883 52.0882 122.277 52.3869 122.755 51.5942Z" fill="#7A5145"/>
<path fill-rule="evenodd" clip-rule="evenodd" d="M121.566 55.55L122.415 56.1475C123.069 56.4528 124.39 56.1777 124.66 54.7276C123.065 54.3937 122.353 53.8029 121.566 55.55Z" fill="#7A5145"/>
<path d="M117.462 57.6812C117.461 57.6871 117.461 57.693 117.46 57.6988C117.441 57.8039 117.389 57.9565 117.333 58.118C117.169 58.5935 116.965 59.1851 117.361 59.388C117.747 59.5859 118.099 59.3608 118.41 59.1623C118.645 59.0127 118.866 58.8718 119.062 58.9222C119.266 58.9752 119.466 59.1245 119.66 59.2689C119.898 59.4464 120.142 59.6286 120.403 59.6286C120.485 59.6286 120.569 59.6102 120.655 59.5678C121.016 59.3892 120.942 58.9013 120.85 58.4464C123.413 58.1515 125.976 60.1084 124.236 62.3265C123.336 61.6087 122.667 63.2474 123.907 63.3431C125.643 63.477 127.315 59.2418 123.326 58.1188C129.491 57.83 135.795 55.6014 141.735 52.363C141.856 52.955 142.043 53.484 142.502 53.4841C142.508 53.4841 142.514 53.4839 142.52 53.4838C143.129 53.4654 143.422 52.9288 143.681 52.4555C143.895 52.0645 144.097 51.6951 144.435 51.6085C144.765 51.5241 145.151 51.5775 145.524 51.629C146.087 51.7067 146.669 51.7871 146.986 51.3333C147.321 50.8525 146.8 50.2366 146.341 49.6931C146.326 49.6761 146.312 49.6585 146.297 49.6408C146.464 49.5326 146.631 49.4243 146.797 49.3147C146.776 49.4138 152.835 46.368 155.568 46.0849C158.343 45.8307 160.34 47.4279 161.163 49.3118C161.911 51.0226 161.429 52.6979 160.022 53.6289C158.808 52.1418 157.296 54.2315 158.986 54.8723C159.726 55.1527 161.833 54.451 162.242 51.6005C162.613 49.0122 160.397 46.405 158.03 45.6005C159.296 44.9069 161.841 44.413 163.34 45.1558C165.276 46.1151 166.417 48.8649 164.356 48.9745C164.102 47.8894 162.834 48.4318 163.164 49.1978C163.705 50.1203 164.386 50.1561 164.971 49.9786C166.102 49.6348 166.909 47.928 165.888 46.3339C165.232 45.1097 164.532 44.5637 163.466 44.0832C162.98 43.8638 162.639 43.7843 162.211 43.7254C162.112 43.7118 161.98 43.7039 161.879 43.6954L160.4 43.671C157.007 43.9572 153.756 45.054 151.312 46.1119C155.3 43.0817 158.931 39.7831 161.997 36.5962C163.104 35.4451 164.289 34.3795 165.539 33.4205C165.656 33.8813 165.807 34.4277 166.198 34.4277C166.215 34.4277 166.232 34.4268 166.249 34.4248C166.679 34.376 166.85 33.993 167 33.6551C167.114 33.4005 167.221 33.1601 167.412 33.0938C167.612 33.0247 167.861 33.0385 168.101 33.0516C168.491 33.0728 168.894 33.095 169.095 32.7498C169.312 32.3773 168.922 31.9856 168.577 31.64C168.529 31.5912 168.471 31.5334 168.417 31.476C173.43 28.535 179.235 27.3551 185.226 29.193C188.971 30.3417 192.451 32.8124 194.369 35.9339C194.321 35.9949 194.266 36.0452 194.2 36.0778C194.048 36.1531 193.811 36.2282 193.56 36.3078C192.829 36.5391 192 36.8014 192.099 37.3935C192.2 37.9966 192.769 38.2159 193.271 38.4093C193.686 38.569 194.077 38.7199 194.209 39.0447C194.337 39.3612 194.337 39.7526 194.337 40.1313C194.337 40.7021 194.337 41.2924 194.827 41.5457C194.915 41.5912 195.004 41.6117 195.093 41.6117C195.368 41.6117 195.644 41.415 195.909 41.159C195.894 43.0015 195.299 44.9239 193.949 46.8376C191.527 50.274 187.531 52.764 183.202 52.3812C175.215 51.675 170.553 41.5398 179.578 37.4268C180.837 39.5123 182.701 37.891 181.776 36.5798C178.129 32.7994 165.815 46.1185 179.512 52.6972C183.051 54.3966 186.635 53.9856 189.736 52.2367C188.85 53.7902 188.976 54.8894 189.278 55.5687C189.751 56.6316 190.812 57.0967 191.578 57.172C191.663 57.1803 191.747 57.1845 191.828 57.1845C192.398 57.1845 192.872 56.9835 193.123 56.6259C193.336 56.3236 193.364 56.0207 193.2 55.7952C193.044 55.581 192.748 55.4833 192.495 55.5633C192.248 55.6413 192.101 55.8685 192.086 56.1889C190.937 56.1528 190.201 55.5801 190.014 54.5741C189.831 53.595 190.228 52.3231 191.096 51.3631C191.474 51.0887 194.309 48.3278 194.896 47.523C196.705 45.0406 197.35 42.4983 197.138 40.085C197.516 40.1004 197.814 40.2606 197.817 40.2624C197.949 40.3302 199.08 40.8911 199.563 40.4645C200.183 39.9167 199.428 38.7879 199.396 38.7401L199.379 38.7192C199.242 38.5709 198.894 38.1079 198.928 37.7539C198.969 37.33 199.385 36.8701 199.427 36.824C199.512 36.7455 200.322 35.9646 199.856 35.2961C199.514 34.806 198.656 35.0466 198.532 35.0845C198.161 35.1736 197.496 35.265 197.275 35.1341C197.013 34.9791 196.984 34.9369 196.761 34.6091C196.728 34.5607 196.691 34.5069 196.649 34.4463C196.154 33.7292 195.816 33.3728 195.341 33.4167C195.007 33.4474 194.829 33.7472 194.734 34.0632C192.766 31.4004 189.793 29.2494 186.5 28.0374C186.455 28.021 187.641 27.819 188.257 27.7006L189.382 27.3543L189.448 27.3287C189.509 27.3051 189.578 27.2785 189.632 27.2539C189.943 27.1116 190.187 26.9732 190.515 26.6875C191.191 26.1008 191.628 25.5377 191.861 24.3958C192.059 23.7053 191.948 23.0069 191.556 22.4819C191.233 22.0501 190.765 21.7916 190.303 21.7905C190.302 21.7905 190.3 21.7905 190.299 21.7905C189.646 21.7905 189.245 22.1283 189.075 22.8231C189.051 23.0231 189.127 23.195 189.283 23.2978C189.447 23.4057 189.667 23.4138 189.831 23.3182C189.935 23.2578 190.105 23.1039 190.091 22.7465C190.537 22.6434 190.861 22.7555 191.03 23.071C191.389 23.7395 190.956 25.0935 190.139 25.8571C189.173 26.76 187.146 26.9519 186.064 26.7449C187.65 25.5788 188.749 23.0918 187.873 21.1948C187.247 19.8388 186.326 19.4309 185.832 19.3086C185.275 19.1701 184.811 19.2721 184.6 19.4345C184.263 19.6931 184.124 20.0188 184.221 20.3281C184.309 20.6117 184.581 20.8196 184.882 20.8336C185.225 20.8498 185.524 20.619 185.705 20.2001C186.983 20.5959 187.695 21.7704 187.52 23.1994C187.421 24.0114 186.785 24.9735 185.861 25.7102C184.835 26.5288 181.713 26.805 181.346 26.8317C176.851 26.363 172.467 27.3929 168.521 29.4904C168.148 29.0959 167.431 29.5136 167.348 29.564L167.326 29.5795C167.237 29.6539 166.935 29.8597 166.729 29.8283C166.511 29.7949 166.261 29.5748 166.178 29.4872C165.973 29.2361 165.525 28.8861 165.12 29.1393C164.756 29.3673 164.885 29.971 164.908 30.066C164.961 30.3618 164.973 30.7452 164.905 30.8483C164.802 31.0036 164.784 31.0147 164.563 31.1493C164.531 31.1693 164.494 31.1916 164.453 31.217C163.96 31.5224 163.695 31.7526 163.707 32.094C163.714 32.2891 163.842 32.4188 164.002 32.5051C163.056 33.2756 162.149 34.109 161.291 34.9993C157.751 38.6686 154.844 41.5556 150.804 44.7235C149.424 45.8062 147.88 46.9334 146.215 48.0483C146.42 47.7208 146.859 46.9199 146.564 46.4723C146.108 45.7808 144.892 46.3784 144.84 46.4042L144.818 46.4179C144.653 46.5341 144.148 46.818 143.804 46.7356C143.392 46.637 142.995 46.1608 142.955 46.1122C142.889 46.0172 142.229 45.1045 141.507 45.4777C140.977 45.7513 141.098 46.6382 141.118 46.7665C141.155 47.1482 141.155 47.8226 140.996 48.0249C140.807 48.2645 140.762 48.2874 140.408 48.4653C140.356 48.4916 140.298 48.5208 140.233 48.5541C139.458 48.9495 139.061 49.2377 139.039 49.7159C139.008 50.4087 140.192 50.6008 140.327 50.6204L140.337 50.6216C140.568 50.6426 141.123 50.753 141.386 51.0224C135.246 54.4804 128.157 57.2377 121.55 57.2392C121.772 57.0722 121.993 56.8392 121.972 56.5826C121.923 55.9982 121.045 55.946 120.945 55.9419L120.932 55.9414L120.919 55.9429C120.804 55.9556 120.439 55.96 120.284 55.8197C120.121 55.6711 120.033 55.3492 120.012 55.2297C119.979 54.907 119.798 54.3669 119.321 54.3537C118.893 54.3401 118.668 54.9173 118.635 55.0092C118.517 55.2855 118.316 55.6116 118.203 55.6597C118.032 55.7323 118.011 55.7316 117.753 55.7218C117.715 55.7203 117.672 55.7187 117.624 55.7172C117.045 55.6982 116.697 55.7438 116.52 56.0355C116.391 56.2481 116.484 56.4804 116.62 56.6689C114.529 56.1567 112.532 55.2812 110.683 53.9631C108.736 52.5757 107.234 50.904 105.985 49.0138C105.832 49.0586 105.646 49.1347 105.555 49.2063C108.264 53.731 112.388 56.6136 117.462 57.6812ZM194.355 36.3933C195.01 36.0686 194.979 34.9212 194.974 34.8201C194.978 34.4851 195.08 33.794 195.373 33.767C195.606 33.7461 195.832 33.8796 196.361 34.6468C196.403 34.7068 196.439 34.7601 196.472 34.8079C196.705 35.1504 196.768 35.2425 197.097 35.4372C197.513 35.6832 198.507 35.4525 198.619 35.4254L198.63 35.4223C198.819 35.364 199.398 35.2522 199.569 35.4981C199.873 35.9339 199.194 36.5621 199.187 36.5684L199.178 36.5772C199.156 36.6005 198.634 37.1533 198.58 37.7199C198.527 38.2683 199.03 38.855 199.112 38.9474C199.175 39.0442 199.694 39.8806 199.332 40.2005C199.113 40.3938 198.41 40.1711 197.981 39.9514C197.968 39.9442 197.577 39.7317 197.08 39.7317C197.051 39.7317 197.022 39.7324 196.993 39.7339C196.718 39.7477 196.444 40.056 196.096 40.4462C195.726 40.8609 195.266 41.377 194.987 41.2329C194.707 41.0883 194.687 40.7203 194.687 40.1314C194.687 39.7382 194.687 39.2925 194.533 38.9124C194.344 38.4461 193.863 38.2604 193.396 38.0809C192.922 37.8981 192.512 37.7402 192.444 37.3353C192.396 37.0451 193.159 36.8034 193.665 36.6434C193.929 36.5596 194.179 36.4806 194.355 36.3933ZM165.727 32.8223C165.526 32.3501 164.78 32.3235 164.671 32.3222C164.416 32.305 164.062 32.2057 164.057 32.0811C164.053 31.9537 164.146 31.8205 164.637 31.5166C164.677 31.4916 164.713 31.4696 164.745 31.45C164.98 31.3068 165.05 31.2637 165.196 31.0431C165.381 30.7647 165.275 30.1231 165.252 29.9973L165.249 29.9862C165.205 29.8071 165.192 29.5088 165.306 29.4381C165.549 29.2859 165.907 29.7099 165.91 29.7142L165.919 29.7239C165.956 29.764 166.295 30.1178 166.676 30.1762C167.053 30.2335 167.455 29.9271 167.539 29.8591C167.731 29.7463 168.147 29.5783 168.28 29.7476C168.366 29.857 168.236 30.2631 168.065 30.559C168.06 30.5665 167.882 30.8588 167.88 31.2303C167.879 31.4369 168.078 31.6364 168.33 31.8888C168.533 32.0928 168.873 32.4342 168.793 32.5721C168.706 32.7212 168.481 32.72 168.121 32.7002C168.021 32.6948 167.917 32.689 167.811 32.689C167.639 32.689 167.462 32.7043 167.298 32.7611C166.963 32.8771 166.813 33.214 166.681 33.5113C166.532 33.8458 166.426 34.0506 166.21 34.075C166.073 34.0937 165.929 33.532 165.868 33.2934C165.822 33.1145 165.779 32.9454 165.727 32.8223ZM141.993 51.8234C141.947 51.5489 141.903 51.2897 141.841 51.1025C141.61 50.406 140.474 50.2814 140.373 50.2718C140.044 50.2226 139.376 50.0275 139.389 49.7319C139.4 49.4979 139.563 49.2909 140.391 48.8679C140.456 48.835 140.513 48.806 140.565 48.7801C140.935 48.5942 141.034 48.5442 141.271 48.2432C141.57 47.8629 141.478 46.8414 141.466 46.7262L141.465 46.7149C141.433 46.5189 141.401 45.9279 141.667 45.7907C142.138 45.5473 142.665 46.3093 142.671 46.3171L142.678 46.3272C142.698 46.3524 143.172 46.9463 143.724 47.0779C144.257 47.2054 144.904 46.7844 145.006 46.7146C145.11 46.666 146.006 46.263 146.272 46.6667C146.448 46.9345 146.059 47.6655 145.843 47.9776C145.833 47.99 145.54 48.3917 145.494 48.9306C145.47 49.2062 145.737 49.5215 146.074 49.9208C146.433 50.345 146.879 50.8731 146.699 51.1313C146.518 51.3903 146.153 51.3604 145.572 51.2802C145.337 51.2477 145.083 51.2126 144.831 51.2126C144.667 51.2126 144.505 51.2274 144.349 51.2673C143.863 51.3916 143.615 51.8462 143.374 52.2858C143.13 52.7331 142.918 53.1195 142.51 53.1318C142.216 53.1432 142.082 52.348 141.993 51.8234ZM117.664 58.2331C117.724 58.0585 117.781 57.8935 117.805 57.7619C117.896 57.2567 117.289 56.8215 117.199 56.7598C116.996 56.6045 116.755 56.3252 116.819 56.2187C116.885 56.1098 117.036 56.0505 117.612 56.0689C117.66 56.0703 117.702 56.072 117.74 56.0735C118.014 56.0838 118.096 56.0869 118.339 55.9839C118.646 55.8537 118.91 55.26 118.96 55.1422L118.964 55.1316C119.025 54.9591 119.176 54.7055 119.308 54.7055C119.309 54.7055 119.31 54.7055 119.311 54.7055C119.598 54.7134 119.663 55.2652 119.664 55.2708L119.666 55.2835C119.675 55.3378 119.764 55.821 120.05 56.0807C120.332 56.3373 120.836 56.3046 120.943 56.2942C121.165 56.3063 121.605 56.397 121.623 56.6119C121.634 56.7507 121.303 57.0172 120.998 57.1695C120.99 57.1732 120.68 57.3181 120.475 57.6271C120.361 57.7989 120.417 58.0755 120.489 58.4254C120.546 58.7083 120.643 59.1816 120.5 59.2522C120.346 59.3287 120.159 59.2027 119.869 58.9864C119.658 58.8295 119.42 58.6518 119.15 58.5816C118.806 58.4927 118.496 58.6907 118.223 58.8653C117.915 59.0618 117.714 59.1739 117.52 59.0747C117.396 59.0109 117.584 58.4658 117.664 58.2331Z" fill="#7A5145"/>
<path d="M100.864 50.1155C98.6666 50.1155 95.9374 49.7174 92.7803 48.4691L92.6246 48.4075L92.6143 48.2396C91.6477 32.3557 85.0317 26.5577 79.7156 21.8988C79.4822 21.6943 79.2517 21.4923 79.0246 21.292L78.3003 20.6531L79.2471 20.8345C85.4717 22.0275 89.3171 23.4978 94.3093 26.6142L100.654 7.71281L107.124 26.4394C109.341 24.5989 111.519 22.8418 113.737 21.454C116.322 19.836 118.658 18.8952 121.089 18.4935L121.885 18.3619L121.318 18.939C116.294 24.0593 112.652 29.9703 110.493 36.5079C108.58 42.3035 108.483 46.7252 108.499 47.9424L108.5 48.0796L108.389 48.1599C108.33 48.2031 106.895 49.2259 104.242 49.7792C103.325 49.9703 102.192 50.1155 100.864 50.1155ZM93.1281 48.0389C97.997 49.9289 101.796 49.7503 104.135 49.2624C106.275 48.8164 107.597 48.0454 107.972 47.8052C107.966 46.3905 108.124 42.0073 109.995 36.3417C112.095 29.9809 115.582 24.2074 120.364 19.1692C115.753 20.1745 111.948 23.1106 107.167 27.0881L106.875 27.3307L100.661 9.34297L94.5944 27.4165L94.3122 27.2384C89.5077 24.2061 85.8195 22.7137 80.1088 21.5431C82.755 23.8624 85.7464 26.4953 88.2188 30.5593C91.0717 35.2487 92.6781 40.9679 93.1281 48.0389Z" fill="#7A5145"/>
<path d="M74.6482 22.4272C74.2841 22.4272 73.9145 22.3704 73.5506 22.251C71.6738 21.6353 70.651 19.5821 71.2708 17.6743C71.8913 15.7662 73.923 14.715 75.8001 15.3309C77.677 15.9468 78.6998 17.9999 78.0799 19.9076C77.5798 21.4458 76.1623 22.4272 74.6482 22.4272ZM74.7021 15.6823C73.409 15.6823 72.1978 16.522 71.77 17.838C71.24 19.4693 72.1119 21.2241 73.7137 21.7496C75.3156 22.275 77.0503 21.3753 77.5808 19.7438C78.1108 18.1125 77.2389 16.3577 75.6371 15.8322C75.3273 15.7307 75.0122 15.6823 74.7021 15.6823Z" fill="#7A5145"/>
<path d="M74.059 18.6948C74.0488 18.6948 74.0388 18.6946 74.0286 18.6944C73.4519 18.6763 72.9984 18.1649 73.0173 17.5544C73.0262 17.259 73.1432 16.9845 73.3466 16.7816C73.5504 16.5782 73.8163 16.4719 74.0961 16.4796C74.3758 16.4881 74.635 16.6116 74.8262 16.8273C75.0168 17.0424 75.1169 17.3236 75.1079 17.619C75.0892 18.2186 74.6216 18.6947 74.059 18.6948ZM74.0645 16.5495C73.8152 16.5495 73.5788 16.649 73.3959 16.8315C73.2053 17.0217 73.0958 17.2792 73.0874 17.5565C73.0696 18.1281 73.4928 18.607 74.0308 18.6239C74.5682 18.639 75.02 18.1884 75.0378 17.6168C75.0462 17.3395 74.9525 17.0757 74.7738 16.8741C74.5956 16.673 74.3541 16.5579 74.0939 16.5499C74.0841 16.5497 74.0743 16.5495 74.0645 16.5495Z" fill="#7A5145"/>
<path d="M100.679 7.27279C100.315 7.27279 99.9454 7.21604 99.5815 7.09667C97.7045 6.48085 96.6818 4.42776 97.3018 2.51994C97.9221 0.611831 99.9541 -0.439304 101.831 0.176588C102.741 0.475052 103.479 1.11592 103.909 1.98117C104.339 2.84543 104.411 3.82998 104.111 4.75332C103.611 6.29143 102.193 7.27279 100.679 7.27279ZM100.733 0.52791C99.4398 0.52791 98.2287 1.36769 97.8009 2.6836C97.2708 4.3149 98.1427 6.06967 99.7446 6.5952C100.054 6.69688 100.369 6.74521 100.68 6.74521C101.973 6.74528 103.184 5.90543 103.612 4.58951C103.869 3.79892 103.808 2.95638 103.44 2.21701C103.072 1.47885 102.443 0.932231 101.668 0.67792C101.358 0.57631 101.043 0.52791 100.733 0.52791Z" fill="#7A5145"/>
<path d="M100.75 3.27556C100.74 3.27556 100.73 3.27542 100.719 3.27514C100.143 3.25709 99.6891 2.74593 99.7076 2.1357C99.7266 1.52461 100.214 1.04274 100.787 1.06036C101.056 1.06857 101.308 1.18426 101.497 1.38621C101.701 1.60401 101.808 1.89292 101.798 2.1998C101.78 2.79942 101.313 3.27556 100.75 3.27556ZM100.756 1.13034C100.231 1.13034 99.7951 1.57606 99.7777 2.13789C99.7603 2.70927 100.184 3.18789 100.722 3.20473C100.731 3.20502 100.74 3.20516 100.75 3.20516C101.275 3.20516 101.711 2.75923 101.728 2.19768C101.737 1.90962 101.637 1.63861 101.446 1.43454C101.27 1.24625 101.035 1.13841 100.785 1.13084H100.785C100.775 1.13048 100.765 1.13034 100.756 1.13034Z" fill="#7A5145"/>
<path d="M125.302 19.9363C124.932 19.9363 124.56 19.8774 124.199 19.7588C123.289 19.4603 122.551 18.8194 122.12 17.9538C121.69 17.0894 121.619 16.1048 121.919 15.1815C122.219 14.2581 122.855 13.5058 123.71 13.0631C124.566 12.6199 125.538 12.5401 126.448 12.8387C127.357 13.1371 128.096 13.7779 128.526 14.6433C128.956 15.5075 129.028 16.492 128.727 17.4154C128.427 18.3388 127.791 19.0912 126.937 19.534C126.421 19.8011 125.863 19.9363 125.302 19.9363ZM125.344 13.1889C124.866 13.1889 124.39 13.3041 123.95 13.532C123.219 13.9106 122.675 14.5546 122.418 15.3451C122.161 16.1358 122.222 16.9785 122.59 17.718C122.957 18.4564 123.586 19.0031 124.362 19.2574C125.137 19.5116 125.966 19.4435 126.696 19.0652C127.427 18.6863 127.971 18.0423 128.228 17.2517C128.485 16.461 128.424 15.6185 128.056 14.8792C127.689 14.141 127.06 13.5945 126.285 13.3402H126.285C125.976 13.239 125.66 13.1889 125.344 13.1889Z" fill="#7A5145"/>
<path d="M124.966 16.212C124.956 16.212 124.946 16.2119 124.936 16.2116C124.36 16.1935 123.906 15.6822 123.925 15.0717C123.934 14.7762 124.05 14.5018 124.254 14.2988C124.458 14.0954 124.725 13.9885 125.004 13.9969C125.283 14.0054 125.542 14.1289 125.733 14.3446C125.924 14.5597 126.024 14.8409 126.015 15.1363C125.997 15.7359 125.529 16.212 124.966 16.212ZM124.972 14.0668C124.723 14.0668 124.486 14.1663 124.303 14.3488C124.113 14.539 124.003 14.7965 123.995 15.0738C123.977 15.6455 124.401 16.1243 124.938 16.1412C125.478 16.1575 125.928 15.7057 125.945 15.1341C125.953 14.8568 125.86 14.593 125.681 14.3914C125.503 14.1903 125.262 14.0752 125.002 14.0673H125.002C124.992 14.067 124.982 14.0668 124.972 14.0668Z" fill="#7A5145"/>
<path fill-rule="evenodd" clip-rule="evenodd" d="M94.3607 38.7487C95.0927 41.0255 95.4462 44.722 96.0224 45.6305C99.1725 47.1205 102.57 46.998 105.085 45.8229C105.743 44.5024 106.15 41.5967 107.084 39.0352C106.274 42.5052 105.814 46.0322 105.385 46.3639C104.444 47.0912 101.839 47.2339 100.484 47.2145C99.3339 47.1984 96.1153 46.8247 95.52 46.0779C95.0772 45.5226 94.8077 41.6591 94.3607 38.7487Z" fill="#7A5145"/>
<path fill-rule="evenodd" clip-rule="evenodd" d="M98.5922 35.523C98.552 36.846 98.6929 38.0948 98.9888 39.0395C99.2811 39.9724 99.6868 40.4937 100.131 40.5073C100.137 40.5074 100.143 40.5076 100.149 40.5076C101.074 40.5076 101.889 38.3292 101.971 35.6274C102.054 32.908 101.364 30.6721 100.432 30.6431C100.426 30.6429 100.42 30.6428 100.414 30.6428C99.4901 30.6428 98.6748 32.8211 98.5922 35.523ZM100.365 31.0506C100.841 31.1491 100.999 32.3396 100.718 33.7102C100.437 35.0802 99.8234 36.1114 99.3479 36.0129C98.8719 35.9144 98.7137 34.7238 98.9947 33.3537C99.2756 31.9832 99.8892 30.9521 100.365 31.0506Z" fill="#7A5145"/>
<path fill-rule="evenodd" clip-rule="evenodd" d="M89.9384 27.5354C92.4614 28.7164 93.9845 29.0945 95.1774 28.4247C99.138 26.2009 98.7594 16.1131 100.83 15.0982C102.337 15.4459 104.024 26.6577 106.43 28.7058C107.116 29.092 109.701 26.4729 110.622 26.0175C104.516 34.2582 104.66 24.4847 100.722 16.3633C99.2728 19.8512 98.3332 28.0749 95.4669 29.0857C94.5607 29.4049 92.5503 29.2321 89.9384 27.5354Z" fill="#7A5145"/>
<path d="M138.105 77.366C138.156 77.0791 139.432 77.4135 140.096 77.4373C140.407 76.8778 140.789 75.6055 141.116 75.6547C141.513 75.6835 141.376 76.9087 141.446 77.4239C141.446 77.4239 142.89 75.9519 142.372 74.9662C140.655 71.7032 127.321 71.7729 125.017 77.616C123.663 81.0484 133.42 83.6211 136.525 85.328C159.275 97.8316 99.8427 108.034 112.824 91.5427C118.673 83.8931 132.666 84.1654 125.847 90.3817C123.308 92.7132 120.063 93.159 120.063 93.159C120.308 93.7516 121.001 94.8161 120.796 94.9371C120.691 95.2101 119.593 94.3299 118.992 94.0263C118.376 94.3925 117.338 95.3144 117.145 95.1245C116.88 95.0211 117.488 93.8473 117.659 93.209C117.177 92.8192 116.127 92.2598 116.212 92.0388C116.284 91.7742 117.506 91.7779 118.153 91.6475C118.377 90.994 118.593 89.7427 118.827 89.6867C119.134 89.6292 119.494 90.9251 119.827 91.5442C119.827 91.5442 120.765 91.9444 122.303 91.2113C128.078 87.9776 126.109 85.0418 118.736 88.2636C116.152 89.2345 110.755 94.4305 114.628 96.9771C123.004 102.125 153.61 92.9791 131.558 85.12C128.598 84.0651 119.962 81.9124 121.992 77.3019C123.097 74.792 126.001 72.7415 131.131 71.6688C136.947 70.4527 148.983 71.8759 141.925 77.9875C142.478 78.1293 143.792 78.3493 143.835 78.5446C143.826 78.922 142.57 79.1116 141.83 79.2053C141.921 79.8956 142.312 81.222 142.103 81.2759C141.907 81.3432 141.127 80.2901 140.639 79.7973C139.899 80.1095 138.838 80.787 138.614 80.5621C138.421 80.2686 139.161 79.3141 139.531 78.6036C139.056 78.1913 138.027 77.6322 138.105 77.366Z" fill="#7A5145"/>
<path d="M185.927 91.54C185.991 91.2886 184.875 90.752 184.337 90.4235C184.453 89.7493 184.844 88.6683 184.582 88.5347C184.342 88.417 183.7 89.335 183.131 89.7651C182.614 89.4469 181.652 88.6872 181.402 88.8671C181.107 89.0875 181.859 90.0462 182.087 90.6357C181.6 91.0114 180.529 91.5149 180.625 91.7624C180.667 91.9644 181.574 91.7953 182.048 91.8117C177.795 98.6359 172.538 98.0129 175.752 91.531C176.608 89.8059 178.208 87.158 178.208 87.158C178.548 86.5591 177.322 85.7142 177.062 86.0092C175.815 87.5965 174.082 89.4862 172.655 86.8203C176.67 80.0189 171.272 79.8722 171.277 82.969C171.278 84.1194 171.909 85.4417 171.681 85.902C171.453 86.3624 167.838 94.5846 164.336 96.4765C162.557 97.4381 161.708 95.3284 161.855 93.6766C161.944 92.6892 163.112 90.3983 163.715 88.5438C163.408 87.2562 161.592 88.2511 161.056 88.6983C160.37 90.2883 158.973 93.2616 157.382 94.7184C155.913 96.0624 153.952 96.4585 154.432 94.7286C154.698 93.7712 155.945 91.6298 157.51 89.9593C160.033 87.2662 163.191 85.7986 164.086 87.2356C164.67 87.9423 164.676 86.2413 164.535 85.9168C163.14 82.7039 156.299 87.5624 153.564 92.3568C152.61 94.2797 149.173 98.3252 146.791 97.6734C143.394 96.1745 147.255 89.0079 147.7 87.9769L152.416 87.7078C153.179 87.6313 154.024 86.3262 153.137 86.2023L148.422 86.3421C149.37 84.3442 151.294 81.5741 153.668 78.2608C154.247 77.0028 151.803 76.7104 151.183 77.917L146.228 86.3483L141.976 86.3981C141.237 86.4837 142.025 87.7805 142.627 87.84L145.664 87.7947C144.1 90.7612 141.521 96.8616 145.998 98.7558C149.175 100.099 152.978 94.9865 153.037 94.9577C151.062 99.8658 157.046 99.2277 159.35 94.3536C159.35 94.3536 160.668 99.9855 164.769 97.5254C168.446 95.3202 171.835 88.0757 171.835 88.0757C172.579 89.0953 173.5 89.5766 174.605 89.5208C174.605 89.5208 173.233 92.8579 173.064 94.6395C172.336 102.404 180.031 97.7951 182.999 92.1853C183.306 92.5994 183.649 93.484 183.919 93.4278C184.087 93.3857 184.096 92.2628 184.101 91.646C184.664 91.6558 185.846 91.8046 185.927 91.54Z" fill="#7A5145"/>
<path fill-rule="evenodd" clip-rule="evenodd" d="M45.965 93.6048C46.5194 93.215 47.6061 92.9532 47.584 92.5795C47.484 92.2498 46.2709 92.2138 45.5923 92.103C45.4327 91.4862 45.4401 90.3058 45.1132 90.2525C44.6903 90.2682 44.4031 91.4273 44.048 92.0146C43.3608 91.9364 42.4104 91.6801 42.004 91.923C41.944 92.3283 42.9618 92.8874 43.4493 93.4412C43.2065 94.06 42.4752 95.058 42.7212 95.2976C43.0818 95.4634 43.9781 94.5045 44.6067 94.1079C51.125 97.0965 42.1526 104.192 30.1137 96.2323C32.4143 92.6332 33.6277 89.7433 35.1273 85.8489C40.7341 83.4302 50.2376 76.2011 47.0201 71.4278C44.3625 67.4855 35.0139 79.242 34.022 83.3342C34.6465 83.1167 35.1992 82.8942 35.7885 82.5573C38.8997 74.9909 49.1746 67.9078 43.4354 77.1172C41.14 80.7995 34.4392 85.674 28.9939 85.401C26.9712 85.3811 25.0618 84.9196 25.0311 83.596C24.9329 79.3483 32.6901 78.9487 34.4152 77.4084C35.1752 76.5254 34.4305 75.9093 33.6672 75.8942C33.6537 75.8932 33.6395 75.8929 33.6256 75.8921C33.5058 75.1624 33.4026 74.1092 33.4735 72.8298C33.608 70.4044 34.305 68.0546 35.5453 65.8456L35.7066 65.5583C35.9348 65.7634 36.222 65.8838 36.531 65.8996C36.554 65.9008 36.5769 65.9013 36.5997 65.9013C37.314 65.9013 37.9132 65.3302 37.9505 64.5976C37.9887 63.8416 37.4143 63.1956 36.6702 63.1575C36.3092 63.1392 35.9627 63.2646 35.6944 63.511C35.4267 63.7569 35.2691 64.0937 35.2507 64.4594C35.232 64.825 35.3548 65.1762 35.5961 65.4482C35.6013 65.4541 35.6073 65.4593 35.6126 65.4651L35.3201 65.5991C33.6954 66.3433 32.5728 67.7637 31.3105 69.5498L27.4059 63.8005C27.9326 63.6347 28.3284 63.1493 28.3585 62.5584C28.3967 61.8024 27.8224 61.1564 27.0783 61.1183C26.7172 61.0999 26.3708 61.2254 26.1025 61.4718C25.8348 61.7177 25.6772 62.0545 25.6587 62.4202C25.6401 62.7859 25.7628 63.1371 26.0041 63.409C26.2461 63.6816 26.5781 63.8419 26.939 63.8604C26.962 63.8616 26.9849 63.8621 27.0078 63.8621C27.1038 63.8621 27.1975 63.851 27.2882 63.8314L26.8651 70.8393C24.909 70.2595 23.461 70.1214 21.2471 70.2913L20.8332 70.323C20.8414 70.2723 20.8475 70.2212 20.8502 70.1692C20.8689 69.8036 20.7462 69.4524 20.5048 69.1804C20.2629 68.9078 19.9308 68.7475 19.5699 68.7291C18.8256 68.6912 18.1888 69.2751 18.1504 70.031C18.1122 70.787 18.6866 71.433 19.4307 71.4711C19.454 71.4724 19.4771 71.4728 19.5003 71.4728C19.836 71.4728 20.1555 71.3481 20.4065 71.1176C20.6064 70.934 20.7448 70.6997 20.8098 70.4405L21.1834 70.6245C21.2797 70.6719 21.3772 70.7196 21.476 70.7679C23.6232 71.8169 26.2745 73.1131 28.0633 77.9217C24.6429 80.0219 21.6976 83.3061 24.4213 85.5972C26.7626 87.5574 32.0763 86.8649 33.275 86.3832C31.877 89.7753 30.8459 92.2682 28.7727 95.2993C25.6013 93.156 21.8314 88.8116 17.27 88.8409C12.7086 88.8703 13.1378 95.1877 17.8364 97.6628C21.4193 99.9467 26.4815 99.8955 28.9274 97.8436L27.7529 97.1248C23.4795 100.312 13.4829 95.4536 17.0907 91.4272C19.322 89.8614 23.7483 93.8542 28.5104 96.7765C33.5527 99.8704 40.2204 102.534 45.0979 99.9711C48.1448 98.3702 48.986 95.8523 45.965 93.6048ZM35.6004 64.4773C35.6142 64.2046 35.7315 63.9536 35.9307 63.7707C36.1166 63.5999 36.353 63.5076 36.6011 63.5076C36.6182 63.5076 36.6353 63.508 36.6525 63.5089C37.2037 63.5371 37.6292 64.0175 37.6008 64.5797C37.5722 65.1419 37.0995 65.5769 36.5489 65.5481C36.2822 65.5346 36.0367 65.4159 35.8576 65.2141C35.6778 65.0116 35.5865 64.7499 35.6004 64.4773ZM20.5004 70.1513C20.4866 70.424 20.3693 70.675 20.17 70.8579C19.9714 71.0404 19.7147 71.1336 19.4484 71.1197C18.8971 71.0915 18.4716 70.6111 18.5 70.0489C18.5278 69.504 18.9719 69.0792 19.5013 69.0792C19.5181 69.0792 19.535 69.0796 19.552 69.0805C19.8186 69.0941 20.0641 69.2128 20.2432 69.4146C20.423 69.6171 20.5143 69.8787 20.5004 70.1513ZM26.9568 63.5089C26.6901 63.4953 26.4446 63.3767 26.2655 63.1749C26.0858 62.9724 25.9945 62.7107 26.0084 62.4381C26.0222 62.1654 26.1395 61.9145 26.3387 61.7315C26.5246 61.5608 26.761 61.4684 27.0091 61.4684C27.0262 61.4684 27.0433 61.4688 27.0605 61.4698C27.6118 61.4979 28.0371 61.9783 28.0088 62.5405C27.9802 63.1027 27.5074 63.5389 26.9568 63.5089ZM21.9318 70.5999C23.815 70.5052 25.1612 70.6835 26.9753 71.2398L27.1877 71.305L27.587 64.6915L31.3054 70.1666L31.4508 69.9594C32.6431 68.262 33.6237 66.9619 34.967 66.178C33.8706 68.2863 33.2509 70.5146 33.1237 72.8102C33.0094 74.8738 33.3391 76.3718 33.4806 76.903C33.1742 77.2238 31.6513 78.6178 28.5746 78.3121C26.821 73.1842 24.1544 71.694 21.9318 70.5999Z" fill="#7A5145"/>
<path fill-rule="evenodd" clip-rule="evenodd" d="M30.725 76.4689C31.2406 76.3336 31.3452 75.0195 30.9585 73.5342C30.5717 72.0489 29.84 70.9548 29.3245 71.0901C28.8089 71.2258 28.7042 72.5396 29.091 74.0249C29.4777 75.5102 30.2094 76.6046 30.725 76.4689ZM29.3575 71.3387C29.6284 71.3159 29.9005 71.9298 29.9654 72.7097C30.0303 73.4895 29.8631 74.1402 29.5925 74.163C29.3216 74.1858 29.0495 73.5719 28.9846 72.792C28.9197 72.0119 29.0868 71.3615 29.3575 71.3387Z" fill="#7A5145"/>
<path d="M104.989 92.055C105.022 91.7278 103.698 91.6338 103.052 91.4231C102.894 90.6919 102.934 89.3179 102.578 89.2294C102.186 89.2417 101.64 90.5143 101.171 91.157C100.556 91.1175 99.4933 90.7441 99.3253 91.0386C99.1393 91.3108 100.21 92.1115 100.652 92.6479C99.4595 94.9336 95.3493 98.2896 93.0279 96.5116C89.2775 93.1883 95.34 85.9416 97.3158 86.909C99.2153 87.8391 94.2295 91.1594 93.27 91.8326C92.948 92.1385 92.6604 93.0099 92.8754 93.5282C96.2992 91.8125 101.253 87.8785 98.0113 85.5902C94.7686 83.3009 90.6108 90.4545 89.9156 93.7446C86.4896 97.8588 80.4347 100.196 81.0822 93.0099C86.7551 88.8524 101.623 72.2228 95.7382 69.1238C93.337 67.8589 88.0287 72.3259 83.5154 81.7337C82.0342 84.821 80.2342 88.9731 79.5675 91.5974L81.2197 90.083C82.23 86.3033 91.2633 69.4411 94.2145 71.2265C95.3129 71.8909 93.2255 77.1971 89.9414 81.5346C88.0175 84.0757 74.3243 99.8991 70.4775 96.8565C68.1615 95.0217 71.6061 90.4917 72.8085 88.0009L77.1592 87.8228C78.3051 87.8209 78.9091 86.5873 77.7597 86.3973L73.7478 86.3207L77.7207 79.8357C78.1587 78.3258 76.2644 78.3672 75.6148 79.291L71.3948 86.2921L68.4853 86.2912C67.7423 86.3312 67.1564 87.6304 67.9335 87.9029L70.6175 87.9313L67.9098 93.611C66.479 95.0768 64.104 97.2976 61.6921 97.0486C57.4796 96.614 61.8267 89.5791 62.7301 87.8483L66.0467 87.754C67.222 87.5346 67.019 86.2848 66.37 86.2907L63.5181 86.2904L67.3596 78.8232C67.752 77.454 66.0348 77.2064 65.303 78.3834L61.0087 86.1339L57.3852 86.1176C57.4397 85.7911 57.055 84.8953 56.6572 84.0732C57.3601 83.5865 58.4941 83.1431 58.4154 82.6867C58.332 82.1787 56.9909 82.2948 56.1034 82.1355C55.7652 81.1122 55.5043 79.4587 55.0327 79.4795C54.5881 79.4781 54.2673 80.9736 53.8565 81.9273C52.9321 82.1237 51.5891 82.1102 51.5163 82.6444C51.4052 82.9942 52.4814 83.4022 53.1806 83.8453C52.8079 84.8404 52.058 86.1583 52.3393 86.5072C52.9112 86.7778 53.9294 85.5679 54.8626 84.9365C55.7597 85.6609 56.66 86.8437 57.0877 86.6879C57.2149 87.4412 59.4252 87.4803 60.422 87.6086C60.422 87.6086 57.9628 92.4629 57.7251 92.9183C57.4874 93.3737 54.9388 97.4437 53.0584 96.9799C49.8989 96.2008 52.952 90.4624 53.4212 89.8383C53.8901 89.2145 53.7738 88.4564 52.7635 88.1805C50.8495 87.6582 49.1878 93.4963 49.2486 94.9585C49.4635 100.13 54.6282 99.5491 57.5842 95.3324C57.3572 99.9794 64.37 98.8737 67.3314 95.3471C67.091 97.3105 68.9102 99.8936 73.1512 98.1124C75.7902 97.0041 79.2614 94.1921 79.2614 94.1921C79.2614 94.1921 79.1796 99.279 83.4666 99.2739C86.4685 99.2694 90.2916 95.6106 90.2916 95.6106C90.2916 95.6106 90.8699 97.2205 91.6245 97.7646C93.5799 99.1705 96.0727 98.273 97.5192 97.4871C99.2855 96.5274 101.665 93.6575 101.665 93.6575C102.077 94.2496 102.755 95.386 103.077 95.3349C103.325 95.1845 103.101 93.7504 103.137 92.9859C103.754 92.6758 104.991 92.3909 104.989 92.055Z" fill="#7A5145"/>
<path d="M185.232 78.1032C185.956 78.1154 186.646 78.309 187.307 78.6845C187.966 79.0589 188.48 79.5888 188.849 80.2755C189.219 80.9622 189.398 81.6768 189.386 82.4187C189.373 83.1564 189.175 83.8586 188.79 84.5219C188.405 85.1875 187.876 85.7005 187.203 86.0644C186.53 86.4283 185.825 86.6038 185.091 86.5914C184.354 86.579 183.657 86.38 182.995 85.9935C182.334 85.6072 181.822 85.0767 181.461 84.3985C181.1 83.7228 180.924 83.0142 180.937 82.2765C180.949 81.5346 181.152 80.8264 181.543 80.1526C181.934 79.4787 182.466 78.9664 183.138 78.6144C183.809 78.2612 184.507 78.0911 185.232 78.1032ZM185.222 78.9343C184.642 78.9245 184.083 79.0612 183.545 79.343C183.006 79.6266 182.579 80.0384 182.264 80.5813C181.947 81.1223 181.784 81.6929 181.774 82.2906C181.764 82.8841 181.904 83.4538 182.195 83.9985C182.485 84.5439 182.897 84.9709 183.43 85.2833C183.962 85.595 184.521 85.7553 185.108 85.7651C185.701 85.7751 186.268 85.6338 186.806 85.3401C187.347 85.0457 187.772 84.6328 188.083 84.0976C188.394 83.563 188.553 82.9983 188.562 82.4048C188.572 81.8071 188.428 81.2313 188.132 80.68C187.833 80.1267 187.42 79.7009 186.889 79.3992C186.358 79.0995 185.805 78.9441 185.222 78.9343ZM183.215 84.5873L183.29 80.0832L184.199 80.0985C185.053 80.1129 185.531 80.1227 185.633 80.1328C185.934 80.1648 186.167 80.2286 186.334 80.3242C186.499 80.4215 186.636 80.568 186.745 80.7638C186.855 80.9595 186.907 81.1747 186.903 81.4116C186.897 81.7377 186.788 82.0141 186.571 82.2415C186.355 82.4689 186.058 82.6057 185.673 82.6555C185.809 82.7093 185.913 82.7667 185.986 82.8296C186.057 82.8924 186.158 83.0096 186.282 83.1811C186.316 83.2248 186.422 83.4103 186.605 83.7347L187.12 84.6531L185.993 84.6341L185.632 83.8955C185.386 83.4006 185.182 83.0884 185.018 82.9575C184.855 82.8273 184.645 82.7597 184.393 82.7555L184.155 82.7515L184.124 84.6026L183.215 84.5873ZM184.167 82.0424L184.536 82.0487C185.063 82.0575 185.39 82.0421 185.516 82.0029C185.644 81.9662 185.746 81.8954 185.82 81.7956C185.897 81.6957 185.935 81.5814 185.938 81.4516C185.94 81.3254 185.905 81.2134 185.834 81.1135C185.764 81.0154 185.665 80.9437 185.532 80.8983C185.401 80.8548 185.075 80.8266 184.557 80.8179L184.187 80.8116L184.167 82.0424Z" fill="#7A5145"/>
</g>
<defs>
<clipPath id="clip0">
<rect width="200" height="101" fill="white"/>
</clipPath>
</defs>
</svg>
