<svg width="36" height="27" viewBox="0 0 36 27" fill="none" xmlns="http://www.w3.org/2000/svg">
<g clip-path="url(#clip0)">
<path fill-rule="evenodd" clip-rule="evenodd" d="M35.2988 21.5487C35.2988 24.559 32.859 27 29.8475 27H0.252441V5.45212C0.252441 2.44099 2.69259 3.1153e-05 5.70412 3.1153e-05L35.2988 0V21.5487H35.2988Z" fill="white"/>
<path fill-rule="evenodd" clip-rule="evenodd" d="M25.6492 13.9734H25.6686H25.7062H25.7437H25.7813H25.8189H25.8565H25.8941H25.9317H25.9693H26.0068H26.0444H26.082H26.1196H26.1571H26.1947H26.2323H26.2699H26.3075H26.3451H26.3826H26.4202H26.4578H26.4954H26.533H26.5705H26.6081H26.6457H26.6833H26.7209H26.7585H26.796H26.8336H26.8712H26.9088H26.9464H26.9839H27.0215H27.0591H27.0967H27.1343H27.1719H27.2094H27.247H27.2846H27.3222H27.3597H27.3973H27.4349H27.4725H27.5101H27.5477H27.5852H27.6228H27.6604H27.698H27.7356H27.7731H27.8107H27.8483H27.8859H27.9172L27.9235 13.9736C27.9351 13.9738 27.9477 13.9744 27.9611 13.9751C27.9731 13.9758 27.9857 13.9766 27.9986 13.9776C28.011 13.9785 28.0236 13.9795 28.0362 13.9807C28.0489 13.9818 28.0615 13.9831 28.0738 13.9845C28.0867 13.9859 28.0994 13.9874 28.1114 13.9891C28.1248 13.9909 28.1375 13.9927 28.149 13.9947C28.1572 13.9961 28.1649 13.9975 28.1717 13.999L28.1865 14.0024C28.1991 14.0053 28.2116 14.0085 28.2241 14.0119C28.2367 14.0154 28.2493 14.0191 28.2617 14.0231C28.2743 14.0271 28.2869 14.0314 28.2993 14.0359C28.3119 14.0405 28.3244 14.0453 28.3369 14.0504C28.3495 14.0555 28.362 14.061 28.3745 14.0667C28.3871 14.0724 28.3996 14.0785 28.412 14.0848C28.4247 14.0912 28.4372 14.0979 28.4496 14.1049C28.4623 14.112 28.4748 14.1195 28.4872 14.1272C28.4999 14.1351 28.5124 14.1433 28.5248 14.1517C28.5375 14.1605 28.55 14.1694 28.5623 14.1787C28.5751 14.1883 28.5876 14.1983 28.5999 14.2085C28.6127 14.2192 28.6252 14.2302 28.6375 14.2415C28.6503 14.2533 28.6629 14.2653 28.6751 14.2778C28.688 14.2909 28.7005 14.3044 28.7127 14.3183C28.7256 14.333 28.7381 14.3482 28.7503 14.3637C28.7633 14.3805 28.7758 14.3976 28.7879 14.4153C28.801 14.4346 28.8136 14.4544 28.8254 14.4747C28.8388 14.4977 28.8513 14.5213 28.863 14.5455C28.8768 14.5742 28.8894 14.6038 28.9006 14.6343C28.9156 14.6752 28.9282 14.7176 28.9382 14.7613C28.9554 14.8372 28.9646 14.9171 28.9646 15.0005C28.9646 15.0844 28.9554 15.1646 28.9382 15.2407C28.9282 15.2846 28.9156 15.3271 28.9006 15.3681C28.8894 15.3986 28.8768 15.4283 28.863 15.4571C28.8513 15.4813 28.8388 15.505 28.8254 15.5279C28.8136 15.5483 28.801 15.5681 28.7879 15.5874C28.7758 15.6051 28.7633 15.6222 28.7503 15.639C28.7381 15.6545 28.7256 15.6696 28.7127 15.6844C28.7005 15.6982 28.688 15.7118 28.6751 15.7249C28.6629 15.7373 28.6503 15.7494 28.6375 15.7612C28.6252 15.7724 28.6127 15.7833 28.5999 15.7939C28.5876 15.8042 28.5751 15.8141 28.5623 15.8237C28.55 15.8329 28.5375 15.8419 28.5248 15.8506C28.5124 15.859 28.4999 15.8671 28.4872 15.875C28.4748 15.8827 28.4623 15.8901 28.4496 15.8972C28.4372 15.9041 28.4247 15.9108 28.412 15.9172C28.3996 15.9234 28.3871 15.9294 28.3745 15.9352C28.362 15.9409 28.3495 15.9462 28.3369 15.9514C28.3244 15.9564 28.3119 15.9612 28.2993 15.9657C28.2869 15.9702 28.2743 15.9744 28.2617 15.9783C28.2493 15.9823 28.2367 15.9859 28.2241 15.9893C28.2116 15.9927 28.1991 15.9958 28.1865 15.9987L28.1717 16.0021C28.1649 16.0036 28.1572 16.0052 28.149 16.0066C28.1375 16.0086 28.1248 16.0106 28.1114 16.0124C28.0994 16.014 28.0867 16.0156 28.0738 16.017C28.0615 16.0184 28.0489 16.0196 28.0362 16.0208C28.0236 16.0219 28.011 16.0229 27.9986 16.0238C27.9857 16.0247 27.9731 16.0256 27.9611 16.0262C27.9477 16.0269 27.9351 16.0274 27.9235 16.0276L27.9033 16.0279H27.8859H27.8483H27.8107H27.7731H27.7356H27.698H27.6604H27.6228H27.5852H27.5477H27.5101H27.4725H27.4349H27.3973H27.3597H27.3222H27.2846H27.247H27.2094H27.1719H27.1343H27.0967H27.0591H27.0215H26.9839H26.9464H26.9088H26.8712H26.8336H26.796H26.7585H26.7209H26.6833H26.6457H26.6081H26.5705H26.533H26.4954H26.4578H26.4202H26.3826H26.3451H26.3075H26.2699H26.2323H26.1947H26.1571H26.1196H26.082H26.0444H26.0068H25.9693H25.9317H25.8941H25.8565H25.8189H25.7813H25.7437H25.7062H25.6686H25.6492V13.9734ZM28.6752 11.6482C28.6903 11.7172 28.6984 11.7902 28.6984 11.8671C28.6984 11.9439 28.6903 12.0169 28.6752 12.0858C28.6655 12.1301 28.6529 12.1726 28.6376 12.2134C28.6265 12.2432 28.6139 12.272 28.6001 12.2998C28.5884 12.3232 28.5759 12.3458 28.5625 12.3677C28.5506 12.3871 28.538 12.4059 28.5249 12.4242C28.5129 12.4408 28.5003 12.4569 28.4873 12.4726C28.4752 12.4872 28.4627 12.5013 28.4498 12.5151C28.4376 12.528 28.425 12.5405 28.4122 12.5526C28.3999 12.5641 28.3874 12.5753 28.3746 12.5861C28.3623 12.5965 28.3498 12.6065 28.337 12.6161C28.3247 12.6255 28.3122 12.6345 28.2994 12.6432C28.2871 12.6516 28.2745 12.6597 28.2618 12.6675C28.2495 12.6751 28.2369 12.6825 28.2243 12.6895C28.2119 12.6963 28.1994 12.7029 28.1867 12.7092C28.1743 12.7154 28.1617 12.7213 28.1491 12.7269C28.1367 12.7324 28.1242 12.7377 28.1115 12.7427C28.0991 12.7475 28.0866 12.7522 28.074 12.7566C28.0615 12.7609 28.049 12.765 28.0364 12.7688C28.0239 12.7726 28.0114 12.7761 27.9988 12.7794C27.9863 12.7826 27.9738 12.7856 27.9612 12.7884C27.9488 12.7911 27.9362 12.7935 27.9236 12.7958L27.9145 12.7974C27.9072 12.7987 27.8975 12.8001 27.886 12.8016C27.8749 12.803 27.8622 12.8044 27.8485 12.8058C27.8366 12.807 27.8239 12.8082 27.8109 12.8093C27.7986 12.8103 27.7859 12.8112 27.7733 12.812C27.7607 12.8128 27.748 12.8135 27.7357 12.814C27.7227 12.8146 27.7101 12.8149 27.6982 12.815L27.6922 12.815H27.6606H27.623H27.5854H27.5478H27.5102H27.4727H27.4351H27.3975H27.3599H27.3224H27.2848H27.2472H27.2096H27.172H27.1344H27.0969H27.0593H27.0217H26.9841H26.9466H26.909H26.8714H26.8338H26.7962H26.7586H26.7211H26.6835H26.6459H26.6083H26.5708H26.5332H26.4956H26.458H26.4204H26.3829H26.3453H26.3077H26.2701H26.2325H26.195H26.1574H26.1198H26.0822H26.0446H26.0071H25.9695H25.9319H25.8943H25.8567H25.8192H25.7816H25.744H25.7064H25.6688H25.6492V10.9191H25.6688H25.7064H25.744H25.7816H25.8192H25.8567H25.8943H25.9319H25.9695H26.0071H26.0446H26.0822H26.1198H26.1574H26.195H26.2325H26.2701H26.3077H26.3453H26.3829H26.4204H26.458H26.4956H26.5332H26.5708H26.6083H26.6459H26.6835H26.7211H26.7586H26.7962H26.8338H26.8714H26.909H26.9466H26.9841H27.0217H27.0593H27.0969H27.1344H27.172H27.2096H27.2472H27.2848H27.3224H27.3599H27.3975H27.4351H27.4727H27.5102H27.5478H27.5854H27.623H27.6606H27.6982H27.714L27.7357 10.9198C27.748 10.9203 27.7607 10.9211 27.7733 10.9219C27.7859 10.9227 27.7986 10.9236 27.8109 10.9246C27.8239 10.9257 27.8366 10.9269 27.8485 10.928C27.8622 10.9294 27.8749 10.9307 27.886 10.932C27.8975 10.9333 27.9072 10.9345 27.9145 10.9356L27.9236 10.9372C27.9362 10.9395 27.9488 10.942 27.9612 10.9448C27.9738 10.9476 27.9863 10.9506 27.9988 10.9538C28.0114 10.9572 28.0239 10.9607 28.0364 10.9645C28.049 10.9684 28.0615 10.9725 28.074 10.9768C28.0866 10.9812 28.0991 10.9859 28.1115 10.9908C28.1242 10.9958 28.1367 11.0011 28.1491 11.0067C28.1617 11.0123 28.1743 11.0182 28.1867 11.0244C28.1994 11.0307 28.2119 11.0373 28.2243 11.0441C28.2369 11.0512 28.2495 11.0585 28.2618 11.0661C28.2745 11.0739 28.2871 11.082 28.2994 11.0905C28.3122 11.0992 28.3247 11.1083 28.337 11.1176C28.3498 11.1273 28.3623 11.1373 28.3746 11.1476C28.3874 11.1585 28.3999 11.1697 28.4122 11.1812C28.425 11.1933 28.4376 11.2058 28.4498 11.2187C28.4627 11.2324 28.4752 11.2466 28.4873 11.2612C28.5003 11.2768 28.5129 11.293 28.5249 11.3096C28.538 11.3279 28.5506 11.3467 28.5625 11.3661C28.5759 11.388 28.5884 11.4106 28.6001 11.434C28.6139 11.4618 28.6265 11.4907 28.6376 11.5205C28.6529 11.5613 28.6655 11.6039 28.6752 11.6482ZM33.3358 1.81732H33.3512L33.3512 21.2885C33.3512 21.4049 33.3458 21.5199 33.3358 21.6337C33.327 21.7338 33.3144 21.8328 33.2982 21.9306C33.2873 21.9963 33.2748 22.0614 33.2606 22.1259C33.2492 22.1784 33.2366 22.2306 33.223 22.2823C33.2113 22.3269 33.1987 22.3711 33.1855 22.4151C33.1735 22.4549 33.1611 22.4944 33.1479 22.5336C33.1359 22.5692 33.1233 22.6044 33.1103 22.6396C33.0982 22.6722 33.0856 22.7047 33.0727 22.737C33.0606 22.7673 33.048 22.7974 33.0351 22.8273C33.0229 22.8557 33.0104 22.8839 32.9975 22.9119C32.9853 22.9385 32.9728 22.9651 32.96 22.9914C32.9477 23.0166 32.9352 23.0418 32.9224 23.0667C32.9101 23.0906 32.8975 23.1144 32.8848 23.138C32.8725 23.1607 32.8599 23.1831 32.8472 23.2056C32.8349 23.2273 32.8223 23.2488 32.8096 23.2703C32.7972 23.2912 32.7847 23.3119 32.772 23.3325C32.7596 23.3526 32.7472 23.3726 32.7344 23.3925C32.7221 23.4117 32.7095 23.4307 32.6968 23.4496C32.6845 23.4681 32.6719 23.4864 32.6592 23.5046C32.6468 23.5225 32.6343 23.5404 32.6216 23.5581C32.6092 23.5753 32.5967 23.5925 32.5841 23.6096C32.5717 23.6262 32.5591 23.6427 32.5465 23.6591C32.534 23.6752 32.5215 23.6914 32.5089 23.7073C32.4965 23.723 32.484 23.7385 32.4713 23.754C32.4589 23.7691 32.4463 23.7841 32.4337 23.799C32.4212 23.8138 32.4088 23.8286 32.3961 23.8432C32.3837 23.8574 32.3711 23.8715 32.3586 23.8855C32.3461 23.8994 32.3336 23.9132 32.3209 23.9269C32.3085 23.9404 32.296 23.9539 32.2834 23.9673C32.271 23.9804 32.2584 23.9932 32.2458 24.0061C32.2333 24.019 32.2209 24.0319 32.2082 24.0445C32.1958 24.0569 32.1832 24.069 32.1706 24.0812C32.1581 24.0933 32.1457 24.1055 32.133 24.1175C32.1206 24.1292 32.108 24.1408 32.0954 24.1524C32.083 24.1639 32.0704 24.1753 32.0578 24.1866C32.0454 24.1978 32.0329 24.209 32.0203 24.22C32.0078 24.2309 31.9952 24.2417 31.9827 24.2524C31.9702 24.2631 31.9577 24.2737 31.9451 24.2842C31.9327 24.2945 31.9201 24.3047 31.9075 24.3149C31.895 24.325 31.8825 24.3352 31.8699 24.3452C31.8575 24.355 31.8449 24.3646 31.8323 24.3743C31.8198 24.3839 31.8074 24.3936 31.7947 24.4031C31.7823 24.4124 31.7697 24.4216 31.7571 24.4308C31.7446 24.44 31.7322 24.4492 31.7195 24.4583C31.7071 24.4672 31.6945 24.4758 31.682 24.4846C31.6694 24.4933 31.657 24.5021 31.6444 24.5107C31.6319 24.5191 31.6194 24.5274 31.6068 24.5357C31.5943 24.544 31.5818 24.5524 31.5692 24.5605C31.5567 24.5686 31.5442 24.5765 31.5316 24.5844C31.5191 24.5923 31.5066 24.6002 31.494 24.6079C31.4816 24.6156 31.469 24.6231 31.4565 24.6307L31.4189 24.6529C31.4064 24.6602 31.3939 24.6675 31.3813 24.6747C31.3688 24.6818 31.3562 24.6887 31.3437 24.6957C31.3312 24.7026 31.3187 24.7096 31.3061 24.7164C31.2936 24.7232 31.2811 24.7297 31.2685 24.7363C31.256 24.7429 31.2435 24.7496 31.2309 24.7561C31.2185 24.7625 31.2059 24.7686 31.1933 24.7748C31.1808 24.7811 31.1684 24.7874 31.1557 24.7935C31.1433 24.7996 31.1307 24.8055 31.1182 24.8114L31.0806 24.829L31.043 24.846C31.0305 24.8516 31.0179 24.857 31.0054 24.8624C30.9929 24.8679 30.9804 24.8734 30.9678 24.8787C30.9554 24.884 30.9428 24.889 30.9302 24.8941C30.9177 24.8992 30.9052 24.9045 30.8926 24.9095C30.8802 24.9144 30.8676 24.9191 30.855 24.9239C30.8426 24.9287 30.8301 24.9335 30.8175 24.9382L30.7799 24.9521C30.7674 24.9566 30.7548 24.961 30.7423 24.9653C30.7297 24.9697 30.7173 24.9743 30.7047 24.9785C30.6922 24.9827 30.6796 24.9867 30.6671 24.9907L30.6295 25.0029C30.617 25.0069 30.6045 25.0107 30.5919 25.0145L30.5544 25.0257C30.5418 25.0294 30.5293 25.0331 30.5168 25.0367C30.5043 25.0402 30.4917 25.0435 30.4792 25.0469C30.4667 25.0503 30.4542 25.0538 30.4416 25.057L30.404 25.0665L30.3664 25.0757L30.3288 25.0846C30.3163 25.0875 30.3038 25.0901 30.2912 25.0928C30.2787 25.0956 30.2662 25.0984 30.2536 25.101L30.2161 25.1085L30.1785 25.1157C30.1659 25.1181 30.1534 25.1206 30.1409 25.1228C30.1284 25.125 30.1158 25.1269 30.1033 25.129L30.0657 25.1353L30.0281 25.1409L29.9905 25.1462C29.978 25.1479 29.9655 25.1498 29.9529 25.1514C29.9405 25.153 29.9279 25.1543 29.9154 25.1557C29.9029 25.1572 29.8903 25.1587 29.8778 25.16C29.8653 25.1614 29.8528 25.1627 29.8402 25.1639C29.8277 25.1652 29.8151 25.1662 29.8026 25.1673C29.79 25.1684 29.7776 25.1696 29.765 25.1706C29.7525 25.1716 29.74 25.1724 29.7274 25.1732L29.6898 25.1756C29.6773 25.1763 29.6648 25.1772 29.6523 25.1779C29.6398 25.1785 29.6272 25.1788 29.6147 25.1793L29.5771 25.1807L29.5395 25.1817C29.527 25.182 29.5144 25.182 29.5019 25.1822L29.4643 25.1827L29.4566 25.1828H29.4267H29.3891H29.3516H29.314H29.2764H29.2388H29.2012H29.1636H29.126H29.0885H29.0508H29.0133H28.9757H28.9381H28.9005H28.8629H28.8253H28.7877H28.7502H28.7126H28.675H28.6374H28.5998H28.5622H28.5246H28.487H28.4495H28.4119H28.3743H28.3367H28.2991H28.2615H28.2239H28.1864H28.1488H28.1112H28.0736H28.036H27.9984H27.9608H27.9232H27.8856H27.8481H27.8105H27.7729H27.7353H27.6977H27.6601H27.6225H27.5849H27.5474H27.5098H27.4722H27.4346H27.397H27.3594H27.3218H27.2843H27.2467H27.2091H27.1715H27.1339H27.0963H27.0587H27.0211H26.9836H26.946H26.9084H26.8708H26.8332H26.7956H26.758H26.7204H26.6828H26.6453H26.6077H26.5701H26.5325H26.4949H26.4573H26.4197H26.3822H26.3446H26.307H26.2694H26.2318H26.1942H26.1566H26.119H26.0815H26.0439H26.0063H25.9687H25.9311H25.8935H25.8559H25.8183H25.7807H25.7432H25.7056H25.668H25.6304H25.5928H25.5552H25.5177H25.4801H25.4425H25.4049H25.3673H25.3297H25.2921H25.2545H25.2169H25.1794H25.1418H25.1042H25.0666H25.029H24.9914H24.9538H24.9163H24.8787H24.8411H24.8035H24.7659H24.7283H24.6907H24.6531H24.6156H24.578H24.5404H24.5028H24.4652H24.4276H24.39H24.3524H24.3148H24.2773H24.2397H24.2021H24.1645H24.1269H24.0893H24.0518H24.0142H23.9766H23.939H23.9014H23.8638H23.8262H23.7451V17.2437H23.8262H23.8638H23.9014H23.939H23.9766H24.0142H24.0518H24.0893H24.1269H24.1645H24.2021H24.2397H24.2773H24.3148H24.3524H24.39H24.4276H24.4652H24.5028H24.5404H24.578H24.6156H24.6531H24.6907H24.7283H24.7659H24.8035H24.8411H24.8787H24.9163H24.9538H24.9914H25.029H25.0666H25.1042H25.1418H25.1794H25.2169H25.2545H25.2921H25.3297H25.3673H25.4049H25.4425H25.4801H25.5177H25.5552H25.5928H25.6304H25.668H25.7056H25.7432H25.7807H25.8183H25.8559H25.8935H25.9311H25.9687H26.0063H26.0439H26.0815H26.119H26.1566H26.1942H26.2318H26.2694H26.307H26.3446H26.3822H26.4197H26.4573H26.4949H26.5325H26.5701H26.6077H26.6453H26.6828H26.7204H26.758H26.7956H26.8332H26.8708H26.9084H26.946H26.9836H27.0211H27.0587H27.0963H27.1339H27.1715H27.2091H27.2467H27.2843H27.3218H27.3594H27.397H27.4346H27.4722H27.5098H27.5474H27.5849H27.6225H27.6601H27.6977H27.7353H27.7729H27.8105H27.8481H27.8856H27.9232H27.9608H27.9984H28.036H28.0736H28.1112H28.1488H28.1864H28.2239H28.2615H28.2991H28.3367H28.3743H28.4119H28.4495H28.487H28.5246H28.5622H28.5998H28.6374H28.675H28.7126H28.7502H28.7877H28.8253H28.8629H28.9005H28.9381H28.9757H29.0133H29.0508H29.0885H29.126H29.1636H29.2012H29.2388H29.2764H29.314H29.3516H29.3891H29.4267H29.4643H29.5019H29.5395H29.5771H29.6147H29.6523H29.6898H29.7274H29.765H29.7849L29.8026 17.2435L29.8402 17.2432L29.8778 17.2424C29.8903 17.2421 29.9029 17.2419 29.9154 17.2415C29.928 17.2411 29.9404 17.2405 29.9529 17.2399L29.9905 17.2382L30.0281 17.2359L30.0657 17.2333L30.1033 17.2304L30.1409 17.2269C30.1534 17.2257 30.166 17.2246 30.1785 17.2233C30.191 17.222 30.2035 17.2205 30.2161 17.219L30.2536 17.2144C30.2662 17.2128 30.2787 17.2112 30.2912 17.2095C30.3038 17.2078 30.3163 17.2058 30.3288 17.2039C30.3414 17.202 30.3539 17.2002 30.3664 17.1982L30.404 17.1918L30.4416 17.1851C30.4541 17.1827 30.4667 17.1805 30.4792 17.178C30.4918 17.1755 30.5043 17.1728 30.5168 17.1702L30.5544 17.1621C30.5669 17.1593 30.5795 17.1565 30.5919 17.1535C30.6045 17.1506 30.617 17.1474 30.6295 17.1443C30.6421 17.1412 30.6546 17.138 30.6671 17.1348C30.6797 17.1315 30.6922 17.1281 30.7047 17.1247C30.7173 17.1212 30.7298 17.1176 30.7423 17.1139C30.7549 17.1103 30.7674 17.1066 30.7799 17.1028L30.8175 17.091C30.8301 17.087 30.8426 17.0828 30.855 17.0786C30.8676 17.0744 30.8802 17.0701 30.8926 17.0658C30.9052 17.0613 30.9178 17.0569 30.9302 17.0523C30.9429 17.0477 30.9553 17.0428 30.9678 17.038C30.9804 17.0332 30.9929 17.0282 31.0054 17.0232C31.018 17.0182 31.0306 17.0131 31.043 17.0079C31.0556 17.0026 31.0681 16.9972 31.0806 16.9917C31.0932 16.9861 31.1057 16.9805 31.1182 16.9747C31.1307 16.9689 31.1433 16.9631 31.1557 16.9572C31.1683 16.9511 31.1809 16.9451 31.1933 16.9389C31.206 16.9325 31.2184 16.9261 31.2309 16.9196C31.2435 16.913 31.256 16.9063 31.2685 16.8995C31.2812 16.8926 31.2937 16.8857 31.3061 16.8786C31.3187 16.8714 31.3313 16.8642 31.3437 16.8568C31.3563 16.8493 31.3689 16.8418 31.3813 16.8341C31.3939 16.8262 31.4064 16.8182 31.4189 16.8101C31.4315 16.8019 31.444 16.7936 31.4565 16.7851C31.4691 16.7766 31.4816 16.7678 31.494 16.759C31.5067 16.75 31.5192 16.7409 31.5316 16.7317C31.5443 16.7223 31.5568 16.7128 31.5692 16.7031C31.5819 16.6932 31.5944 16.6832 31.6068 16.6731C31.6195 16.6627 31.632 16.6522 31.6444 16.6416C31.6571 16.6307 31.6696 16.6196 31.682 16.6084C31.6947 16.5969 31.7072 16.5853 31.7195 16.5735C31.7323 16.5613 31.7448 16.549 31.7571 16.5366C31.7699 16.5237 31.7824 16.5106 31.7947 16.4974C31.8075 16.4838 31.82 16.4699 31.8323 16.4559C31.8451 16.4414 31.8576 16.4267 31.8699 16.4117C31.8827 16.3962 31.8952 16.3805 31.9075 16.3645C31.9203 16.3478 31.9329 16.331 31.9451 16.3139C31.958 16.2958 31.9704 16.2773 31.9827 16.2587C31.9956 16.2389 32.0081 16.2189 32.0203 16.1987C32.0333 16.1769 32.0458 16.1548 32.0578 16.1324C32.0709 16.1081 32.0835 16.0835 32.0954 16.0585C32.1087 16.0305 32.1212 16.0021 32.133 15.9733C32.1465 15.9403 32.1591 15.9069 32.1706 15.8728C32.1847 15.8308 32.1972 15.788 32.2082 15.7444C32.2242 15.6807 32.2368 15.6153 32.2458 15.5483C32.2567 15.467 32.2624 15.3835 32.2624 15.2977C32.2624 15.2141 32.2567 15.1329 32.2458 15.0541C32.2368 14.9893 32.2242 14.9261 32.2082 14.8647C32.1972 14.8228 32.1847 14.7817 32.1706 14.7414C32.1591 14.7083 32.1466 14.6757 32.133 14.6438C32.1213 14.6161 32.1087 14.5888 32.0954 14.5619C32.0835 14.5378 32.0709 14.5139 32.0578 14.4904C32.0458 14.4688 32.0333 14.4474 32.0203 14.4264C32.0082 14.4069 31.9956 14.3876 31.9827 14.3686C31.9705 14.3507 31.958 14.3329 31.9451 14.3154C31.9329 14.2989 31.9203 14.2826 31.9075 14.2666C31.8952 14.2512 31.8827 14.236 31.8699 14.221C31.8576 14.2066 31.8451 14.1923 31.8323 14.1783C31.82 14.1648 31.8075 14.1514 31.7947 14.1382C31.7824 14.1255 31.7699 14.113 31.7571 14.1006C31.7448 14.0886 31.7323 14.0767 31.7195 14.065C31.7072 14.0536 31.6946 14.0424 31.682 14.0313C31.6696 14.0205 31.6571 14.0098 31.6444 13.9993C31.632 13.989 31.6195 13.9788 31.6068 13.9688C31.5944 13.959 31.5819 13.9493 31.5692 13.9398C31.5568 13.9305 31.5443 13.9213 31.5316 13.9121C31.5192 13.9032 31.5067 13.8944 31.494 13.8857C31.4816 13.8772 31.4691 13.8688 31.4565 13.8605C31.444 13.8523 31.4315 13.8442 31.4189 13.8363C31.4064 13.8285 31.3939 13.8208 31.3813 13.8132C31.3689 13.8057 31.3563 13.7984 31.3437 13.7911C31.3312 13.784 31.3187 13.7769 31.3061 13.77C31.2937 13.7631 31.2812 13.7564 31.2685 13.7498C31.2561 13.7432 31.2435 13.7367 31.2309 13.7303C31.2185 13.724 31.206 13.7177 31.1933 13.7116C31.1809 13.7056 31.1684 13.6995 31.1557 13.6937C31.1433 13.6879 31.1307 13.6822 31.1182 13.6766C31.1057 13.6711 31.0932 13.6656 31.0806 13.6602C31.0681 13.6549 31.0556 13.6497 31.043 13.6445C31.0305 13.6394 31.018 13.6343 31.0054 13.6293C30.9929 13.6244 30.9804 13.6196 30.9678 13.6149C30.9554 13.6102 30.9428 13.6057 30.9302 13.6011C30.9178 13.5966 30.9052 13.5923 30.8926 13.5879C30.8802 13.5836 30.8677 13.5794 30.855 13.5752C30.8426 13.5711 30.8301 13.5671 30.8175 13.5631C30.805 13.5592 30.7924 13.5554 30.7799 13.5516L30.7423 13.5406C30.7298 13.537 30.7173 13.5334 30.7047 13.53C30.6922 13.5266 30.6797 13.5233 30.6671 13.5201C30.6546 13.5168 30.6421 13.5137 30.6295 13.5106C30.617 13.5075 30.6045 13.5045 30.5919 13.5015C30.5795 13.4986 30.5669 13.4958 30.5544 13.493C30.5419 13.4902 30.5293 13.4876 30.5168 13.485C30.5043 13.4823 30.4918 13.4797 30.4792 13.4773L30.4416 13.4701L30.404 13.4634C30.3915 13.4612 30.379 13.459 30.3664 13.457L30.3288 13.4511C30.3163 13.4492 30.3038 13.4474 30.2912 13.4457L30.2536 13.4405L30.2161 13.4358L30.1785 13.4315L30.1409 13.4276L30.1033 13.4241L30.0657 13.4209L30.031 13.4183L30.031 13.3732L30.0657 13.3678L30.1033 13.3616C30.1159 13.3595 30.1284 13.3573 30.1409 13.3551L30.1785 13.3478C30.1911 13.3453 30.2036 13.3428 30.2161 13.3401L30.2536 13.3319C30.2662 13.3291 30.2788 13.3262 30.2912 13.3232C30.3039 13.3202 30.3163 13.317 30.3288 13.3138C30.3415 13.3106 30.3539 13.3072 30.3664 13.3039C30.379 13.3004 30.3915 13.297 30.404 13.2934C30.4166 13.2898 30.4292 13.2861 30.4416 13.2823C30.4542 13.2785 30.4668 13.2746 30.4792 13.2706C30.4918 13.2666 30.5043 13.2624 30.5168 13.2582C30.5294 13.2539 30.5419 13.2495 30.5544 13.2451C30.567 13.2406 30.5795 13.2361 30.5919 13.2314C30.6045 13.2267 30.6171 13.2219 30.6295 13.217C30.6421 13.212 30.6547 13.207 30.6671 13.2018C30.6797 13.1966 30.6923 13.1913 30.7047 13.1859C30.7173 13.1804 30.7298 13.1747 30.7423 13.169C30.7549 13.1633 30.7674 13.1574 30.7799 13.1514C30.7925 13.1453 30.805 13.1391 30.8175 13.1328C30.8301 13.1265 30.8426 13.12 30.855 13.1134C30.8677 13.1067 30.8802 13.0999 30.8926 13.093C30.9053 13.086 30.9178 13.0788 30.9302 13.0716C30.9429 13.0642 30.9554 13.0567 30.9678 13.0491C30.9805 13.0413 30.993 13.0335 31.0054 13.0255C31.0181 13.0174 31.0306 13.0091 31.043 13.0007C31.0557 12.9921 31.0682 12.9834 31.0806 12.9746C31.0933 12.9656 31.1058 12.9565 31.1182 12.9472C31.1309 12.9377 31.1434 12.9281 31.1557 12.9184C31.1684 12.9083 31.181 12.8982 31.1933 12.8879C31.206 12.8774 31.2186 12.8666 31.2309 12.8558C31.2437 12.8445 31.2562 12.8332 31.2685 12.8217C31.2812 12.8098 31.2938 12.7978 31.3061 12.7856C31.3188 12.773 31.3314 12.7603 31.3437 12.7474C31.3565 12.734 31.369 12.7204 31.3813 12.7066C31.3941 12.6923 31.4066 12.6778 31.4189 12.6631C31.4317 12.6477 31.4442 12.6322 31.4565 12.6164C31.4693 12.5998 31.4818 12.583 31.494 12.566C31.507 12.5479 31.5195 12.5297 31.5316 12.5112C31.5446 12.4916 31.5571 12.4717 31.5692 12.4515C31.5822 12.4297 31.5948 12.4076 31.6068 12.3853C31.62 12.3607 31.6325 12.3358 31.6444 12.3107C31.6577 12.2824 31.6703 12.2537 31.682 12.2247C31.6956 12.191 31.7081 12.1567 31.7195 12.1221C31.7339 12.0785 31.7464 12.0342 31.7571 11.9893C31.7745 11.9165 31.787 11.8422 31.7947 11.7667C31.8009 11.707 31.804 11.6466 31.804 11.5856C31.804 11.5211 31.8008 11.4583 31.7947 11.397C31.787 11.3187 31.7744 11.243 31.7571 11.17C31.7464 11.1244 31.7338 11.0798 31.7195 11.0363C31.7081 11.0015 31.6956 10.9674 31.682 10.934C31.6702 10.9052 31.6577 10.8768 31.6444 10.849C31.6325 10.8242 31.6199 10.7999 31.6068 10.7759C31.5948 10.7539 31.5822 10.7323 31.5692 10.711C31.5571 10.6912 31.5446 10.6717 31.5316 10.6525C31.5195 10.6345 31.5069 10.6168 31.494 10.5994C31.4818 10.5829 31.4693 10.5666 31.4565 10.5505C31.4442 10.5352 31.4317 10.52 31.4189 10.5051C31.4066 10.4909 31.3941 10.477 31.3813 10.4632C31.369 10.4499 31.3565 10.4369 31.3437 10.4239C31.3314 10.4115 31.3188 10.3992 31.3061 10.3871C31.2938 10.3753 31.2812 10.3637 31.2685 10.3523C31.2562 10.3413 31.2436 10.3303 31.2309 10.3195C31.2185 10.3091 31.206 10.2987 31.1933 10.2885C31.181 10.2786 31.1684 10.2688 31.1557 10.2592C31.1434 10.2498 31.1308 10.2405 31.1182 10.2314C31.1058 10.2225 31.0932 10.2137 31.0806 10.205C31.0682 10.1965 31.0557 10.1882 31.043 10.1799C31.0306 10.1718 31.018 10.1638 31.0054 10.156C30.993 10.1483 30.9804 10.1407 30.9678 10.1332C30.9554 10.1259 30.9429 10.1187 30.9302 10.1115C30.9178 10.1045 30.9053 10.0976 30.8926 10.0908C30.8802 10.0841 30.8677 10.0776 30.855 10.0711C30.8426 10.0647 30.8301 10.0584 30.8175 10.0522C30.805 10.0461 30.7925 10.04 30.7799 10.0341C30.7674 10.0283 30.7549 10.0225 30.7423 10.0169C30.7298 10.0114 30.7173 10.006 30.7047 10.0006C30.6923 9.99533 30.6797 9.99013 30.6671 9.98499C30.6547 9.97994 30.6421 9.97496 30.6295 9.97007C30.6171 9.96524 30.6045 9.96044 30.5919 9.95577C30.5795 9.95115 30.567 9.94664 30.5544 9.94218C30.5419 9.93779 30.5294 9.93352 30.5168 9.92929C30.5043 9.92511 30.4918 9.92103 30.4792 9.91701C30.4667 9.91302 30.4542 9.9091 30.4416 9.90527C30.4291 9.90147 30.4166 9.89767 30.404 9.89402C30.3915 9.89044 30.379 9.88698 30.3664 9.88355C30.3539 9.88013 30.3414 9.87682 30.3288 9.87355L30.2912 9.86399C30.2787 9.8609 30.2663 9.85788 30.2536 9.85495C30.2412 9.85206 30.2287 9.84925 30.2161 9.84651L30.1785 9.83851C30.166 9.83592 30.1535 9.8333 30.1409 9.83087C30.1284 9.82844 30.1158 9.8262 30.1033 9.8239L30.0657 9.81729C30.0532 9.81517 30.0407 9.81302 30.0281 9.81103L29.9905 9.80533L29.9529 9.80003L29.9154 9.79505L29.8778 9.79059L29.8402 9.78654L29.8026 9.78277L29.765 9.77947L29.7274 9.77657L29.6898 9.77389L29.6523 9.77175L29.6373 9.7709L29.6147 9.7695L29.5771 9.76729L29.5395 9.7652L29.5019 9.76324L29.4643 9.76143L29.4267 9.75981L29.3891 9.75844L29.3516 9.75729L29.314 9.75645L29.2764 9.75595L29.2556 9.75589H29.2388H29.2012H29.1636H29.126H29.0885H29.0508H29.0133H28.9757H28.9381H28.9005H28.8629H28.8253H28.7877H28.7502H28.7126H28.675H28.6374H28.5998H28.5622H28.5246H28.487H28.4495H28.4119H28.3743H28.3367H28.2991H28.2615H28.2239H28.1864H28.1488H28.1112H28.0736H28.036H27.9984H27.9608H27.9232H27.8856H27.8481H27.8105H27.7729H27.7353H27.6977H27.6601H27.6225H27.5849H27.5474H27.5098H27.4722H27.4346H27.397H27.3594H27.3218H27.2843H27.2467H27.2091H27.1715H27.1339H27.0963H27.0587H27.0211H26.9836H26.946H26.9084H26.8708H26.8332H26.7956H26.758H26.7204H26.6828H26.6453H26.6077H26.5701H26.5325H26.4949H26.4573H26.4197H26.3822H26.3446H26.307H26.2694H26.2318H26.1942H26.1566H26.119H26.0815H26.0439H26.0063H25.9687H25.9311H25.8935H25.8559H25.8183H25.7807H25.7432H25.7056H25.668H25.6304H25.5928H25.5552H25.5177H25.4801H25.4425H25.4049H25.3673H25.3297H25.2921H25.2545H25.2169H25.1794H25.1418H25.1042H25.0666H25.029H24.9914H24.9538H24.9163H24.8787H24.8411H24.8035H24.7659H24.7283H24.6907H24.6531H24.6156H24.578H24.5404H24.5028H24.4652H24.4276H24.39H24.3524H24.3148H24.2773H24.2397H24.2021H24.1645H24.1269H24.0893H24.0518H24.0142H23.9766H23.939H23.9014H23.8638H23.8262H23.7451V5.71188C23.7451 5.43982 23.7731 5.17434 23.8262 4.91801C23.8376 4.86312 23.8502 4.8087 23.8638 4.75471C23.8755 4.70851 23.8881 4.66265 23.9014 4.61714C23.9133 4.57648 23.9258 4.53611 23.939 4.49601C23.951 4.45938 23.9635 4.42293 23.9766 4.38679C23.9887 4.35327 24.0011 4.31994 24.0142 4.28685C24.0263 4.25595 24.0388 4.2252 24.0518 4.1947C24.064 4.16592 24.0765 4.13726 24.0893 4.10881C24.1015 4.0818 24.1141 4.05498 24.1269 4.02831C24.1391 4.00286 24.1517 3.9776 24.1645 3.95246C24.1768 3.92828 24.1894 3.90429 24.2021 3.8804C24.2144 3.85738 24.2269 3.83451 24.2397 3.81177C24.252 3.78971 24.2645 3.76784 24.2773 3.74607C24.2896 3.72495 24.3021 3.70392 24.3148 3.68308C24.3272 3.66286 24.3397 3.64279 24.3524 3.62283C24.3648 3.60348 24.3774 3.58432 24.39 3.56522C24.4024 3.54653 24.4149 3.5279 24.4276 3.50943C24.44 3.49133 24.4524 3.47323 24.4652 3.45535C24.4776 3.43803 24.4902 3.42092 24.5028 3.40382C24.5152 3.387 24.5277 3.3703 24.5404 3.35369C24.5529 3.33734 24.5653 3.32092 24.578 3.30478C24.5903 3.28908 24.603 3.27363 24.6156 3.25812C24.628 3.24282 24.6405 3.22765 24.6531 3.21257C24.6656 3.19768 24.6781 3.18279 24.6907 3.16809C24.7031 3.15375 24.7157 3.13967 24.7283 3.12553C24.7408 3.11151 24.7532 3.09746 24.7659 3.08363C24.7783 3.07008 24.7909 3.05665 24.8035 3.04325C24.8159 3.03005 24.8285 3.01693 24.8411 3.00388C24.8535 2.99101 24.866 2.97815 24.8787 2.96543C24.8911 2.95294 24.9037 2.94064 24.9163 2.92833C24.9287 2.91609 24.9411 2.90372 24.9538 2.89166C24.9662 2.87986 24.9789 2.86833 24.9914 2.85668C25.0039 2.84509 25.0164 2.83347 25.029 2.82204C25.0415 2.81079 25.054 2.79976 25.0666 2.7887C25.0791 2.77771 25.0916 2.76671 25.1042 2.75587C25.1167 2.74518 25.1292 2.73465 25.1418 2.72412C25.1543 2.71369 25.1668 2.70328 25.1794 2.693C25.1918 2.68281 25.2044 2.67275 25.2169 2.66275L25.2545 2.63319L25.2921 2.6044C25.3046 2.59496 25.3171 2.58559 25.3297 2.5763C25.3422 2.56711 25.3547 2.55795 25.3673 2.54889L25.4049 2.52219C25.4173 2.51344 25.4299 2.50474 25.4425 2.49615L25.4801 2.47069L25.5177 2.44593C25.5302 2.4378 25.5426 2.4297 25.5552 2.42172L25.5928 2.39823C25.6054 2.39047 25.6178 2.38272 25.6304 2.37512C25.6429 2.36758 25.6555 2.36026 25.668 2.35287C25.6805 2.34549 25.693 2.33804 25.7056 2.33082C25.718 2.32368 25.7307 2.3168 25.7432 2.30979C25.7557 2.30278 25.7681 2.29565 25.7807 2.28879C25.7932 2.28203 25.8058 2.27549 25.8183 2.26885C25.8309 2.26222 25.8433 2.25555 25.8559 2.24904C25.8684 2.24259 25.881 2.23633 25.8935 2.23004C25.906 2.22378 25.9185 2.21748 25.9311 2.21135L25.9687 2.19318C25.9812 2.18723 25.9937 2.18144 26.0063 2.17561C26.0188 2.16982 26.0313 2.16393 26.0439 2.15826C26.0563 2.15265 26.0689 2.14729 26.0815 2.14181C26.094 2.13633 26.1065 2.13075 26.119 2.12539C26.1315 2.1201 26.1441 2.11505 26.1566 2.10988C26.1691 2.10474 26.1816 2.09954 26.1942 2.09452L26.2318 2.07972L26.2694 2.06542C26.2819 2.06069 26.2944 2.05589 26.307 2.05131C26.3194 2.04676 26.332 2.0425 26.3446 2.03807C26.3571 2.03365 26.3696 2.02913 26.3822 2.02483C26.3946 2.02056 26.4072 2.01655 26.4197 2.0124L26.4573 2.00022C26.4699 1.99623 26.4823 1.99221 26.4949 1.98835C26.5074 1.98452 26.52 1.98091 26.5325 1.9772C26.545 1.97346 26.5575 1.9696 26.5701 1.96602C26.5826 1.96246 26.5951 1.95916 26.6077 1.95573C26.6202 1.95231 26.6327 1.94885 26.6453 1.94555L26.6828 1.93583C26.6953 1.93268 26.7079 1.92969 26.7204 1.92667C26.733 1.92365 26.7454 1.92041 26.758 1.91751C26.7705 1.91464 26.7831 1.91203 26.7956 1.90925L26.8332 1.90106L26.8708 1.8933C26.8833 1.89081 26.8958 1.88848 26.9084 1.88611C26.9209 1.88371 26.9334 1.88115 26.946 1.87888C26.9585 1.87661 26.971 1.87467 26.9836 1.87256L27.0211 1.86633C27.0337 1.86433 27.0462 1.86228 27.0587 1.86041C27.0712 1.85854 27.0838 1.85689 27.0963 1.85514C27.1089 1.8534 27.1213 1.8515 27.1339 1.84988C27.1464 1.84826 27.159 1.84682 27.1715 1.84533L27.2091 1.84103C27.2216 1.83966 27.2341 1.83813 27.2467 1.83689C27.2591 1.83564 27.2717 1.83467 27.2843 1.83355L27.3218 1.83022L27.3594 1.82738C27.3719 1.82648 27.3845 1.82576 27.397 1.82499C27.4095 1.82424 27.422 1.82327 27.4346 1.82262C27.4471 1.82196 27.4597 1.82159 27.4722 1.82106L27.5098 1.81966C27.5223 1.81925 27.5348 1.81872 27.5474 1.81844C27.5599 1.81816 27.5724 1.81813 27.5849 1.81794C27.5975 1.81776 27.61 1.81754 27.6225 1.81748L27.632 1.81735H27.6601H27.6977H27.7353H27.7729H27.8105H27.8481H27.8856H27.9232H27.9608H27.9984H28.036H28.0736H28.1112H28.1488H28.1864H28.2239H28.2615H28.2991H28.3367H28.3743H28.4119H28.4495H28.487H28.5246H28.5622H28.5998H28.6374H28.675H28.7126H28.7502H28.7877H28.8253H28.8629H28.9005H28.9381H28.9757H29.0133H29.0508H29.0885H29.126H29.1636H29.2012H29.2388H29.2764H29.314H29.3516H29.3891H29.4267H29.4643H29.5019H29.5395H29.5771H29.6147H29.6523H29.6898H29.7274H29.765H29.8026H29.8402H29.8778H29.9154H29.9529H29.9905H30.0281H30.0657H30.1033H30.1409H30.1785H30.2161H30.2536H30.2912H30.3288H30.3664H30.404H30.4416H30.4792H30.5168H30.5544H30.5919H30.6295H30.6671H30.7047H30.7423H30.7799H30.8175H30.855H30.8926H30.9302H30.9678H31.0054H31.043H31.0806H31.1182H31.1557H31.1933H31.2309H31.2685H31.3061H31.3437H31.3813H31.4189H31.4565H31.494H31.5316H31.5692H31.6068H31.6444H31.682H31.7195H31.7571H31.7947H31.8323H31.8699H31.9075H31.9451H31.9827H32.0203H32.0578H32.0954H32.133H32.1706H32.2082H32.2458H32.2834H32.3209H32.3586H32.3961H32.4337H32.4713H32.5089H32.5465H32.5841H32.6216H32.6592H32.6968H32.7344H32.772H32.8096H32.8472H32.8848H32.9224H32.96H32.9975H33.0351H33.0727H33.1103H33.1479H33.1855H33.223H33.2606H33.2982H33.3358V1.81732Z" fill="url(#paint0_linear)"/>
<path fill-rule="evenodd" clip-rule="evenodd" d="M2.27932 15.368C2.25244 15.3552 2.22558 15.3424 2.19873 15.3294V5.71185C2.19873 5.44057 2.22652 5.17577 2.27932 4.92013C2.29066 4.86524 2.30325 4.81085 2.31686 4.75683C2.32851 4.71056 2.34107 4.66468 2.35437 4.6191C2.36624 4.57848 2.37876 4.53816 2.39188 4.4981C2.4039 4.46143 2.41633 4.42492 2.42942 4.38872C2.44154 4.35523 2.45394 4.32193 2.46693 4.28888C2.47905 4.25797 2.49157 4.22716 2.50447 4.19663C2.51665 4.16785 2.52914 4.13925 2.54197 4.11084C2.55419 4.08383 2.56671 4.05704 2.57948 4.03037C2.59169 4.00489 2.60428 3.97959 2.61702 3.95442C2.62927 3.93024 2.64179 3.90626 2.65453 3.88239C2.6668 3.85937 2.67933 3.8365 2.69204 3.81376C2.70434 3.79174 2.71684 3.76984 2.72958 3.74809C2.74191 3.72697 2.75434 3.70591 2.76709 3.68504C2.77942 3.66485 2.79195 3.64482 2.80463 3.62488C2.8169 3.60557 2.82952 3.58638 2.84213 3.56728C2.8545 3.54859 2.86696 3.52996 2.87964 3.51148C2.8921 3.49335 2.90444 3.47525 2.91718 3.45734C2.92949 3.44005 2.9421 3.42298 2.95469 3.40588C2.96709 3.38905 2.97958 3.37236 2.99223 3.35575C3.00466 3.33943 3.01706 3.32298 3.02974 3.30684C3.04207 3.29117 3.05469 3.27575 3.06725 3.26027C3.07964 3.24497 3.09214 3.22974 3.10478 3.21463C3.11721 3.19977 3.12964 3.18494 3.14229 3.17027C3.15466 3.1559 3.16725 3.14179 3.17983 3.12762C3.19226 3.11357 3.20469 3.09955 3.21734 3.08572C3.22971 3.07217 3.24229 3.0588 3.25485 3.04544C3.26728 3.0322 3.27977 3.01908 3.29239 3.00603C3.30482 2.99316 3.31728 2.98029 3.3299 2.96758C3.34229 2.95509 3.35488 2.94279 3.36744 2.93048C3.37993 2.91824 3.3923 2.9059 3.40494 2.89385C3.41731 2.88204 3.42993 2.87051 3.44245 2.85886C3.45494 2.84724 3.46734 2.83559 3.47999 2.82416C3.49239 2.81294 3.50498 2.80194 3.5175 2.79088C3.52999 2.77989 3.54242 2.76886 3.55504 2.75802C3.56747 2.74733 3.57999 2.73683 3.59255 2.7263C3.60498 2.71587 3.61747 2.70543 3.63006 2.69515C3.64249 2.685 3.65504 2.67493 3.66759 2.6649C3.68006 2.65496 3.69252 2.64512 3.7051 2.63534C3.71753 2.62565 3.73009 2.61608 3.74264 2.60655C3.7551 2.59711 3.7676 2.5877 3.78015 2.57842L3.81766 2.55107C3.83012 2.54207 3.84261 2.53312 3.8552 2.52428C3.86763 2.51552 3.88015 2.50686 3.89271 2.49826C3.90517 2.4897 3.91766 2.48119 3.93021 2.47278C3.94268 2.46446 3.9552 2.45627 3.96775 2.44808C3.98022 2.43995 3.99268 2.43175 4.00526 2.42375C4.01769 2.41583 4.03025 2.40811 4.0428 2.40032C4.05529 2.39256 4.06772 2.38471 4.08031 2.37711C4.09271 2.3696 4.10529 2.36231 4.11782 2.35493C4.13034 2.34755 4.14274 2.34004 4.15536 2.33278C4.16776 2.32565 4.18037 2.31882 4.19287 2.31181C4.20539 2.3048 4.21782 2.2977 4.23041 2.29082C4.24284 2.28402 4.25539 2.27748 4.26791 2.27085C4.28041 2.26421 4.29287 2.25754 4.30542 2.25103C4.31788 2.24459 4.33041 2.23826 4.34296 2.23194L4.38047 2.21331C4.39296 2.20717 4.40545 2.20103 4.41801 2.19505C4.43047 2.1891 4.44299 2.18334 4.45552 2.17751C4.46804 2.17169 4.48044 2.16574 4.49303 2.16007C4.50546 2.15443 4.51804 2.14913 4.53056 2.14365C4.54306 2.13817 4.55552 2.13259 4.56807 2.12723C4.58053 2.12194 4.59309 2.11683 4.60561 2.11166L4.64312 2.09633L4.68063 2.08144L4.71817 2.06717C4.73069 2.06243 4.74309 2.05754 4.75568 2.05293C4.76811 2.04838 4.78072 2.04415 4.79322 2.03972C4.80571 2.0353 4.81817 2.03081 4.83072 2.02651L4.86823 2.01396L4.90577 2.00178C4.91826 1.99779 4.93072 1.99371 4.94328 1.98985C4.95571 1.98602 4.9683 1.98237 4.98079 1.97866C4.99331 1.97492 5.00577 1.97112 5.01833 1.96751C5.03079 1.96393 5.04331 1.96059 5.05584 1.95714L5.09337 1.94695C5.10587 1.94365 5.11833 1.94028 5.13088 1.93711C5.14334 1.93393 5.1559 1.93103 5.16839 1.92798C5.18088 1.92492 5.19338 1.92175 5.20593 1.91882C5.21839 1.91592 5.23095 1.91321 5.24344 1.91044L5.28098 1.90228C5.29347 1.8996 5.30593 1.89689 5.31849 1.89436C5.33095 1.89187 5.3435 1.88957 5.35599 1.88717C5.36852 1.88477 5.38098 1.88228 5.39353 1.88C5.40603 1.87773 5.41852 1.87567 5.43104 1.87352L5.46858 1.86729C5.48107 1.8653 5.49353 1.86315 5.50609 1.86125C5.51855 1.85935 5.53111 1.85776 5.5436 1.85598C5.55609 1.85424 5.56858 1.85237 5.58114 1.85072L5.61865 1.84601L5.65618 1.84175C5.66871 1.84034 5.68114 1.83872 5.69369 1.83745C5.70615 1.83617 5.71871 1.83523 5.7312 1.83408L5.76874 1.83078C5.78123 1.82972 5.79373 1.82869 5.80625 1.82779C5.81874 1.82689 5.83126 1.82617 5.84379 1.82539C5.85631 1.82461 5.86877 1.82371 5.8813 1.82302C5.89376 1.82234 5.90628 1.82187 5.9188 1.82131L5.95634 1.81988C5.96884 1.81944 5.9813 1.81879 5.99385 1.81847C6.00631 1.81816 6.01887 1.81819 6.03136 1.81801C6.04385 1.81782 6.05638 1.8176 6.0689 1.81754L6.08557 1.81732H6.10641H6.14395H6.18146H6.21896H6.2565H6.29401H6.33155H6.36906H6.40657H6.44411H6.48161H6.51915H6.55666H6.59417H6.63171H6.66922H6.70676H6.74427H6.78177H6.81931H6.85682H6.89436H6.93187H6.96938H7.00692H7.04443H7.08196H7.11947H7.15698H7.19452H7.23203H7.26957H7.30708H7.34458H7.38212H7.41963H7.45714H7.49468H7.53219H7.56973H7.60723H7.64474H7.68228H7.71979H7.75733H7.79484H7.83235H7.86989H7.90739H7.94493H7.98244H8.01995H8.05749H8.095H8.13254H8.17005H8.20755H8.24509H8.2826H8.32011H8.35765H8.39516H8.4327H8.4702H8.50774H8.54525H8.58276H8.6203H8.65781H8.69532H8.73286H8.77036H8.8079H8.84541H8.88292H8.92046H8.95797H8.99551H9.03302H9.07052H9.10806H9.14557H9.18311H9.22062H9.25813H9.29567H9.33317H9.37068H9.40822H9.44573H9.48327H9.52078H9.55832H9.59583H9.63333H9.67087H9.70838H9.74592H9.78343H9.82094H9.85848H9.89599H9.93349H9.97103H10.0085H10.0461H10.0836H10.1211H10.1586H10.1961H10.2337H10.2712H10.3087H10.3462H10.3837H10.4213H10.4588H10.4963H10.5338H10.5714H10.6089H10.6464H10.6839H10.7214H10.759H10.7965H10.834H10.8715H10.909H10.9466H10.9841H11.0216H11.0591H11.0967H11.1342H11.1717H11.2092H11.2467H11.2843H11.3218H11.3593H11.3968H11.4343H11.4719H11.5094H11.5469H11.5844H11.6219H11.6594H11.697H11.7345H11.772H11.8039V21.2885C11.8039 21.4579 11.793 21.6248 11.772 21.7885C11.7619 21.8673 11.7492 21.9452 11.7345 22.0225C11.7233 22.0813 11.7108 22.1396 11.697 22.1974C11.6853 22.2461 11.6729 22.2944 11.6594 22.3424C11.6476 22.3845 11.6351 22.4263 11.6219 22.4677C11.61 22.5053 11.5974 22.5426 11.5844 22.5796C11.5724 22.6139 11.5599 22.6481 11.5469 22.6819C11.5348 22.7135 11.5223 22.7449 11.5094 22.7762C11.4972 22.8055 11.4847 22.8348 11.4719 22.8638C11.4596 22.8913 11.4471 22.9187 11.4343 22.9459C11.4221 22.9719 11.4096 22.9976 11.3968 23.0233C11.3845 23.0479 11.372 23.0723 11.3593 23.0966C11.347 23.12 11.3345 23.1433 11.3218 23.1664C11.3094 23.1888 11.297 23.2111 11.2843 23.2331C11.272 23.2545 11.2594 23.2756 11.2467 23.2967C11.2344 23.3171 11.2219 23.3372 11.2092 23.3574C11.1969 23.377 11.1843 23.3965 11.1717 23.416C11.1593 23.4349 11.1469 23.4539 11.1342 23.4726C11.1218 23.4908 11.1093 23.5088 11.0967 23.5267C11.0843 23.5443 11.0718 23.5617 11.0591 23.579C11.0467 23.596 11.0343 23.613 11.0216 23.6298C11.0092 23.6463 10.9967 23.6626 10.9841 23.6789C10.9717 23.6947 10.9591 23.7104 10.9466 23.7261C10.9341 23.7416 10.9217 23.757 10.909 23.7723C10.8967 23.7872 10.8841 23.802 10.8715 23.8167C10.8591 23.8312 10.8466 23.8456 10.834 23.8599C10.8215 23.8741 10.8091 23.8883 10.7965 23.9023C10.7841 23.9159 10.7715 23.9293 10.759 23.9428C10.7465 23.9561 10.7341 23.9695 10.7214 23.9827C10.709 23.9956 10.6965 24.0084 10.6839 24.0212C10.6715 24.0338 10.659 24.0463 10.6464 24.0588C10.634 24.0711 10.6215 24.0833 10.6089 24.0954C10.5965 24.1074 10.5839 24.1191 10.5714 24.1309C10.5589 24.1426 10.5465 24.1543 10.5338 24.1658C10.5214 24.1771 10.5089 24.1882 10.4963 24.1994C10.4838 24.2105 10.4714 24.2217 10.4588 24.2327C10.4464 24.2434 10.4338 24.2538 10.4213 24.2644C10.4088 24.275 10.3964 24.2856 10.3837 24.296C10.3713 24.3062 10.3588 24.3162 10.3462 24.3263C10.3337 24.3363 10.3213 24.3464 10.3087 24.3563C10.2963 24.366 10.2837 24.3755 10.2712 24.3851C10.2587 24.3946 10.2463 24.4042 10.2337 24.4136C10.2213 24.4228 10.2087 24.4318 10.1961 24.4409C10.1837 24.45 10.1713 24.4592 10.1586 24.4681C10.1462 24.4769 10.1337 24.4855 10.1211 24.4941C10.1086 24.5028 10.0962 24.5115 10.0836 24.52C10.0712 24.5284 10.0586 24.5365 10.0461 24.5448C10.0336 24.553 10.0212 24.5614 10.0085 24.5695C9.99614 24.5774 9.98352 24.585 9.97103 24.5929C9.95854 24.6007 9.94611 24.6086 9.93349 24.6163C9.92106 24.6238 9.90848 24.6312 9.89599 24.6386C9.88349 24.646 9.87106 24.6535 9.85848 24.6608C9.84602 24.668 9.83349 24.675 9.82094 24.6821C9.80848 24.6891 9.79598 24.6962 9.78343 24.7031C9.77097 24.7099 9.75848 24.7167 9.74592 24.7234L9.70838 24.7432C9.69589 24.7497 9.68343 24.7562 9.67087 24.7626C9.65841 24.769 9.64589 24.7751 9.63333 24.7813C9.62084 24.7875 9.60841 24.7938 9.59583 24.7999C9.5834 24.8058 9.57081 24.8115 9.55832 24.8174C9.54579 24.8233 9.53336 24.8292 9.52078 24.8349C9.50835 24.8406 9.49576 24.846 9.48327 24.8516L9.44573 24.868L9.40822 24.8839C9.39576 24.8891 9.38321 24.8942 9.37068 24.8992C9.35819 24.9043 9.34573 24.9095 9.33317 24.9144C9.32074 24.9193 9.30819 24.9239 9.29567 24.9287C9.28314 24.9334 9.27071 24.9383 9.25813 24.9429C9.24567 24.9476 9.23314 24.952 9.22062 24.9564L9.18311 24.9696L9.14557 24.9825C9.13311 24.9867 9.12055 24.9907 9.10806 24.9947C9.09554 24.9987 9.08311 25.003 9.07052 25.0069C9.05809 25.0108 9.04551 25.0144 9.03302 25.0181L8.99551 25.0293L8.95797 25.04C8.94551 25.0434 8.93298 25.0468 8.92046 25.0501C8.90794 25.0535 8.89547 25.057 8.88292 25.0602C8.87049 25.0634 8.85787 25.0663 8.84541 25.0694C8.83292 25.0725 8.82043 25.0756 8.8079 25.0786L8.77036 25.0872L8.73286 25.0954C8.72033 25.0981 8.7079 25.101 8.69532 25.1036C8.68286 25.1061 8.6703 25.1083 8.65781 25.1107C8.64532 25.1132 8.63282 25.1156 8.6203 25.1179L8.58276 25.1247C8.5703 25.1269 8.55778 25.1288 8.54525 25.1309C8.53273 25.1329 8.52027 25.1352 8.50774 25.1371C8.49528 25.1391 8.48273 25.1407 8.4702 25.1425L8.4327 25.1477C8.4202 25.1494 8.40771 25.1511 8.39516 25.1527C8.3827 25.1543 8.37014 25.1556 8.35765 25.157C8.34513 25.1584 8.33266 25.16 8.32011 25.1613C8.30765 25.1626 8.29512 25.1637 8.2826 25.1649L8.24509 25.1682C8.23257 25.1693 8.22011 25.1706 8.20755 25.1715C8.19509 25.1725 8.18254 25.1731 8.17005 25.1739L8.13254 25.1763L8.095 25.1783C8.08254 25.1789 8.06998 25.1792 8.05749 25.1797C8.04497 25.1802 8.03247 25.1808 8.01995 25.1811C8.00749 25.1815 7.99493 25.1816 7.98244 25.1819L7.94493 25.1823C7.93334 25.1824 7.92179 25.1828 7.91014 25.1828H7.90739H7.86989H7.83235H7.79484H7.75733H7.71979H7.68228H7.64474H7.60723H7.56973H7.53219H7.49468H7.45714H7.41963H7.38212H7.34458H7.30708H7.26957H7.23203H7.19452H7.15698H7.11947H7.08196H7.04443H7.00692H6.96938H6.93187H6.89436H6.85682H6.81931H6.78177H6.74427H6.70676H6.66922H6.63171H6.59417H6.55666H6.51915H6.48161H6.44411H6.40657H6.36906H6.33155H6.29401H6.2565H6.21896H6.18146H6.14395H6.10641H6.0689H6.03136H5.99385H5.95634H5.9188H5.8813H5.84379H5.80625H5.76874H5.7312H5.69369H5.65618H5.61865H5.58114H5.5436H5.50609H5.46858H5.43104H5.39353H5.35599H5.31849H5.28098H5.24344H5.20593H5.16839H5.13088H5.09337H5.05584H5.01833H4.98079H4.94328H4.90577H4.86823H4.83072H4.79322H4.75568H4.71817H4.68063H4.64312H4.60561H4.56807H4.53056H4.49303H4.45552H4.41801H4.38047H4.34296H4.30542H4.26791H4.23041H4.19287H4.15536H4.11782H4.08031H4.0428H4.00526H3.96775H3.93021H3.89271H3.8552H3.81766H3.78015H3.74264H3.7051H3.66759H3.63006H3.59255H3.55504H3.5175H3.47999H3.44245H3.40494H3.36744H3.3299H3.29239H3.25485H3.21734H3.17983H3.14229H3.10478H3.06725H3.02974H2.99223H2.95469H2.91718H2.87964H2.84213H2.80463H2.76709H2.72958H2.69204H2.65453H2.61702H2.57948H2.54197H2.50447H2.46693H2.42942H2.39188H2.35437H2.31686H2.27932H2.19873V16.9758C2.19873 16.9758 2.22646 16.9835 2.27932 16.9968L2.31686 17.0062L2.35437 17.0153L2.39188 17.0244L2.42942 17.0332L2.46693 17.042L2.50447 17.0506L2.54197 17.059L2.57948 17.0674L2.61702 17.0756L2.65453 17.0837L2.69204 17.0917L2.72958 17.0997L2.76709 17.1075L2.80463 17.1151L2.84213 17.1227L2.87964 17.1302L2.91718 17.1377L2.95469 17.1449L2.99223 17.1522L3.02974 17.1593L3.06725 17.1663L3.10478 17.1733L3.14229 17.1802L3.17983 17.1869L3.21734 17.1936L3.25485 17.2002L3.29239 17.2067L3.3299 17.2131L3.36744 17.2194L3.40494 17.2256L3.44245 17.2318L3.47999 17.2379L3.5175 17.2439L3.55504 17.2498L3.59255 17.2556L3.63006 17.2614L3.66759 17.267L3.7051 17.2726L3.74264 17.2781L3.78015 17.2835L3.81766 17.2888L3.8552 17.2941L3.89271 17.2992L3.93021 17.3043L3.96775 17.3093L4.00526 17.3142L4.0428 17.3191L4.08031 17.3238L4.11782 17.3285L4.15536 17.3331L4.19287 17.3377L4.23041 17.3421L4.26791 17.3464L4.30542 17.3507L4.34296 17.3549L4.38047 17.359L4.41801 17.363L4.45552 17.367L4.49303 17.3709L4.53056 17.3747L4.56807 17.3784L4.60561 17.382L4.64312 17.3856L4.68063 17.389L4.71817 17.3925L4.75568 17.3957L4.79322 17.399L4.83072 17.4021L4.86823 17.4052L4.90577 17.4082L4.94328 17.411L4.98079 17.4139L5.01833 17.4166L5.05584 17.4192L5.09337 17.4219L5.13088 17.4243L5.16839 17.4267L5.20593 17.4291L5.24344 17.4313L5.28098 17.4335L5.31849 17.4355L5.35599 17.4375L5.39353 17.4394L5.43104 17.4412L5.46858 17.443L5.50609 17.4446L5.5436 17.4462L5.58114 17.4477L5.61865 17.449L5.65618 17.4504L5.69369 17.4516L5.7312 17.4527L5.76874 17.4538L5.80625 17.4548L5.84379 17.4556L5.8813 17.4565L5.9188 17.4571L5.95634 17.4577L5.99385 17.4583L6.03136 17.4587L6.0689 17.4591L6.10641 17.4593L6.14395 17.4595L6.18146 17.4596L6.19594 17.4596L6.21896 17.4595L6.2565 17.4592L6.29401 17.459L6.33155 17.4588L6.36906 17.4586L6.40657 17.4579L6.44411 17.4572L6.48161 17.4565L6.51915 17.4559L6.55666 17.4549L6.59417 17.4537L6.63171 17.4526L6.66922 17.4514L6.70676 17.4502L6.74427 17.4485L6.78177 17.4469L6.81931 17.4452L6.85682 17.4435L6.89436 17.4415L6.93187 17.4393L6.96938 17.4371L7.00692 17.4349L7.04443 17.4325L7.08196 17.4297L7.11947 17.4271L7.15698 17.4244L7.19452 17.4214L7.23203 17.4181L7.26957 17.4149L7.30708 17.4116L7.34458 17.4081L7.38212 17.4043L7.41963 17.4005L7.45714 17.3966L7.49468 17.3925L7.53219 17.3881L7.56973 17.3836L7.60723 17.3792L7.64474 17.3744L7.68228 17.3693L7.71979 17.3643L7.75733 17.3592C7.76998 17.3574 7.78228 17.3554 7.79484 17.3536L7.83235 17.3479L7.86989 17.3423L7.90739 17.3363C7.92001 17.3343 7.93238 17.3321 7.94493 17.33L7.98244 17.3237C7.99487 17.3216 8.00761 17.3196 8.01995 17.3174C8.0326 17.3151 8.0449 17.3127 8.05749 17.3104L8.095 17.3034L8.13254 17.2964L8.17005 17.2891C8.18266 17.2866 8.19503 17.2839 8.20755 17.2813L8.24509 17.2736L8.2826 17.2658C8.29528 17.263 8.30755 17.2601 8.32011 17.2573L8.35765 17.2488C8.37008 17.246 8.38282 17.2433 8.39516 17.2404C8.40784 17.2374 8.42014 17.2343 8.4327 17.2312L8.4702 17.222C8.48267 17.2189 8.49538 17.2159 8.50774 17.2128C8.52036 17.2096 8.53276 17.2062 8.54525 17.2029L8.58276 17.1929C8.59525 17.1895 8.60793 17.1863 8.6203 17.1828C8.63292 17.1794 8.64532 17.1758 8.65781 17.1722L8.69532 17.1613C8.70781 17.1577 8.72049 17.1541 8.73286 17.1504L8.77036 17.1389L8.8079 17.1272C8.82036 17.1232 8.83307 17.1194 8.84541 17.1154L8.88292 17.1029L8.92046 17.0902C8.93292 17.0859 8.94566 17.0818 8.95797 17.0775C8.97065 17.073 8.98295 17.0684 8.99551 17.0639L9.03302 17.0502C9.04551 17.0455 9.05816 17.041 9.07052 17.0363C9.0832 17.0315 9.09554 17.0265 9.10806 17.0216C9.12059 17.0167 9.1332 17.0119 9.14557 17.0069L9.18311 16.9916L9.22062 16.9759C9.23308 16.9706 9.24582 16.9655 9.25813 16.9601C9.27084 16.9546 9.28311 16.9489 9.29567 16.9433L9.33317 16.9264L9.37068 16.909C9.3833 16.903 9.39576 16.8969 9.40822 16.8909C9.42071 16.8848 9.43342 16.8789 9.44573 16.8727C9.45844 16.8664 9.47075 16.8598 9.48327 16.8534C9.49579 16.847 9.50844 16.8406 9.52078 16.8341C9.53346 16.8275 9.54583 16.8206 9.55832 16.8139C9.5709 16.807 9.58343 16.8002 9.59583 16.7933C9.60844 16.7862 9.62093 16.7791 9.63333 16.772C9.64598 16.7647 9.65844 16.7573 9.67087 16.75C9.68343 16.7425 9.69601 16.7351 9.70838 16.7275C9.72106 16.7198 9.73346 16.7119 9.74592 16.7041C9.75848 16.6962 9.77109 16.6883 9.78343 16.6803C9.79611 16.6721 9.80848 16.6636 9.82094 16.6553C9.83349 16.6468 9.84614 16.6385 9.85848 16.63C9.87119 16.6212 9.88352 16.6122 9.89599 16.6033C9.90854 16.5943 9.92119 16.5853 9.93349 16.5762C9.9462 16.5669 9.9586 16.5574 9.97103 16.5479C9.98365 16.5382 9.9962 16.5286 10.0085 16.5188C10.0212 16.5088 10.0337 16.4987 10.0461 16.4885C10.0587 16.4781 10.0712 16.4676 10.0836 16.4572C10.0962 16.4464 10.1088 16.4357 10.1211 16.4249C10.1339 16.4137 10.1462 16.4023 10.1586 16.3909C10.1712 16.3794 10.1839 16.3679 10.1961 16.3562C10.2089 16.3441 10.2213 16.3318 10.2337 16.3195C10.2464 16.307 10.2589 16.2943 10.2712 16.2815C10.2838 16.2685 10.2965 16.2555 10.3087 16.2423C10.3215 16.2285 10.3338 16.2146 10.3462 16.2006C10.359 16.1862 10.3714 16.1717 10.3837 16.1572C10.3964 16.1422 10.409 16.1272 10.4213 16.112C10.434 16.0962 10.4466 16.0804 10.4588 16.0644C10.4716 16.0477 10.484 16.0308 10.4963 16.0138C10.5091 15.9962 10.5216 15.9785 10.5338 15.9606C10.5466 15.9419 10.5591 15.9232 10.5714 15.9042C10.5842 15.8844 10.5967 15.8645 10.6089 15.8443C10.6217 15.8231 10.6342 15.8018 10.6464 15.7802C10.6593 15.7574 10.6718 15.7344 10.6839 15.7112C10.6969 15.6864 10.7094 15.6614 10.7214 15.6363C10.7345 15.6093 10.7469 15.582 10.759 15.5545C10.772 15.5247 10.7846 15.4946 10.7965 15.4643C10.8096 15.4309 10.8222 15.3972 10.834 15.3632C10.8474 15.3246 10.8598 15.2857 10.8715 15.2464C10.8852 15.2005 10.8976 15.1541 10.909 15.1073C10.9232 15.0492 10.9357 14.9904 10.9466 14.931C10.9626 14.8426 10.975 14.7527 10.9841 14.6617C10.9967 14.5347 11.0028 14.4055 11.0028 14.2743V9.75592H10.9841H10.9466H10.909H10.8715H10.834H10.7965H10.759H10.7214H10.6839H10.6464H10.6089H10.5714H10.5338H10.4963H10.4588H10.4213H10.3837H10.3462H10.3087H10.2712H10.2337H10.1961H10.1586H10.1211H10.0836H10.0461H10.0085H9.97103H9.93349H9.89599H9.85848H9.82094H9.78343H9.74592H9.70838H9.67087H9.63333H9.59583H9.55832H9.52078H9.48327H9.44573H9.40822H9.37068H9.33317H9.29567H9.25813H9.22062H9.18311H9.14557H9.10806H9.07052H9.03302H8.99551H8.95797H8.92046H8.88292H8.84541H8.8079H8.77036H8.73286H8.69532H8.65781H8.6203H8.58276H8.54525H8.50774H8.4702H8.4327H8.39516H8.35765H8.32011H8.2826H8.24509H8.20755H8.17005H8.13254H8.095H8.05749H8.01995H7.98244H7.94493H7.90739H7.86989H7.83235H7.79484H7.75733H7.71979H7.68228H7.65384V14.2743C7.65384 14.345 7.65076 14.4146 7.64474 14.4828C7.63708 14.5698 7.62453 14.6545 7.60723 14.737C7.59655 14.7879 7.58403 14.8378 7.56973 14.8869C7.55833 14.9259 7.54586 14.9644 7.53219 15.0022C7.52054 15.0344 7.50798 15.066 7.49468 15.0972C7.48281 15.1251 7.47032 15.1525 7.45714 15.1795C7.44515 15.2041 7.43272 15.2285 7.41963 15.2524C7.40761 15.2744 7.39502 15.2959 7.38212 15.3173C7.37001 15.3374 7.35751 15.3572 7.34458 15.3768C7.33244 15.3951 7.31991 15.4132 7.30708 15.431C7.29486 15.4479 7.28243 15.4648 7.26957 15.4813C7.25736 15.497 7.2448 15.5124 7.23203 15.5277C7.21979 15.5423 7.20729 15.5567 7.19452 15.5709C7.18225 15.5846 7.16975 15.5982 7.15698 15.6115C7.14468 15.6243 7.13221 15.637 7.11947 15.6495C7.10717 15.6616 7.09468 15.6736 7.08196 15.6853C7.06966 15.6966 7.0571 15.7077 7.04443 15.7188C7.03212 15.7294 7.0196 15.74 7.00692 15.7504C6.99458 15.7605 6.98203 15.7704 6.96938 15.7802C6.95704 15.7898 6.94452 15.7992 6.93187 15.8085C6.9195 15.8175 6.90701 15.8264 6.89436 15.8351C6.88199 15.8437 6.8695 15.8521 6.85682 15.8604C6.84445 15.8685 6.83196 15.8765 6.81931 15.8844C6.80695 15.892 6.79442 15.8996 6.78177 15.907C6.76941 15.9142 6.75688 15.9213 6.74427 15.9284C6.7319 15.9353 6.71937 15.942 6.70676 15.9486C6.69436 15.9552 6.68187 15.9616 6.66922 15.9679C6.65682 15.974 6.64433 15.9801 6.63171 15.9861C6.61928 15.9919 6.60682 15.9978 6.59417 16.0034C6.58174 16.009 6.56928 16.0144 6.55666 16.0198C6.54429 16.025 6.53174 16.03 6.51915 16.0351C6.50676 16.04 6.4942 16.0448 6.48161 16.0496C6.46918 16.0542 6.45672 16.0588 6.44411 16.0633C6.43168 16.0677 6.41918 16.0721 6.40657 16.0763C6.39417 16.0805 6.38164 16.0845 6.36906 16.0885C6.35666 16.0924 6.34411 16.0961 6.33155 16.0998C6.31912 16.1035 6.3066 16.1071 6.29401 16.1106C6.28155 16.114 6.26909 16.1175 6.2565 16.1207C6.24407 16.1239 6.23155 16.127 6.21896 16.13C6.20656 16.133 6.19404 16.1359 6.18146 16.1387C6.16903 16.1414 6.15653 16.1442 6.14395 16.1468C6.13149 16.1494 6.11902 16.1519 6.10641 16.1543C6.09398 16.1567 6.08145 16.1589 6.0689 16.1611C6.05644 16.1633 6.04395 16.1655 6.03136 16.1675L5.99385 16.1732C5.98142 16.175 5.9689 16.1767 5.95634 16.1783C5.94388 16.18 5.93142 16.1816 5.9188 16.1831L5.8813 16.1872C5.86887 16.1885 5.85634 16.1896 5.84379 16.1908C5.8313 16.1919 5.81883 16.1931 5.80625 16.194C5.79382 16.195 5.7813 16.1958 5.76874 16.1966C5.75628 16.1975 5.74376 16.1981 5.7312 16.1988C5.71871 16.1995 5.70628 16.2001 5.69369 16.2006C5.68126 16.2011 5.66871 16.2014 5.65618 16.2018L5.61865 16.2026C5.60622 16.2028 5.59369 16.2029 5.58114 16.203L5.56702 16.2031L5.5436 16.203L5.50609 16.2028L5.46858 16.2023L5.43104 16.2015L5.39353 16.2005L5.35599 16.1993L5.31849 16.1977L5.28098 16.196L5.24344 16.1941L5.20593 16.1919L5.16839 16.1894L5.13088 16.1868L5.09337 16.1838L5.05584 16.1807L5.01833 16.1773L4.98079 16.1738L4.94328 16.1699L4.90577 16.1658L4.86823 16.1616L4.83072 16.157L4.79322 16.1523L4.75568 16.1473L4.71817 16.1421L4.68063 16.1366L4.64312 16.131L4.60561 16.1252L4.56807 16.1191L4.53056 16.1128L4.49303 16.1063L4.45552 16.0995L4.41801 16.0925L4.38047 16.0854L4.34296 16.078L4.30542 16.0704L4.26791 16.0625L4.23041 16.0545L4.19287 16.0463L4.15536 16.0378L4.11782 16.0292L4.08031 16.0203L4.0428 16.0112L4.00526 16.0019L3.96775 15.9925L3.93021 15.9827L3.89271 15.9728L3.8552 15.9627L3.81766 15.9524L3.78015 15.9419L3.74264 15.9312L3.7051 15.9203L3.66759 15.9092L3.63006 15.8979L3.59255 15.8864L3.55504 15.8747L3.5175 15.8628L3.47999 15.8507L3.44245 15.8385L3.40494 15.826L3.36744 15.8133L3.3299 15.8005L3.29239 15.7875L3.25485 15.7742L3.21734 15.7608L3.17983 15.7473L3.14229 15.7335L3.10478 15.7195L3.06725 15.7054L3.02974 15.6911L2.99223 15.6765L2.95469 15.6619L2.91718 15.647L2.87964 15.632L2.84213 15.6168L2.80463 15.6014L2.76709 15.5858L2.72958 15.5701L2.69204 15.5541L2.65453 15.5381L2.61702 15.5218L2.57948 15.5054L2.54197 15.4888L2.50447 15.4721L2.46693 15.4551L2.42942 15.438L2.39188 15.4208L2.35437 15.4034L2.31686 15.3858L2.27932 15.368V15.368Z" fill="url(#paint1_linear)"/>
<path fill-rule="evenodd" clip-rule="evenodd" d="M13.0537 10.7433C13.0264 10.7654 12.9994 10.7877 12.9731 10.8103V5.71197C12.9731 5.44085 13.001 5.17621 13.0537 4.92066C13.065 4.8658 13.0776 4.81143 13.0912 4.75745C13.1029 4.71112 13.1155 4.66517 13.1288 4.61953C13.1406 4.57888 13.1531 4.5385 13.1663 4.49841C13.1783 4.46177 13.1907 4.42532 13.2038 4.38919C13.2159 4.3557 13.2284 4.32236 13.2413 4.28931C13.2535 4.25841 13.266 4.22766 13.2788 4.19713C13.291 4.16834 13.3035 4.13975 13.3164 4.1113C13.3285 4.08429 13.3411 4.05747 13.3539 4.0308C13.3661 4.00532 13.3787 3.98009 13.3914 3.95491C13.4036 3.93074 13.4162 3.90675 13.4289 3.88286C13.4412 3.85984 13.4537 3.83697 13.4665 3.81423C13.4788 3.7922 13.4912 3.77027 13.504 3.74853C13.5163 3.7274 13.5288 3.70638 13.5415 3.6855C13.5538 3.66535 13.5663 3.64532 13.579 3.62541C13.5913 3.60603 13.6039 3.58687 13.6165 3.56774C13.6289 3.54902 13.6414 3.53042 13.6541 3.51195C13.6665 3.49382 13.6789 3.47569 13.6916 3.45781C13.7039 3.44048 13.7165 3.42344 13.7291 3.40637C13.7415 3.38955 13.754 3.37282 13.7666 3.35622C13.7791 3.33986 13.7915 3.32347 13.8042 3.30734C13.8165 3.29167 13.8291 3.27621 13.8417 3.26073C13.8541 3.24544 13.8666 3.2302 13.8792 3.21512C13.8916 3.20023 13.9041 3.1854 13.9167 3.17073C13.9291 3.1564 13.9417 3.14226 13.9542 3.12811C13.9667 3.11409 13.9791 3.10001 13.9918 3.08615C14.0042 3.0726 14.0167 3.0592 14.0293 3.04584C14.0417 3.03263 14.0542 3.01951 14.0668 3.00646C14.0792 2.99359 14.0917 2.98073 14.1043 2.96802C14.1167 2.95556 14.1293 2.94325 14.1418 2.93095C14.1543 2.9187 14.1667 2.90637 14.1794 2.89428C14.1917 2.88247 14.2043 2.87095 14.2169 2.85929C14.2293 2.84767 14.2418 2.83602 14.2544 2.82459C14.2668 2.81337 14.2794 2.80235 14.2919 2.79129C14.3044 2.78026 14.3168 2.76926 14.3295 2.75842C14.3419 2.74774 14.3544 2.73724 14.367 2.72671C14.3794 2.71627 14.3919 2.70583 14.4045 2.69552C14.4169 2.68537 14.4295 2.6753 14.442 2.6653C14.4545 2.65537 14.467 2.64549 14.4795 2.63571C14.492 2.62605 14.5045 2.61649 14.5171 2.60695C14.5295 2.59752 14.542 2.58811 14.5546 2.57882C14.567 2.5696 14.5795 2.56051 14.5921 2.55144C14.6046 2.54247 14.6171 2.5335 14.6296 2.52465C14.6421 2.51589 14.6546 2.50726 14.6672 2.49864C14.6796 2.49007 14.6921 2.48153 14.7047 2.47312C14.7171 2.4648 14.7296 2.45661 14.7422 2.44842C14.7547 2.44025 14.7671 2.43209 14.7797 2.42409C14.7922 2.41617 14.8047 2.40845 14.8172 2.40066C14.8297 2.3929 14.8422 2.38505 14.8548 2.37745C14.8672 2.36991 14.8798 2.36262 14.8923 2.35524C14.9048 2.34785 14.9172 2.34032 14.9298 2.33309C14.9422 2.32595 14.9548 2.3191 14.9673 2.31209C14.9799 2.30508 14.9923 2.29801 15.0048 2.29116C15.0173 2.28437 15.0298 2.27782 15.0424 2.27116C15.0548 2.26452 15.0673 2.25785 15.0799 2.25134L15.1174 2.23225L15.1549 2.21359C15.1674 2.20748 15.1799 2.20131 15.1925 2.19533C15.2049 2.18938 15.2175 2.18362 15.23 2.17779C15.2425 2.172 15.2549 2.16601 15.2675 2.16035C15.2799 2.15471 15.2925 2.14941 15.305 2.14393C15.3175 2.13844 15.33 2.13287 15.3425 2.12751C15.355 2.12221 15.3675 2.11707 15.3801 2.1119L15.4176 2.09657C15.4301 2.09156 15.4425 2.08654 15.4551 2.08165C15.4676 2.07679 15.4801 2.07212 15.4926 2.06738C15.5052 2.06265 15.5176 2.05776 15.5302 2.05315C15.5426 2.0486 15.5552 2.04436 15.5677 2.03994C15.5802 2.03551 15.5926 2.03103 15.6052 2.02673C15.6177 2.02243 15.6302 2.01832 15.6427 2.01418L15.6802 2.00199C15.6927 1.99801 15.7052 1.99393 15.7178 1.99003C15.7302 1.9862 15.7428 1.98259 15.7553 1.97888C15.7678 1.97514 15.7803 1.97131 15.7928 1.96769C15.8053 1.96411 15.8178 1.96078 15.8303 1.95732L15.8678 1.94713C15.8804 1.94383 15.8928 1.94047 15.9054 1.93729C15.9178 1.93414 15.9304 1.93118 15.9429 1.92813C15.9554 1.92508 15.9679 1.9219 15.9804 1.91897C15.9929 1.91607 16.0055 1.91336 16.0179 1.91059L16.0555 1.90243C16.068 1.89978 16.0804 1.89704 16.093 1.89452C16.1055 1.89199 16.118 1.88972 16.1305 1.88732C16.143 1.88492 16.1555 1.8824 16.168 1.88012L16.2056 1.87364L16.2431 1.86744C16.2556 1.86542 16.2681 1.86327 16.2806 1.86137C16.2931 1.85947 16.3056 1.85788 16.3181 1.8561C16.3306 1.85436 16.3431 1.85252 16.3556 1.85087L16.3932 1.84617L16.4307 1.84187C16.4432 1.84047 16.4557 1.83885 16.4682 1.83757C16.4807 1.83629 16.4932 1.83536 16.5057 1.8342L16.5433 1.8309C16.5558 1.82984 16.5683 1.82881 16.5808 1.82791C16.5933 1.82701 16.6058 1.82629 16.6183 1.82551C16.6308 1.82473 16.6433 1.82383 16.6558 1.82314C16.6683 1.82246 16.6808 1.82199 16.6934 1.82143L16.7309 1.82C16.7434 1.81956 16.7559 1.81891 16.7684 1.8186C16.7809 1.81828 16.7934 1.81832 16.8059 1.81813C16.8185 1.81794 16.8309 1.81772 16.8435 1.81766L16.86 1.81744H16.881H16.9185H16.956H16.9935H17.0311H17.0686H17.1061H17.1436H17.1812H17.2187H17.2562H17.2937H17.3312H17.3688H17.4063H17.4438H17.4813H17.5189H17.5564H17.5939H17.6314H17.6689H17.7065H17.744H17.7815H17.8191H17.8566H17.8941H17.9316H17.9691H18.0067H18.0442H18.0817H18.1192H18.1568H18.1943H18.2318H18.2693H18.3068H18.3444H18.3819H18.4194H18.4569H18.4945H18.532H18.5695H18.607H18.6445H18.6821H18.7196H18.7571H18.7946H18.8321H18.8697H18.9072H18.9447H18.9822H19.0198H19.0573H19.0948H19.1323H19.1698H19.2074H19.2449H19.2824H19.3199H19.3575H19.395H19.4325H19.47H19.5075H19.5451H19.5826H19.6201H19.6576H19.6951H19.7327H19.7702H19.8077H19.8452H19.8828H19.9203H19.9578H19.9953H20.0328H20.0704H20.1079H20.1454H20.1829H20.2205H20.258H20.2955H20.333H20.3706H20.4081H20.4456H20.4831H20.5206H20.5582H20.5957H20.6332H20.6707H20.7083H20.7458H20.7833H20.8208H20.8583H20.8959H20.9334H20.9709H21.0084H21.046H21.0835H21.121H21.1585H21.196H21.2336H21.2711H21.3086H21.3462H21.3837H21.4212H21.4587H21.4962H21.5338H21.5713H21.6088H21.6463H21.6839H21.7214H21.7589H21.7964H21.8339H21.8715H21.909H21.9465H21.984H22.0216H22.0591H22.0966H22.1341H22.1716H22.2092H22.2467H22.2842H22.3217H22.3593H22.3968H22.4343H22.4718H22.5094H22.5469H22.5787V21.2887C22.5787 21.458 22.5678 21.6247 22.5469 21.7883C22.5368 21.8671 22.5241 21.9451 22.5094 22.0223C22.4981 22.0811 22.4856 22.1394 22.4718 22.1972C22.4602 22.2459 22.4477 22.2943 22.4343 22.3423C22.4225 22.3844 22.4099 22.4262 22.3968 22.4677C22.3848 22.5052 22.3723 22.5425 22.3593 22.5796C22.3472 22.6139 22.3347 22.648 22.3217 22.6818C22.3096 22.7134 22.2971 22.7448 22.2842 22.776C22.272 22.8054 22.2595 22.8347 22.2467 22.8637C22.2345 22.8912 22.222 22.9186 22.2092 22.9458C22.1969 22.9717 22.1844 22.9976 22.1716 23.0232C22.1594 23.0478 22.1469 23.0722 22.1341 23.0965C22.1218 23.12 22.1093 23.1432 22.0966 23.1664C22.0842 23.1888 22.0718 23.211 22.0591 23.2331C22.0468 23.2544 22.0342 23.2755 22.0216 23.2966C22.0093 23.317 21.9967 23.3371 21.984 23.3573C21.9717 23.3769 21.9592 23.3964 21.9465 23.4158C21.9341 23.4348 21.9217 23.4538 21.909 23.4725C21.8966 23.4907 21.8841 23.5087 21.8715 23.5266C21.8591 23.5442 21.8466 23.5616 21.8339 23.5789C21.8215 23.596 21.8091 23.613 21.7964 23.6298C21.784 23.6462 21.7715 23.6625 21.7589 23.6787C21.7465 23.6946 21.734 23.7103 21.7214 23.726C21.7089 23.7415 21.6965 23.7569 21.6839 23.7722C21.6715 23.7871 21.6589 23.8019 21.6463 23.8166C21.6339 23.8312 21.6214 23.8455 21.6088 23.8598C21.5964 23.874 21.5839 23.8882 21.5713 23.9022C21.5589 23.9158 21.5463 23.9292 21.5338 23.9427C21.5213 23.956 21.5089 23.9695 21.4962 23.9827C21.4838 23.9956 21.4713 24.0083 21.4587 24.0211C21.4463 24.0337 21.4338 24.0462 21.4212 24.0587C21.4088 24.071 21.3963 24.0832 21.3837 24.0953C21.3713 24.1073 21.3587 24.119 21.3462 24.1308C21.3337 24.1425 21.3212 24.1543 21.3086 24.1658C21.2962 24.1771 21.2836 24.1882 21.2711 24.1994C21.2586 24.2105 21.2462 24.2217 21.2336 24.2326C21.2212 24.2434 21.2086 24.2538 21.196 24.2644C21.1835 24.275 21.1711 24.2856 21.1585 24.296C21.1461 24.3062 21.1335 24.3161 21.121 24.3262C21.1085 24.3362 21.0961 24.3464 21.0835 24.3562C21.0711 24.366 21.0585 24.3754 21.046 24.385C21.0335 24.3945 21.0211 24.4041 21.0084 24.4135C20.996 24.4228 20.9834 24.4318 20.9709 24.4409C20.9584 24.45 20.946 24.4592 20.9334 24.4681C20.921 24.4769 20.9084 24.4854 20.8959 24.4941C20.8834 24.5028 20.871 24.5115 20.8583 24.52C20.8459 24.5284 20.8334 24.5365 20.8208 24.5447C20.8083 24.5529 20.7959 24.5613 20.7833 24.5694C20.7709 24.5774 20.7583 24.585 20.7458 24.5928C20.7333 24.6007 20.7209 24.6086 20.7083 24.6162C20.6958 24.6238 20.6833 24.6311 20.6707 24.6386C20.6582 24.646 20.6458 24.6535 20.6332 24.6608C20.6208 24.668 20.6082 24.675 20.5957 24.6821L20.5582 24.7031L20.5206 24.7234L20.4831 24.7432C20.4706 24.7497 20.4582 24.7562 20.4456 24.7626C20.4332 24.769 20.4206 24.7751 20.4081 24.7813C20.3956 24.7875 20.3832 24.7938 20.3706 24.7999C20.3581 24.8058 20.3455 24.8115 20.333 24.8174C20.3205 24.8233 20.3081 24.8292 20.2955 24.8349C20.2831 24.8406 20.2705 24.8461 20.258 24.8516L20.2205 24.868L20.1829 24.8839L20.1454 24.8993C20.1329 24.9043 20.1204 24.9095 20.1079 24.9145C20.0955 24.9194 20.0829 24.9239 20.0704 24.9287C20.0579 24.9335 20.0454 24.9383 20.0328 24.943C20.0204 24.9476 20.0079 24.952 19.9953 24.9565L19.9578 24.9697L19.9203 24.9825C19.9078 24.9867 19.8953 24.9907 19.8828 24.9947C19.8702 24.9988 19.8578 25.003 19.8452 25.0069C19.8328 25.0108 19.8202 25.0144 19.8077 25.0182L19.7702 25.0293L19.7327 25.04C19.7202 25.0435 19.7077 25.0468 19.6951 25.0501C19.6826 25.0535 19.6702 25.0571 19.6576 25.0603C19.6452 25.0635 19.6326 25.0664 19.6201 25.0695C19.6076 25.0725 19.5951 25.0757 19.5826 25.0786L19.5451 25.0873L19.5075 25.0954C19.495 25.0981 19.4826 25.101 19.47 25.1036C19.4576 25.1062 19.445 25.1084 19.4325 25.1108L19.395 25.118L19.3575 25.1248C19.345 25.1269 19.3325 25.1289 19.3199 25.131C19.3074 25.133 19.295 25.1353 19.2824 25.1372C19.2699 25.1391 19.2574 25.1408 19.2449 25.1426L19.2074 25.1478C19.1949 25.1495 19.1824 25.1512 19.1698 25.1528C19.1574 25.1544 19.1448 25.1557 19.1323 25.1571C19.1198 25.1585 19.1074 25.1601 19.0948 25.1614C19.0823 25.1627 19.0698 25.1638 19.0573 25.165L19.0198 25.1684C19.0072 25.1694 18.9948 25.1707 18.9822 25.1716C18.9698 25.1726 18.9572 25.1732 18.9447 25.174L18.9072 25.1764L18.8697 25.1784C18.8572 25.179 18.8446 25.1793 18.8321 25.1798C18.8196 25.1803 18.8071 25.1809 18.7946 25.1812C18.7821 25.1816 18.7696 25.1817 18.7571 25.182L18.7196 25.1825C18.7079 25.1825 18.6963 25.1829 18.6845 25.1829H18.6821H18.6445H18.607H18.5695H18.532H18.4945H18.4569H18.4194H18.3819H18.3444H18.3068H18.2693H18.2318H18.1943H18.1568H18.1192H18.0817H18.0442H18.0067H17.9691H17.9316H17.8941H17.8566H17.8191H17.7815H17.744H17.7065H17.6689H17.6314H17.5939H17.5564H17.5189H17.4813H17.4438H17.4063H17.3688H17.3312H17.2937H17.2562H17.2187H17.1812H17.1436H17.1061H17.0686H17.0311H16.9935H16.956H16.9185H16.881H16.8435H16.8059H16.7684H16.7309H16.6934H16.6558H16.6183H16.5808H16.5433H16.5057H16.4682H16.4307H16.3932H16.3556H16.3181H16.2806H16.2431H16.2056H16.168H16.1305H16.093H16.0555H16.0179H15.9804H15.9429H15.9054H15.8678H15.8303H15.7928H15.7553H15.7178H15.6802H15.6427H15.6052H15.5677H15.5302H15.4926H15.4551H15.4176H15.3801H15.3425H15.305H15.2675H15.23H15.1925H15.1549H15.1174H15.0799H15.0424H15.0048H14.9673H14.9298H14.8923H14.8548H14.8172H14.7797H14.7422H14.7047H14.6672H14.6296H14.5921H14.5546H14.5171H14.4795H14.442H14.4045H14.367H14.3295H14.2919H14.2544H14.2169H14.1794H14.1418H14.1043H14.0668H14.0293H13.9918H13.9542H13.9167H13.8792H13.8417H13.8042H13.7666H13.7291H13.6916H13.6541H13.6165H13.579H13.5415H13.504H13.4665H13.4289H13.3914H13.3539H13.3164H13.2788H13.2413H13.2038H13.1663H13.1288H13.0912H13.0537H12.9731V16.1916C12.9994 16.2141 13.0264 16.2364 13.0537 16.2585C13.0661 16.2685 13.0786 16.2785 13.0912 16.2884C13.1036 16.2982 13.1161 16.308 13.1288 16.3176C13.1412 16.3272 13.1536 16.3367 13.1663 16.3462C13.1787 16.3554 13.1912 16.3646 13.2038 16.3737C13.2162 16.3828 13.2288 16.3918 13.2413 16.4007C13.2538 16.4095 13.2662 16.4183 13.2788 16.4271L13.3164 16.4528C13.3288 16.4612 13.3413 16.4695 13.3539 16.4778L13.3914 16.5023C13.4038 16.5103 13.4163 16.5183 13.4289 16.5262C13.4413 16.534 13.4539 16.5418 13.4665 16.5495L13.504 16.5723C13.5165 16.5798 13.5289 16.5873 13.5415 16.5947C13.5539 16.6019 13.5665 16.6091 13.579 16.6163L13.6165 16.6376L13.6541 16.6584L13.6916 16.6787C13.7041 16.6854 13.7165 16.6921 13.7291 16.6987C13.7415 16.7053 13.7541 16.7116 13.7666 16.7181L13.8042 16.7371L13.8417 16.7558L13.8792 16.7739C13.8917 16.7799 13.9041 16.7859 13.9167 16.7919L13.9542 16.8092L13.9918 16.8263L14.0293 16.8429L14.0668 16.8593L14.1043 16.8753L14.1418 16.891L14.1794 16.9064L14.2169 16.9213L14.2544 16.9362L14.2919 16.9504C14.3044 16.9552 14.3168 16.96 14.3295 16.9646L14.367 16.9783C14.3795 16.9829 14.3919 16.9875 14.4045 16.992C14.4169 16.9964 14.4295 17.0007 14.442 17.005L14.4795 17.0181L14.5171 17.0307C14.5295 17.0348 14.5419 17.0391 14.5546 17.0432C14.567 17.0473 14.5796 17.0512 14.5921 17.0553L14.6296 17.0673L14.6672 17.0788L14.7047 17.0903L14.7422 17.1014L14.7797 17.1123L14.8172 17.123L14.8548 17.1335L14.8923 17.1437L14.9298 17.1537L14.9673 17.1635L15.0048 17.1731L15.0424 17.1825L15.0799 17.1916L15.1174 17.2007L15.1549 17.2094L15.1925 17.218L15.23 17.2263L15.2675 17.2345L15.305 17.2426L15.3425 17.2503L15.3801 17.2581L15.4176 17.2654L15.4551 17.2727L15.4926 17.2798L15.5302 17.2868L15.5677 17.2936L15.6052 17.3001L15.6427 17.3066L15.6802 17.3129L15.7178 17.319L15.7553 17.325L15.7928 17.3307L15.8303 17.3364L15.8678 17.3419L15.9054 17.3472L15.9429 17.3525L15.9804 17.3575L16.0179 17.3625L16.0555 17.3673L16.093 17.3718L16.1305 17.3764L16.168 17.3807L16.2056 17.3849L16.2431 17.3892L16.2806 17.393L16.3181 17.3969L16.3556 17.4006L16.3932 17.4041L16.4307 17.4077L16.4682 17.411L16.5057 17.4141L16.5433 17.4173L16.5808 17.4202L16.6183 17.423L16.6558 17.4259L16.6934 17.4284L16.7309 17.431L16.7684 17.4335L16.8059 17.4356L16.8435 17.4378L16.881 17.44L16.9185 17.4418L16.956 17.4437L16.9935 17.4455L17.0311 17.447L17.0686 17.4486L17.1061 17.4501L17.1436 17.4513L17.1812 17.4526L17.2187 17.4538L17.2562 17.4547L17.2937 17.4557L17.3312 17.4566L17.3688 17.4573L17.4063 17.4579L17.4438 17.4585L17.4813 17.4589L17.5189 17.4592L17.5564 17.4596L17.5939 17.4597L17.6314 17.4598L17.6689 17.4599L17.7065 17.4598L17.744 17.4596L17.7815 17.4593L17.8191 17.459L17.8566 17.4585L17.8941 17.458L17.9316 17.4575L17.9691 17.4568L18.0067 17.456L18.0442 17.4552L18.0817 17.4543L18.1192 17.4532L18.1568 17.4522L18.1943 17.4511L18.2318 17.4497L18.2693 17.4485L18.3068 17.4472L18.3444 17.4456L18.3819 17.444L18.4194 17.4425L18.4377 17.4417L18.4569 17.4408L18.4945 17.439L18.532 17.437L18.5695 17.4349L18.607 17.4326L18.6445 17.4303L18.6821 17.4278L18.7196 17.4253L18.7571 17.4225L18.7946 17.4197L18.8321 17.4167L18.8697 17.4136L18.9072 17.4104L18.9447 17.4071L18.9822 17.4037L19.0198 17.4002L19.0573 17.3966L19.0948 17.3928L19.1323 17.3891L19.1698 17.3851L19.2074 17.3811L19.2449 17.3769L19.2824 17.3727L19.3199 17.3683L19.3575 17.3639L19.395 17.3594L19.4325 17.3548L19.47 17.3501L19.5075 17.3453L19.5451 17.3405L19.5826 17.3354L19.6201 17.3304L19.6576 17.3253L19.6951 17.32L19.7327 17.3147L19.7702 17.3093L19.8077 17.3039L19.8452 17.2982L19.8828 17.2926L19.9203 17.2869L19.9578 17.2811L19.9953 17.2752L20.0328 17.2692L20.0704 17.2632L20.1079 17.2571L20.1454 17.2509L20.1829 17.2446L20.2205 17.2382L20.258 17.2318L20.2955 17.2253L20.333 17.2187L20.3706 17.2121L20.4081 17.2053L20.4456 17.1986L20.4831 17.1917L20.5206 17.1848L20.5582 17.1777L20.5957 17.1706L20.6332 17.1634L20.6707 17.1562L20.7083 17.1489L20.7458 17.1415L20.7833 17.1341L20.8208 17.1265L20.8583 17.1189L20.8959 17.1112L20.9334 17.1034L20.9709 17.0956L21.0084 17.0877L21.046 17.0797L21.0835 17.0717L21.121 17.0635L21.1585 17.0553L21.196 17.047L21.2336 17.0386L21.2711 17.0301L21.3086 17.0215L21.3462 17.0128L21.3837 17.004L21.4212 16.9951L21.4587 16.986L21.496 16.9768V15.3295L21.4587 15.3481L21.4212 15.3666L21.3837 15.385L21.3462 15.4031L21.3086 15.4212L21.2711 15.4391L21.2336 15.4567L21.196 15.4742L21.1585 15.4915L21.121 15.5086L21.0835 15.5255L21.046 15.5423L21.0084 15.5588L20.9709 15.5751L20.9334 15.5913L20.8959 15.6073L20.8583 15.623L20.8208 15.6386L20.7833 15.6539L20.7458 15.6691L20.7083 15.684L20.6707 15.6988L20.6332 15.7133L20.5957 15.7276L20.5582 15.7417L20.5206 15.7556L20.4831 15.7693L20.4456 15.7827L20.4081 15.796L20.3706 15.8091L20.333 15.8219L20.2955 15.8345L20.258 15.8469L20.2205 15.8591L20.1829 15.8711L20.1454 15.8829L20.1079 15.8944L20.0704 15.9057L20.0328 15.9169L19.9953 15.9278L19.9578 15.9385L19.9203 15.9489L19.8828 15.9592L19.8452 15.9693L19.8077 15.9791L19.7702 15.9888L19.7327 15.9982L19.6951 16.0074L19.6576 16.0164L19.6201 16.0252L19.5826 16.0337L19.5451 16.0421L19.5075 16.0503L19.47 16.0582L19.4325 16.0659L19.395 16.0734L19.3575 16.0808L19.3199 16.0879L19.2824 16.0947L19.2449 16.1014L19.2074 16.108L19.1698 16.1142L19.1323 16.1203L19.0948 16.1262L19.0573 16.1318L19.0198 16.1373L18.9822 16.1426L18.9447 16.1476L18.9072 16.1524L18.8697 16.1571L18.8321 16.1616L18.7946 16.1658L18.7571 16.1699L18.7196 16.1738L18.6821 16.1774L18.6445 16.1809L18.607 16.1842L18.5695 16.1872L18.5467 16.189L18.532 16.19L18.4945 16.1926L18.4569 16.1951L18.4194 16.1971L18.3819 16.199L18.3444 16.2007L18.3068 16.2019L18.2693 16.2032L18.2318 16.204L18.1943 16.2045L18.1568 16.205C18.1442 16.2051 18.1317 16.2049 18.1192 16.2049L18.0817 16.2047L18.0442 16.2042L18.0067 16.2034L17.9691 16.2024C17.9565 16.202 17.9441 16.2014 17.9316 16.2009C17.9191 16.2004 17.9065 16.2 17.8941 16.1994L17.8566 16.1973L17.8191 16.195L17.7815 16.1924L17.744 16.1894C17.7315 16.1884 17.7189 16.1875 17.7065 16.1864C17.6939 16.1852 17.6815 16.1839 17.6689 16.1826L17.6314 16.1789L17.5939 16.1745L17.5564 16.1699L17.5189 16.165L17.4813 16.1597C17.4688 16.1578 17.4562 16.1561 17.4438 16.1541C17.4312 16.1521 17.4188 16.15 17.4063 16.1479C17.3938 16.1458 17.3812 16.1439 17.3688 16.1417C17.3562 16.1394 17.3438 16.137 17.3312 16.1346C17.3187 16.1323 17.3061 16.1301 17.2937 16.1276C17.2811 16.1251 17.2687 16.1224 17.2562 16.1198C17.2437 16.1171 17.2311 16.1146 17.2187 16.1119C17.2061 16.1091 17.1936 16.1061 17.1812 16.1033L17.1436 16.0944C17.131 16.0914 17.1186 16.0881 17.1061 16.085C17.0936 16.0818 17.081 16.0786 17.0686 16.0752C17.056 16.0719 17.0435 16.0684 17.0311 16.0649C17.0185 16.0613 17.006 16.0578 16.9935 16.0542C16.9809 16.0504 16.9685 16.0466 16.956 16.0428C16.9435 16.0389 16.9309 16.0351 16.9185 16.0311C16.9059 16.027 16.8934 16.0228 16.881 16.0187C16.8685 16.0145 16.8559 16.0103 16.8435 16.0059C16.8308 16.0015 16.8184 15.997 16.8059 15.9924C16.7934 15.9878 16.7808 15.9833 16.7684 15.9786C16.7558 15.9738 16.7434 15.9688 16.7309 15.9639C16.7184 15.9589 16.7058 15.954 16.6934 15.9489C16.6807 15.9437 16.6683 15.9383 16.6558 15.9329C16.6433 15.9275 16.6307 15.9222 16.6183 15.9167C16.6057 15.911 16.5932 15.9052 16.5808 15.8994C16.5682 15.8935 16.5557 15.8877 16.5433 15.8817C16.5307 15.8756 16.5182 15.8694 16.5057 15.8631C16.4932 15.8568 16.4807 15.8503 16.4682 15.8438C16.4557 15.8372 16.4431 15.8307 16.4307 15.824C16.418 15.8171 16.4056 15.81 16.3932 15.8029C16.3806 15.7958 16.368 15.7887 16.3556 15.7813C16.343 15.7739 16.3306 15.7663 16.3181 15.7587C16.3055 15.751 16.2931 15.7431 16.2806 15.7351C16.2681 15.7271 16.2554 15.7192 16.2431 15.711C16.2304 15.7026 16.218 15.6939 16.2056 15.6852C16.193 15.6765 16.1804 15.6677 16.168 15.6587C16.1555 15.6497 16.1429 15.6406 16.1305 15.6313C16.1179 15.6218 16.1054 15.612 16.093 15.6023C16.0804 15.5924 16.0679 15.5824 16.0555 15.5723C16.0429 15.562 16.0303 15.5517 16.0179 15.5412C16.0053 15.5303 15.9928 15.5193 15.9804 15.5082C15.9678 15.4969 15.9553 15.4854 15.9429 15.4738C15.9303 15.462 15.9177 15.4501 15.9054 15.438C15.8928 15.4257 15.8802 15.4134 15.8678 15.4007C15.8551 15.3877 15.8427 15.3744 15.8303 15.3611C15.8176 15.3474 15.8052 15.3336 15.7928 15.3196C15.7801 15.3052 15.7676 15.2906 15.7553 15.2759C15.7426 15.2608 15.7301 15.2455 15.7178 15.23C15.7051 15.214 15.6925 15.1978 15.6802 15.1814C15.6675 15.1645 15.655 15.1474 15.6427 15.13C15.63 15.112 15.6174 15.0937 15.6052 15.0753C15.5924 15.056 15.5799 15.0365 15.5677 15.0168C15.5549 14.9961 15.5424 14.9751 15.5302 14.954C15.5173 14.9317 15.5048 14.9091 15.4926 14.8862C15.4797 14.862 15.4673 14.8375 15.4551 14.8127C15.4422 14.7863 15.4297 14.7595 15.4176 14.7324C15.4046 14.7033 15.392 14.6739 15.3801 14.6439C15.3668 14.6109 15.3545 14.5772 15.3425 14.5432C15.3293 14.5054 15.3168 14.4672 15.305 14.4284C15.2915 14.3833 15.2789 14.3375 15.2675 14.2909C15.2533 14.2329 15.2409 14.1737 15.23 14.1133C15.2138 14.0239 15.2012 13.932 15.1925 13.8376C15.1824 13.7286 15.1772 13.6163 15.1772 13.5008C15.1772 13.3852 15.1824 13.2728 15.1925 13.1637C15.2012 13.0693 15.2138 12.9774 15.23 12.8879C15.2409 12.8276 15.2533 12.7683 15.2675 12.7102C15.2789 12.6636 15.2915 12.6178 15.305 12.5727C15.3168 12.5338 15.3293 12.4956 15.3425 12.4578C15.3545 12.4238 15.3668 12.3901 15.3801 12.357C15.392 12.3271 15.4046 12.2977 15.4176 12.2685C15.4297 12.2414 15.4422 12.2146 15.4551 12.1882C15.4673 12.1634 15.4797 12.1388 15.4926 12.1146C15.5048 12.0918 15.5173 12.0692 15.5302 12.0468C15.5424 12.0257 15.5549 12.0047 15.5677 11.984C15.5799 11.9643 15.5924 11.9448 15.6052 11.9255C15.6174 11.907 15.63 11.8888 15.6427 11.8707C15.655 11.8534 15.6675 11.8363 15.6802 11.8193C15.6925 11.8029 15.7051 11.7867 15.7178 11.7707C15.7301 11.7552 15.7426 11.7399 15.7553 11.7248C15.7676 11.71 15.7801 11.6955 15.7928 11.6811C15.8052 11.6671 15.8176 11.6532 15.8303 11.6395C15.8427 11.6262 15.8551 11.6129 15.8678 11.5998C15.8802 11.5872 15.8928 11.5748 15.9054 11.5625C15.9177 11.5505 15.9303 11.5386 15.9429 11.5267C15.9553 11.5152 15.9678 11.5037 15.9804 11.4924C15.9928 11.4813 16.0053 11.4702 16.0179 11.4594C16.0303 11.4488 16.0429 11.4386 16.0555 11.4282C16.0679 11.4181 16.0804 11.4081 16.093 11.3982C16.1054 11.3884 16.1179 11.3787 16.1305 11.3691C16.1429 11.3599 16.1555 11.3508 16.168 11.3417C16.1804 11.3328 16.193 11.324 16.2056 11.3152C16.218 11.3066 16.2304 11.2979 16.2431 11.2895C16.2554 11.2813 16.2681 11.2733 16.2806 11.2653C16.2931 11.2573 16.3055 11.2495 16.3181 11.2417C16.3306 11.2341 16.343 11.2265 16.3556 11.2191C16.368 11.2118 16.3806 11.2047 16.3932 11.1975C16.4056 11.1905 16.418 11.1833 16.4307 11.1765C16.4431 11.1697 16.4557 11.1632 16.4682 11.1566C16.4807 11.1501 16.4932 11.1436 16.5057 11.1373C16.5182 11.131 16.5307 11.1248 16.5433 11.1187C16.5557 11.1127 16.5682 11.1068 16.5808 11.101C16.5932 11.0952 16.6057 11.0893 16.6183 11.0837C16.6307 11.0781 16.6433 11.0728 16.6558 11.0674C16.6683 11.062 16.6807 11.0566 16.6934 11.0514C16.7058 11.0463 16.7184 11.0414 16.7309 11.0365C16.7434 11.0315 16.7558 11.0265 16.7684 11.0217C16.7808 11.017 16.7934 11.0125 16.8059 11.0079C16.8184 11.0034 16.8308 10.9988 16.8435 10.9944C16.8559 10.99 16.8685 10.9858 16.881 10.9816C16.8934 10.9775 16.9059 10.9733 16.9185 10.9692C16.9309 10.9652 16.9435 10.9614 16.956 10.9575C16.9685 10.9537 16.9809 10.9499 16.9935 10.9462L17.0311 10.9355C17.0435 10.932 17.056 10.9284 17.0686 10.9251C17.081 10.9217 17.0936 10.9185 17.1061 10.9153C17.1186 10.9122 17.131 10.9089 17.1436 10.9059L17.1812 10.8971C17.1936 10.8942 17.2061 10.8912 17.2187 10.8884C17.2311 10.8857 17.2437 10.8831 17.2562 10.8805C17.2687 10.8779 17.2811 10.8752 17.2937 10.8727C17.3061 10.8702 17.3187 10.868 17.3312 10.8656C17.3438 10.8633 17.3562 10.8609 17.3688 10.8586C17.3812 10.8564 17.3938 10.8545 17.4063 10.8524C17.4188 10.8503 17.4312 10.8481 17.4438 10.8462L17.4813 10.8406L17.5189 10.8352L17.5564 10.8303L17.5939 10.8257L17.6314 10.8214L17.6689 10.8176C17.6815 10.8164 17.6939 10.815 17.7065 10.8138C17.7189 10.8127 17.7315 10.8118 17.744 10.8108L17.7815 10.8078L17.8191 10.8052L17.8566 10.803L17.8941 10.8009C17.9065 10.8003 17.9191 10.7999 17.9316 10.7994C17.9441 10.7989 17.9565 10.7982 17.9691 10.7978L18.0067 10.7969L18.0442 10.7961L18.0817 10.7955L18.1192 10.7954C18.1317 10.7953 18.1442 10.7952 18.1568 10.7952L18.1943 10.7957L18.2318 10.7963L18.2693 10.7971L18.3068 10.7983L18.3444 10.7995L18.3819 10.8013L18.4194 10.8032L18.4569 10.8052L18.4945 10.8077L18.532 10.8102L18.5467 10.8112L18.5695 10.813L18.607 10.816L18.6445 10.8192L18.6821 10.8227L18.7196 10.8262L18.7571 10.8301L18.7946 10.8341L18.8321 10.8383L18.8697 10.8427L18.9072 10.8473L18.9447 10.852L18.9822 10.857L19.0198 10.8623L19.0573 10.8676L19.0948 10.8732L19.1323 10.879L19.1698 10.885L19.2074 10.8912L19.2449 10.8976L19.2824 10.9043L19.3199 10.9111L19.3575 10.9181L19.395 10.9254L19.4325 10.9328L19.47 10.9405L19.5075 10.9484L19.5451 10.9565L19.5826 10.9648L19.6201 10.9733L19.6576 10.982L19.6951 10.9909L19.7327 11.0001L19.7702 11.0095L19.8077 11.019L19.8452 11.0289L19.8828 11.0389L19.9203 11.0491L19.9578 11.0596L19.9953 11.0702L20.0328 11.0811L20.0704 11.0923L20.1079 11.1036L20.1454 11.1151L20.1829 11.1269L20.2205 11.1389L20.258 11.1511L20.2955 11.1635L20.333 11.1762L20.3706 11.189L20.4081 11.202L20.4456 11.2154L20.4831 11.2289L20.5206 11.2426L20.5582 11.2566L20.5957 11.2707L20.6332 11.2851L20.6707 11.2997L20.7083 11.3145L20.7458 11.3295L20.7833 11.3448L20.8208 11.3602L20.8583 11.3759L20.8959 11.3917L20.9334 11.4078L20.9709 11.4241L21.0084 11.4405L21.046 11.4572L21.0835 11.4741L21.121 11.4911L21.1585 11.5084L21.196 11.5258L21.2336 11.5435L21.2711 11.5613L21.3086 11.5793L21.3462 11.5975L21.3837 11.6159L21.4212 11.6344L21.4587 11.6532L21.496 11.6719V10.0234L21.4587 10.0142L21.4212 10.0052L21.3837 9.99626L21.3462 9.98745L21.3086 9.97875L21.2711 9.97019L21.2336 9.96168L21.196 9.95327L21.1585 9.94498L21.121 9.93673L21.0835 9.9286L21.046 9.92056L21.0084 9.91252L20.9709 9.90464L20.9334 9.89682L20.8959 9.88906L20.8583 9.88137L20.8208 9.87377L20.7833 9.86623L20.7458 9.85878L20.7083 9.85143L20.6707 9.84408L20.6332 9.83685L20.5957 9.82969L20.5582 9.82262L20.5206 9.81561L20.4831 9.80866L20.4456 9.8018L20.4081 9.79501L20.3706 9.78828L20.333 9.78165L20.2955 9.77508L20.258 9.76856L20.2205 9.76218L20.1829 9.75582L20.1454 9.74956L20.1079 9.74336L20.0704 9.73726L20.0328 9.73124L19.9953 9.72526L19.9578 9.71941L19.9203 9.71358L19.8828 9.70788L19.8452 9.70224L19.8077 9.69666L19.7702 9.69121L19.7327 9.68582L19.6951 9.68053L19.6576 9.67532L19.6201 9.67018L19.5826 9.66514L19.5451 9.66015L19.5075 9.65532L19.47 9.65053L19.4325 9.64582L19.395 9.64121L19.3575 9.63672L19.3199 9.63233L19.2824 9.628L19.2449 9.6238L19.2074 9.61965L19.1698 9.61567L19.1323 9.61171L19.0948 9.60794L19.0573 9.6042L19.0198 9.60059L18.9822 9.59707L18.9447 9.5937L18.9072 9.5904L18.8697 9.58722L18.8321 9.58417L18.7946 9.58121L18.7571 9.57844L18.7196 9.57567L18.6821 9.57314L18.6445 9.57062L18.607 9.56834L18.5695 9.5661L18.532 9.56405L18.4945 9.56208L18.4569 9.56028L18.4377 9.55937L18.4194 9.55859L18.3819 9.55704L18.3444 9.55548L18.3068 9.55392L18.2693 9.55261L18.2318 9.55133L18.1943 9.55003L18.1568 9.5489L18.1192 9.54785L18.0817 9.54682L18.0442 9.54585L18.0067 9.54507L17.9691 9.54432L17.9316 9.54355L17.8941 9.54305L17.8566 9.54255L17.8191 9.54205L17.7815 9.54174L17.744 9.54155L17.7065 9.54133L17.6689 9.54124L17.6314 9.5413L17.5939 9.54137L17.5564 9.54149L17.5189 9.54183L17.4813 9.54221L17.4438 9.54258L17.4063 9.54323L17.3688 9.54386L17.3312 9.54451L17.2937 9.54545L17.2562 9.54638L17.2187 9.54732L17.1812 9.54853L17.1436 9.54978L17.1061 9.55102L17.0686 9.55255L17.0311 9.55411L16.9935 9.55563L16.956 9.55747L16.9185 9.55934L16.881 9.56118L16.8435 9.56333L16.8059 9.56551L16.7684 9.56769L16.7309 9.57018L16.6934 9.57271L16.6558 9.57523L16.6183 9.57809L16.5808 9.58093L16.5433 9.58386L16.5057 9.58704L16.4682 9.59018L16.4307 9.59352L16.3932 9.59704L16.3556 9.60056L16.3181 9.60429L16.2806 9.60819L16.2431 9.61205L16.2056 9.61626L16.168 9.62046L16.1305 9.62476L16.093 9.62937L16.0555 9.63395L16.0179 9.63878L15.9804 9.64373L15.9429 9.64869L15.9054 9.65398L15.8678 9.65931L15.8303 9.66479L15.7928 9.67053L15.7553 9.67623L15.7178 9.68227L15.6802 9.68841L15.6427 9.69467L15.6052 9.70115L15.5677 9.70766L15.5302 9.71451L15.4926 9.72146L15.4551 9.72856L15.4176 9.73589L15.3801 9.74324L15.3425 9.75099L15.305 9.75875L15.2675 9.76679L15.23 9.77498L15.1925 9.78333L15.1549 9.79196L15.1174 9.80062L15.0799 9.80972L15.0424 9.81881L15.0048 9.82825L14.9673 9.83782L14.9298 9.84766L14.8923 9.85769L14.8548 9.86791L14.8172 9.87841L14.7797 9.88906L14.7422 9.90006L14.7047 9.91112L14.6672 9.92262L14.6296 9.93417L14.5921 9.9462C14.5796 9.95022 14.567 9.95414 14.5546 9.95822L14.5171 9.97078C14.5046 9.97495 14.4919 9.97906 14.4795 9.98333L14.442 9.99642L14.4045 10.0095C14.3919 10.014 14.3795 10.0186 14.367 10.0232C14.3544 10.0277 14.3419 10.0322 14.3295 10.0369L14.2919 10.0511C14.2794 10.0559 14.2668 10.0605 14.2544 10.0654L14.2169 10.0802L14.1794 10.0951L14.1418 10.1106L14.1043 10.1262L14.0668 10.1422L14.0293 10.1586L13.9918 10.1752L13.9542 10.1924L13.9167 10.2097C13.9041 10.2156 13.8917 10.2217 13.8792 10.2277L13.8417 10.2458L13.8042 10.2645L13.7666 10.2836C13.7541 10.29 13.7415 10.2964 13.7291 10.3029C13.7165 10.3095 13.7041 10.3162 13.6916 10.3229L13.6541 10.3432L13.6165 10.364C13.6039 10.3711 13.5915 10.3782 13.579 10.3854C13.5665 10.3926 13.5539 10.3998 13.5415 10.407C13.5289 10.4144 13.5165 10.4219 13.504 10.4294C13.4914 10.437 13.4789 10.4446 13.4665 10.4522C13.4539 10.46 13.4413 10.4677 13.4289 10.4755C13.4163 10.4834 13.4038 10.4915 13.3914 10.4995L13.3539 10.524C13.3413 10.5323 13.3288 10.5406 13.3164 10.549L13.2788 10.5747C13.2662 10.5835 13.2538 10.5923 13.2413 10.6011C13.2288 10.61 13.2162 10.619 13.2038 10.6281C13.1912 10.6373 13.1787 10.6464 13.1663 10.6556C13.1536 10.6651 13.1412 10.6747 13.1288 10.6842C13.1161 10.6939 13.1036 10.7037 13.0912 10.7134C13.0786 10.7233 13.0661 10.7333 13.0537 10.7433V10.7433Z" fill="url(#paint2_linear)"/>
</g>
<defs>
<linearGradient id="paint0_linear" x1="23.7451" y1="13.5" x2="33.3514" y2="13.5" gradientUnits="userSpaceOnUse">
<stop stop-color="#007B40"/>
<stop offset="1" stop-color="#55B330"/>
</linearGradient>
<linearGradient id="paint1_linear" x1="2.19873" y1="13.5" x2="11.8039" y2="13.5" gradientUnits="userSpaceOnUse">
<stop stop-color="#1D2970"/>
<stop offset="1" stop-color="#006DBA"/>
</linearGradient>
<linearGradient id="paint2_linear" x1="12.9731" y1="13.5002" x2="22.5787" y2="13.5002" gradientUnits="userSpaceOnUse">
<stop stop-color="#6E2B2F"/>
<stop offset="1" stop-color="#E30138"/>
</linearGradient>
<clipPath id="clip0">
<rect x="0.251953" width="35.0465" height="27" fill="white"/>
</clipPath>
</defs>
</svg>
