<svg width="42" height="27" viewBox="0 0 42 27" fill="none" xmlns="http://www.w3.org/2000/svg">
<path d="M26.226 4.70404H15.457V22.2929H26.226V4.70404Z" fill="#FF5F00"/>
<path d="M16.5663 13.5C16.565 11.8064 16.9489 10.1346 17.689 8.61123C18.4292 7.08787 19.5062 5.75283 20.8384 4.70714C19.1883 3.41034 17.2067 2.60393 15.12 2.38009C13.0332 2.15625 10.9256 2.524 9.03802 3.44132C7.15042 4.35863 5.55896 5.7885 4.44555 7.5675C3.33215 9.3465 2.7417 11.4029 2.7417 13.5016C2.7417 15.6003 3.33215 17.6566 4.44555 19.4356C5.55896 21.2146 7.15042 22.6445 9.03802 23.5618C10.9256 24.4791 13.0332 24.8469 15.12 24.623C17.2067 24.3992 19.1883 23.5928 20.8384 22.296C19.5057 21.25 18.4285 19.9144 17.6884 18.3905C16.9482 16.8666 16.5645 15.1942 16.5663 13.5Z" fill="#EB001B"/>
<path d="M37.8687 20.4317V20.0713H38.024V19.9968H37.6543V20.0713H37.8003V20.4317H37.8687ZM38.5864 20.4317V19.9968H38.4745L38.3441 20.3075L38.2136 19.9968H38.1017V20.4317H38.1825V20.1024L38.3037 20.3851H38.3876L38.5087 20.1024V20.4317H38.5864Z" fill="#F79E1B"/>
<path d="M38.9372 13.5001C38.9372 15.5989 38.3466 17.6554 37.233 19.4345C36.1194 21.2135 34.5277 22.6434 32.6399 23.5606C30.752 24.4778 28.6442 24.8453 26.5574 24.6211C24.4705 24.3969 22.4888 23.5901 20.8389 22.2929C22.1706 21.2463 23.2473 19.9109 23.9876 18.3875C24.728 16.864 25.1127 15.1923 25.1127 13.4985C25.1127 11.8047 24.728 10.133 23.9876 8.60957C23.2473 7.08613 22.1706 5.75072 20.8389 4.7041C22.4888 3.40689 24.4705 2.6001 26.5574 2.37593C28.6442 2.15177 30.752 2.51929 32.6399 3.43647C34.5277 4.35365 36.1194 5.7835 37.233 7.56256C38.3466 9.34162 38.9372 11.3981 38.9372 13.497V13.5001Z" fill="#F79E1B"/>
</svg>
