<svg width="84" height="27" viewBox="0 0 84 27" fill="none" xmlns="http://www.w3.org/2000/svg">
<g clip-path="url(#clip0)">
<path d="M36.4356 26.6105H29.7178L33.9196 0.473816H40.637L36.4356 26.6105Z" fill="#00579F"/>
<path d="M60.7883 1.11274C59.4633 0.583904 57.3616 0 54.763 0C48.1289 0 43.4573 3.55886 43.4286 8.64695C43.3735 12.4009 46.7734 14.486 49.3162 15.7377C51.9152 17.0167 52.7987 17.8516 52.7987 18.9917C52.7723 20.7426 50.6986 21.5497 48.7644 21.5497C46.0824 21.5497 44.6453 21.1336 42.4614 20.1595L41.5768 19.7419L40.6367 25.609C42.2123 26.3311 45.1151 26.9719 48.1289 27C55.1777 27 59.7667 23.4962 59.8211 18.074C59.8479 15.0987 58.0526 12.8189 54.1822 10.956C51.8326 9.76006 50.3937 8.95368 50.3937 7.73007C50.4212 6.6177 51.6107 5.47835 54.263 5.47835C56.4469 5.42254 58.0515 5.95064 59.2671 6.47912L59.8747 6.75665L60.7883 1.11274Z" fill="#00579F"/>
<path d="M69.7168 17.3512C70.27 15.8497 72.3988 10.0384 72.3988 10.0384C72.3709 10.0942 72.951 8.50914 73.2827 7.5361L73.7522 9.78819C73.7522 9.78819 75.0243 16.0445 75.3005 17.3512C74.2506 17.3512 71.0437 17.3512 69.7168 17.3512ZM78.009 0.473816H72.8128C71.2104 0.473816 69.993 0.946113 69.3017 2.64239L59.3232 26.6102H66.372C66.372 26.6102 67.5325 23.3843 67.7819 22.6895C68.5552 22.6895 75.4122 22.6895 76.407 22.6895C76.5999 23.6071 77.2086 26.6102 77.2086 26.6102H83.4286L78.009 0.473816Z" fill="#00579F"/>
<path d="M24.1066 0.473816L17.5277 18.2966L16.8088 14.6819C15.5925 10.511 11.7779 5.97951 7.521 3.72631L13.5471 26.5828H20.6509L31.2102 0.473816H24.1066Z" fill="#00579F"/>
<path d="M11.4189 0.473816H0.610573L0.5 1.00192C8.93113 3.17086 14.5149 8.39902 16.809 14.683L14.4594 2.67085C14.0726 1.00155 12.8839 0.52888 11.4189 0.473816Z" fill="#FAA61A"/>
</g>
<defs>
<clipPath id="clip0">
<rect x="0.5" width="82.9286" height="27" fill="white"/>
</clipPath>
</defs>
</svg>
