<?xml version="1.0" standalone="no"?>
<!DOCTYPE svg PUBLIC "-//W3C//DTD SVG 20010904//EN"
 "http://www.w3.org/TR/2001/REC-SVG-20010904/DTD/svg10.dtd">
<svg version="1.0" xmlns="http://www.w3.org/2000/svg"
 width="700.000000pt" height="700.000000pt" viewBox="0 0 700.000000 700.000000"
 preserveAspectRatio="xMidYMid meet">
<metadata>
Created by potrace 1.11, written by Peter Selinger 2001-2013
</metadata>
<g transform="translate(0.000000,700.000000) scale(0.100000,-0.100000)"
fill="#000000" stroke="none">
<path d="M1510 6744 c-90 -39 -122 -145 -69 -230 28 -46 75 -69 147 -73 13 -1
12 -40 -3 -276 -8 -129 -14 -223 -20 -330 -8 -134 -13 -186 -17 -190 -1 -2
-37 5 -78 16 -159 40 -230 48 -432 45 l-178 -2 0 29 c0 44 -43 112 -84 131
-74 35 -165 7 -205 -64 -56 -99 16 -230 127 -232 67 -1 152 56 152 102 0 17
29 5 158 -61 165 -85 245 -142 352 -249 98 -98 180 -212 243 -335 51 -103 88
-198 80 -206 -5 -3 -43 -30 -87 -59 -258 -172 -431 -387 -443 -553 -16 -202
151 -347 462 -402 22 -4 114 -8 205 -10 166 -3 304 10 414 39 l55 14 -19 -47
c-103 -258 -235 -542 -330 -706 -82 -143 -160 -265 -169 -265 -11 0 -158 113
-361 275 -363 292 -597 419 -825 452 -79 12 -221 8 -267 -7 -157 -50 -242
-189 -234 -380 11 -238 164 -461 416 -610 159 -94 278 -141 430 -174 309 -66
621 -22 825 117 l36 25 -28 19 c-15 11 -45 30 -66 42 l-38 23 -68 -36 c-187
-98 -433 -105 -705 -19 -91 28 -230 94 -302 144 -79 53 -178 160 -210 225 -40
82 -41 186 -2 259 14 28 37 62 52 76 51 51 146 62 259 30 146 -42 235 -93 692
-396 325 -215 415 -272 505 -322 388 -215 718 -340 1020 -386 153 -24 352 -20
500 8 153 29 355 136 455 240 76 79 108 152 109 245 0 67 -3 82 -34 140 -20
38 -64 94 -104 133 -37 38 -66 70 -65 71 2 2 41 22 85 44 138 69 122 92 -80
117 -62 8 -59 3 -77 118 -13 87 -31 116 -57 95 -8 -7 -35 -55 -58 -106 -39
-83 -46 -92 -66 -87 -103 23 -196 24 -209 3 -10 -15 8 -36 86 -101 33 -27 63
-55 67 -61 4 -7 -14 -53 -39 -103 -67 -134 -47 -155 67 -69 30 22 61 47 68 54
36 34 51 34 108 2 70 -41 148 -117 170 -166 9 -22 16 -62 17 -90 0 -210 -295
-373 -683 -375 -321 -3 -674 98 -1022 292 -90 49 -176 101 -206 125 -2 1 36
69 85 151 82 136 228 416 280 538 12 28 37 86 56 130 19 44 61 146 93 228 l58
147 110 54 c155 76 268 142 431 251 569 381 914 813 900 1128 -6 129 -74 260
-157 303 -38 19 -130 20 -184 1 -151 -54 -318 -176 -511 -373 -293 -300 -592
-728 -688 -987 -14 -37 -25 -72 -25 -77 0 -11 73 16 149 54 45 23 51 31 108
148 71 143 186 319 306 468 116 144 332 361 406 408 14 9 28 19 31 23 14 18
121 79 165 93 106 37 133 -9 88 -149 -32 -102 -142 -299 -240 -433 -63 -86
-237 -263 -343 -348 -339 -275 -725 -458 -1055 -501 -66 -9 -241 -9 -335 0
-214 20 -328 103 -316 232 9 93 37 154 99 222 98 106 247 181 589 295 228 75
339 120 380 152 26 19 49 82 42 111 -7 28 -52 65 -81 65 -33 0 -44 16 -51 71
-9 73 -8 317 2 404 16 140 67 337 123 470 23 54 110 235 118 244 2 1 18 -4 36
-13 123 -61 262 58 219 188 -39 119 -199 146 -270 46 -37 -52 -39 -150 -4
-184 13 -14 10 -18 -28 -37 -138 -70 -265 -190 -403 -382 -27 -37 -52 -64 -56
-60 -3 5 -46 67 -94 138 -49 72 -146 215 -217 319 -70 103 -128 189 -128 191
0 2 15 13 34 24 96 60 90 215 -12 270 -36 19 -94 22 -132 5z m95 -33 c20 -2
62 -47 73 -78 23 -67 -29 -142 -101 -148 -66 -5 -120 46 -120 115 0 48 25 87
65 104 27 12 40 13 83 7z m1134 -251 c10 -5 26 -26 36 -46 24 -50 6 -118 -39
-145 -109 -67 -225 56 -153 162 37 55 90 65 156 29z m-1084 -139 c3 -10 13
-28 23 -39 9 -11 100 -143 201 -292 101 -150 186 -268 190 -263 5 4 46 60 93
123 108 147 225 267 305 314 15 8 11 -4 -30 -89 -53 -109 -111 -299 -141 -460
-28 -148 -29 -436 -2 -578 l18 -99 -33 -28 c-87 -73 -252 -129 -399 -134 -126
-4 -126 -4 -165 95 -137 354 -321 571 -634 747 l-96 54 145 -6 c142 -5 284
-27 398 -63 29 -9 55 -14 57 -11 5 5 10 61 20 238 4 63 8 135 10 160 5 62 18
300 19 328 0 27 12 29 21 3z m-895 -496 c57 -30 76 -104 40 -162 -26 -43 -54
-56 -109 -50 -75 8 -115 72 -92 147 20 68 97 98 161 65z"/>
<path d="M1810 5588 c-11 -12 -20 -29 -20 -39 0 -9 -3 -31 -6 -48 -4 -17 -2
-31 3 -31 5 0 10 12 11 26 3 39 25 78 45 82 13 3 24 -10 40 -45 29 -63 33
-232 5 -259 -9 -9 -23 -14 -32 -11 -30 12 -57 89 -58 164 0 18 -4 31 -8 28
-24 -15 24 -224 74 -330 51 -106 112 -157 150 -126 82 68 10 451 -108 576 -38
40 -67 44 -96 13z"/>
<path d="M5609 3846 c-2 -2 -40 -7 -84 -10 -209 -17 -540 -106 -739 -200 -104
-48 -266 -152 -326 -208 -102 -95 -195 -233 -219 -323 -38 -145 -3 -260 116
-381 139 -141 380 -259 858 -419 576 -193 907 -390 1011 -601 25 -50 29 -71
29 -139 0 -71 -4 -89 -33 -146 -82 -168 -334 -341 -677 -467 -118 -43 -352
-112 -450 -133 -33 -7 -64 -14 -70 -15 -52 -12 -228 -42 -290 -49 -27 -4 -61
-8 -75 -11 -73 -12 -250 -19 -445 -18 -279 1 -462 26 -625 85 -71 26 -181 79
-198 96 -7 7 -19 16 -26 20 -26 16 -86 105 -96 143 -43 161 38 351 237 553
184 187 372 293 683 382 431 124 628 -2 384 -248 -65 -65 -219 -172 -304 -211
-91 -41 -225 -53 -257 -23 -7 7 -26 46 -43 87 -34 83 -56 120 -70 120 -15 0
-36 -49 -55 -127 -10 -40 -23 -79 -29 -87 -6 -9 -37 -17 -71 -21 -185 -19
-190 -29 -54 -121 38 -25 69 -47 69 -48 0 -1 -15 -46 -34 -100 -52 -148 -39
-155 101 -55 44 33 84 59 87 59 3 0 46 -25 96 -56 104 -65 127 -66 106 -6 -8
21 -28 64 -45 96 -17 32 -29 62 -26 66 2 4 24 10 47 13 90 13 290 90 401 154
80 47 203 142 258 200 179 186 207 319 89 414 -87 70 -324 91 -545 48 -27 -5
-59 -11 -71 -13 -93 -18 -318 -99 -429 -154 -376 -187 -699 -527 -789 -830
-24 -81 -17 -204 16 -274 72 -154 273 -264 590 -322 169 -30 556 -41 788 -22
167 13 198 17 295 31 17 3 47 7 68 10 72 10 112 17 155 26 23 5 57 12 75 14
17 3 61 12 97 20 36 8 76 17 90 20 185 42 433 122 625 202 262 110 432 216
566 353 300 308 186 631 -336 952 -109 68 -230 125 -435 208 -553 223 -769
335 -900 464 -91 90 -120 165 -97 254 50 190 277 377 578 475 394 129 893 134
1207 11 154 -60 236 -145 226 -233 -7 -55 -96 -212 -112 -196 -3 3 -7 36 -8
73 -5 152 -41 154 -109 6 l-44 -95 -35 5 c-74 12 -166 18 -181 12 -26 -9 -4
-37 74 -91 38 -28 70 -55 71 -62 0 -6 -22 -49 -50 -95 -87 -145 -69 -161 93
-83 l92 44 50 -57 c68 -78 104 -112 115 -112 14 0 11 42 -9 145 l-18 90 90 17
c91 18 141 40 134 61 -2 9 -139 52 -206 66 -2 1 20 25 51 54 123 118 181 216
184 316 5 127 -73 213 -266 292 -74 30 -256 73 -355 85 -33 3 -69 9 -80 11
-24 6 -480 14 -486 9z"/>
</g>
</svg>
